<svg xmlns="http://www.w3.org/2000/svg" xmlns:xlink="http://www.w3.org/1999/xlink" version="1.1" class="grouped-bar-chart" width="414" height="322" style="background-color: rgb(255, 255, 255); font-size: 14px; font-family: &quot;阿里巴巴普惠体 常规&quot;; letter-spacing: 0px; user-select: none;" totalHeight="19"><defs><clipPath id="pn9mk81i46gmrcv"><rect x="-20" y="0" width="454" height="322"/></clipPath><filter x="-10%" y="-10%" width="180%" height="180%" id="Drop_Shadow_groupBar" filterUnits="objectBoundingBox"><feGaussianBlur in="SourceAlpha" stdDeviation="0" result="blurredAlpha"/><feOffset in="blurredAlpha" dx="0.5" dy="0.7" result="offsetBlurredAlpha"/><feFlood result="flooded" style="flood-color: rgb(255, 255, 255); flood-opacity: 0.5;"/><feComposite in="flooded" in2="offsetBlurredAlpha" operator="in" result="coloredShadow"/><feComposite in="SourceGraphic" in2="coloredShadow" operator="over"/></filter></defs><g class="svg-group" opacity="1" transform="translate(24,17)"><g class="main-group" transform="translate(0,31.8)"><g class="core-group"><g class="plane-grid" transform="translate(30.799999237060547,0)"><g class="" style="fill: none; stroke: rgb(209, 209, 209); stroke-width: 1; stroke-dasharray: 4, 4; pointer-events: none;"><line class="grid-x-line" x1="0" y1="152.97479283566645" x2="335.20000076293945" y2="152.97479283566645"/><line class="grid-x-line" x1="0" y1="94.99958643427236" x2="335.20000076293945" y2="94.99958643427236"/><line class="grid-x-line" x1="0" y1="37.0243800328783" x2="335.20000076293945" y2="37.0243800328783"/></g></g></g><g class="axis-x-line" transform="translate(30.799999237060547,210.44999923706052)"><g><g class="axis-group" fill="none" font-size="10" font-family="sans-serif" text-anchor="middle" style="font-size: 14px; font-family: &quot;阿里巴巴普惠体 常规&quot;;"><path class="domain" stroke="#000" transform="translate(0,0)" d="M0.5,0.5V0.5H335.70000076293945V0.5" style="stroke: rgb(191, 191, 191); stroke-width: 1; display: block;"/><g class="tick" opacity="1" transform="translate(23.94285719735282,0)"><line stroke="#000" y2="5" transform="translate(0,0)" style="stroke: rgb(191, 191, 191); stroke-width: 1; display: block;"/><g transform="translate(0,22)"><text opacity="1" transform="translate(0,0) rotate(0)" style="text-anchor: middle; display: block; fill: rgb(84, 84, 84);">5日</text></g></g><g class="tick" opacity="1" transform="translate(71.82857159205845,0)"><line stroke="#000" y2="5" transform="translate(0,0)" style="stroke: rgb(191, 191, 191); stroke-width: 1; display: block;"/><g transform="translate(0,22)"><text opacity="1" transform="translate(0,0) rotate(0)" style="text-anchor: middle; display: block; fill: rgb(84, 84, 84);">6日</text></g></g><g class="tick" opacity="1" transform="translate(119.7142859867641,0)"><line stroke="#000" y2="5" transform="translate(0,0)" style="stroke: rgb(191, 191, 191); stroke-width: 1; display: block;"/><g transform="translate(0,22)"><text opacity="1" transform="translate(0,0) rotate(0)" style="text-anchor: middle; display: block; fill: rgb(84, 84, 84);">7日</text></g></g><g class="tick" opacity="1" transform="translate(167.60000038146973,0)"><line stroke="#000" y2="5" transform="translate(0,0)" style="stroke: rgb(191, 191, 191); stroke-width: 1; display: block;"/><g transform="translate(0,22)"><text opacity="1" transform="translate(0,0) rotate(0)" style="text-anchor: middle; display: block; fill: rgb(84, 84, 84);">8日</text></g></g><g class="tick" opacity="1" transform="translate(215.48571477617537,0)"><line stroke="#000" y2="5" transform="translate(0,0)" style="stroke: rgb(191, 191, 191); stroke-width: 1; display: block;"/><g transform="translate(0,22)"><text opacity="1" transform="translate(0,0) rotate(0)" style="text-anchor: middle; display: block; fill: rgb(84, 84, 84);">9日</text></g></g><g class="tick" opacity="1" transform="translate(263.371429170881,0)"><line stroke="#000" y2="5" transform="translate(0,0)" style="stroke: rgb(191, 191, 191); stroke-width: 1; display: block;"/><g transform="translate(0,22)"><text opacity="1" transform="translate(0,0) rotate(0)" style="text-anchor: middle; display: block; fill: rgb(84, 84, 84);">10日</text></g></g><g class="tick" opacity="1" transform="translate(311.2571435655866,0)"><line stroke="#000" y2="5" transform="translate(0,0)" style="stroke: rgb(191, 191, 191); stroke-width: 1; display: block;"/><g transform="translate(0,22)"><text opacity="1" transform="translate(0,0) rotate(0)" style="text-anchor: middle; display: block; fill: rgb(84, 84, 84);">11日</text></g></g></g></g></g><g class="axis-y-line" transform="translate(30.799999237060547,0)"><g><g class="axis-group" fill="none" font-size="10" font-family="sans-serif" text-anchor="end"><path class="domain" stroke="#000" d="M0.5,210.94999923706052H0.5V0.5H0.5" style="stroke: rgb(191, 191, 191); stroke-width: 1; display: none;"/><g class="tick" opacity="1" transform="translate(0,210.94999923706052)"><line stroke="#000" x2="-5" style="stroke: rgb(191, 191, 191); stroke-width: 1; display: none;"/><text dx="-8" dy="5.6000000000000005" style="font-size: 14px; font-family: &quot;阿里巴巴普惠体 常规&quot;; fill: rgb(84, 84, 84); display: block;">0</text></g><g class="tick" opacity="1" transform="translate(0,152.97479283566645)"><line stroke="#000" x2="-5" style="stroke: rgb(191, 191, 191); stroke-width: 1; display: none;"/><text dx="-8" dy="5.6000000000000005" style="font-size: 14px; font-family: &quot;阿里巴巴普惠体 常规&quot;; fill: rgb(84, 84, 84); display: block;">0.2</text></g><g class="tick" opacity="1" transform="translate(0,94.99958643427236)"><line stroke="#000" x2="-5" style="stroke: rgb(191, 191, 191); stroke-width: 1; display: none;"/><text dx="-8" dy="5.6000000000000005" style="font-size: 14px; font-family: &quot;阿里巴巴普惠体 常规&quot;; fill: rgb(84, 84, 84); display: block;">0.4</text></g><g class="tick" opacity="1" transform="translate(0,37.0243800328783)"><line stroke="#000" x2="-5" style="stroke: rgb(191, 191, 191); stroke-width: 1; display: none;"/><text dx="-8" dy="5.6000000000000005" style="font-size: 14px; font-family: &quot;阿里巴巴普惠体 常规&quot;; fill: rgb(84, 84, 84); display: block;">0.6</text></g></g></g></g><g class="core-group" transform="translate(30.799999237060547,0)" clip-path=""><g class="grouped-bar-rect"><g><g><g><path class="group-bar-rects" d="&#10;    M7.182857159205847 51.01818163322679&#10;    A0 0 0 0 1 7.182857159205847 51.01818163322679&#10;    H23.59285719735282&#10;    A0 0 0 0 1 23.59285719735282 51.01818163322679&#10;    V210.44999923706052&#10;    A0 0 0 0 1 23.59285719735282 210.44999923706052&#10;    H7.182857159205847&#10;    A0 0 0 0 1 7.182857159205847 210.44999923706052&#10;    Z&#10;  " style="fill: rgb(90, 174, 243); fill-opacity: 1; stroke-width: 0; stroke: rgb(90, 174, 243);"/><path class="group-bar-rects" d="&#10;    M55.06857155391148 71.30950387371473&#10;    A0 0 0 0 1 55.06857155391148 71.30950387371473&#10;    H71.47857159205846&#10;    A0 0 0 0 1 71.47857159205846 71.30950387371473&#10;    V210.44999923706052&#10;    A0 0 0 0 1 71.47857159205846 210.44999923706052&#10;    H55.06857155391148&#10;    A0 0 0 0 1 55.06857155391148 210.44999923706052&#10;    Z&#10;  " style="fill: rgb(90, 174, 243); fill-opacity: 1; stroke-width: 0; stroke: rgb(90, 174, 243);"/><path class="group-bar-rects" d="&#10;    M102.95428594861713 53.916941953296515&#10;    A0 0 0 0 1 102.95428594861713 53.916941953296515&#10;    H119.3642859867641&#10;    A0 0 0 0 1 119.3642859867641 53.916941953296515&#10;    V210.44999923706052&#10;    A0 0 0 0 1 119.3642859867641 210.44999923706052&#10;    H102.95428594861713&#10;    A0 0 0 0 1 102.95428594861713 210.44999923706052&#10;    Z&#10;  " style="fill: rgb(90, 174, 243); fill-opacity: 1; stroke-width: 0; stroke: rgb(90, 174, 243);"/><path class="group-bar-rects" d="&#10;    M150.84000034332274 106.0946277145512&#10;    A0 0 0 0 1 150.84000034332274 106.0946277145512&#10;    H167.2500003814697&#10;    A0 0 0 0 1 167.2500003814697 106.0946277145512&#10;    V210.44999923706052&#10;    A0 0 0 0 1 167.2500003814697 210.44999923706052&#10;    H150.84000034332274&#10;    A0 0 0 0 1 150.84000034332274 210.44999923706052&#10;    Z&#10;  " style="fill: rgb(90, 174, 243); fill-opacity: 1; stroke-width: 0; stroke: rgb(90, 174, 243);"/><path class="group-bar-rects" d="&#10;    M198.7257147380284 80.00578483392385&#10;    A0 0 0 0 1 198.7257147380284 80.00578483392385&#10;    H215.13571477617535&#10;    A0 0 0 0 1 215.13571477617535 80.00578483392385&#10;    V210.44999923706052&#10;    A0 0 0 0 1 215.13571477617535 210.44999923706052&#10;    H198.7257147380284&#10;    A0 0 0 0 1 198.7257147380284 210.44999923706052&#10;    Z&#10;  " style="fill: rgb(90, 174, 243); fill-opacity: 1; stroke-width: 0; stroke: rgb(90, 174, 243);"/><path class="group-bar-rects" d="&#10;    M246.61142913273403 19.131818112460053&#10;    A0 0 0 0 1 246.61142913273403 19.131818112460053&#10;    H263.021429170881&#10;    A0 0 0 0 1 263.021429170881 19.131818112460053&#10;    V210.44999923706052&#10;    A0 0 0 0 1 263.021429170881 210.44999923706052&#10;    H246.61142913273403&#10;    A0 0 0 0 1 246.61142913273403 210.44999923706052&#10;    Z&#10;  " style="fill: rgb(90, 174, 243); fill-opacity: 1; stroke-width: 0; stroke: rgb(90, 174, 243);"/><path class="group-bar-rects" d="&#10;    M294.4971435274397 68.41074355364503&#10;    A0 0 0 0 1 294.4971435274397 68.41074355364503&#10;    H310.90714356558664&#10;    A0 0 0 0 1 310.90714356558664 68.41074355364503&#10;    V210.44999923706052&#10;    A0 0 0 0 1 310.90714356558664 210.44999923706052&#10;    H294.4971435274397&#10;    A0 0 0 0 1 294.4971435274397 210.44999923706052&#10;    Z&#10;  " style="fill: rgb(90, 174, 243); fill-opacity: 1; stroke-width: 0; stroke: rgb(90, 174, 243);"/></g><g><path class="group-bar-rects" d="&#10;    M24.59285719735282 80.00578483392385&#10;    A0 0 0 0 1 24.59285719735282 80.00578483392385&#10;    H41.00285723549979&#10;    A0 0 0 0 1 41.00285723549979 80.00578483392385&#10;    V210.44999923706052&#10;    A0 0 0 0 1 41.00285723549979 210.44999923706052&#10;    H24.59285719735282&#10;    A0 0 0 0 1 24.59285719735282 210.44999923706052&#10;    Z&#10;  " style="fill: rgb(98, 217, 173); fill-opacity: 1; stroke-width: 0; stroke: rgb(98, 217, 173);"/><path class="group-bar-rects" d="&#10;    M72.47857159205846 59.71446259343594&#10;    A0 0 0 0 1 72.47857159205846 59.71446259343594&#10;    H88.88857163020543&#10;    A0 0 0 0 1 88.88857163020543 59.71446259343594&#10;    V210.44999923706052&#10;    A0 0 0 0 1 88.88857163020543 210.44999923706052&#10;    H72.47857159205846&#10;    A0 0 0 0 1 72.47857159205846 210.44999923706052&#10;    Z&#10;  " style="fill: rgb(98, 217, 173); fill-opacity: 1; stroke-width: 0; stroke: rgb(98, 217, 173);"/><path class="group-bar-rects" d="&#10;    M120.36428598676409 77.10702451385413&#10;    A0 0 0 0 1 120.36428598676409 77.10702451385413&#10;    H136.77428602491105&#10;    A0 0 0 0 1 136.77428602491105 77.10702451385413&#10;    V210.44999923706052&#10;    A0 0 0 0 1 136.77428602491105 210.44999923706052&#10;    H120.36428598676409&#10;    A0 0 0 0 1 120.36428598676409 210.44999923706052&#10;    Z&#10;  " style="fill: rgb(98, 217, 173); fill-opacity: 1; stroke-width: 0; stroke: rgb(98, 217, 173);"/><path class="group-bar-rects" d="&#10;    M168.25000038146973 24.929338752599477&#10;    A0 0 0 0 1 168.25000038146973 24.929338752599477&#10;    H184.6600004196167&#10;    A0 0 0 0 1 184.6600004196167 24.929338752599477&#10;    V210.44999923706052&#10;    A0 0 0 0 1 184.6600004196167 210.44999923706052&#10;    H168.25000038146973&#10;    A0 0 0 0 1 168.25000038146973 210.44999923706052&#10;    Z&#10;  " style="fill: rgb(98, 217, 173); fill-opacity: 1; stroke-width: 0; stroke: rgb(98, 217, 173);"/><path class="group-bar-rects" d="&#10;    M216.13571477617538 51.01818163322679&#10;    A0 0 0 0 1 216.13571477617538 51.01818163322679&#10;    H232.54571481432234&#10;    A0 0 0 0 1 232.54571481432234 51.01818163322679&#10;    V210.44999923706052&#10;    A0 0 0 0 1 232.54571481432234 210.44999923706052&#10;    H216.13571477617538&#10;    A0 0 0 0 1 216.13571477617538 210.44999923706052&#10;    Z&#10;  " style="fill: rgb(98, 217, 173); fill-opacity: 1; stroke-width: 0; stroke: rgb(98, 217, 173);"/><path class="group-bar-rects" d="&#10;    M264.021429170881 111.89214835469059&#10;    A0 0 0 0 1 264.021429170881 111.89214835469059&#10;    H280.43142920902795&#10;    A0 0 0 0 1 280.43142920902795 111.89214835469059&#10;    V210.44999923706052&#10;    A0 0 0 0 1 280.43142920902795 210.44999923706052&#10;    H264.021429170881&#10;    A0 0 0 0 1 264.021429170881 210.44999923706052&#10;    Z&#10;  " style="fill: rgb(98, 217, 173); fill-opacity: 1; stroke-width: 0; stroke: rgb(98, 217, 173);"/><path class="group-bar-rects" d="&#10;    M311.90714356558664 62.61322291350564&#10;    A0 0 0 0 1 311.90714356558664 62.61322291350564&#10;    H328.3171436037336&#10;    A0 0 0 0 1 328.3171436037336 62.61322291350564&#10;    V210.44999923706052&#10;    A0 0 0 0 1 328.3171436037336 210.44999923706052&#10;    H311.90714356558664&#10;    A0 0 0 0 1 311.90714356558664 210.44999923706052&#10;    Z&#10;  " style="fill: rgb(98, 217, 173); fill-opacity: 1; stroke-width: 0; stroke: rgb(98, 217, 173);"/></g></g><g><g class="groupedBarTexts" style="display: none;"><text class="group-bar-texts" fill="#545454" x="15.387857178279333" text-anchor="middle" y="46.818181633226786" style="font-size: 14px; font-family: &quot;阿里巴巴普惠体 常规&quot;; display: none; opacity: 1; visibility: hidden;">0.55</text><text class="group-bar-texts" fill="#545454" x="63.27357157298497" text-anchor="middle" y="67.10950387371473" style="font-size: 14px; font-family: &quot;阿里巴巴普惠体 常规&quot;; display: none; opacity: 1; visibility: hidden;">0.48</text><text class="group-bar-texts" fill="#545454" x="111.15928596769061" text-anchor="middle" y="49.71694195329651" style="font-size: 14px; font-family: &quot;阿里巴巴普惠体 常规&quot;; display: none; opacity: 1; visibility: hidden;">0.54</text><text class="group-bar-texts" fill="#545454" x="159.04500036239622" text-anchor="middle" y="101.89462771455119" style="font-size: 14px; font-family: &quot;阿里巴巴普惠体 常规&quot;; display: none; opacity: 1; visibility: hidden;">0.36</text><text class="group-bar-texts" fill="#545454" x="206.93071475710187" text-anchor="middle" y="75.80578483392385" style="font-size: 14px; font-family: &quot;阿里巴巴普惠体 常规&quot;; display: none; opacity: 1; visibility: hidden;">0.45</text><text class="group-bar-texts" fill="#545454" x="254.8164291518075" text-anchor="middle" y="14.931818112460054" style="font-size: 14px; font-family: &quot;阿里巴巴普惠体 常规&quot;; display: none; opacity: 1; visibility: hidden;">0.66</text><text class="group-bar-texts" fill="#545454" x="302.7021435465132" text-anchor="middle" y="64.21074355364503" style="font-size: 14px; font-family: &quot;阿里巴巴普惠体 常规&quot;; display: none; opacity: 1; visibility: hidden;">0.49</text></g><g class="groupedBarTexts" style="display: none;"><text class="group-bar-texts" fill="#545454" x="32.79785721642631" text-anchor="middle" y="75.80578483392385" style="font-size: 14px; font-family: &quot;阿里巴巴普惠体 常规&quot;; display: none; opacity: 1; visibility: hidden;">0.45</text><text class="group-bar-texts" fill="#545454" x="80.68357161113194" text-anchor="middle" y="55.51446259343594" style="font-size: 14px; font-family: &quot;阿里巴巴普惠体 常规&quot;; display: none; opacity: 1; visibility: hidden;">0.52</text><text class="group-bar-texts" fill="#545454" x="128.56928600583757" text-anchor="middle" y="72.90702451385413" style="font-size: 14px; font-family: &quot;阿里巴巴普惠体 常规&quot;; display: none; opacity: 1; visibility: hidden;">0.46</text><text class="group-bar-texts" fill="#545454" x="176.4550004005432" text-anchor="middle" y="20.729338752599478" style="font-size: 14px; font-family: &quot;阿里巴巴普惠体 常规&quot;; display: none; opacity: 1; visibility: hidden;">0.64</text><text class="group-bar-texts" fill="#545454" x="224.34071479524886" text-anchor="middle" y="46.818181633226786" style="font-size: 14px; font-family: &quot;阿里巴巴普惠体 常规&quot;; display: none; opacity: 1; visibility: hidden;">0.55</text><text class="group-bar-texts" fill="#545454" x="272.2264291899545" text-anchor="middle" y="107.69214835469059" style="font-size: 14px; font-family: &quot;阿里巴巴普惠体 常规&quot;; display: none; opacity: 1; visibility: hidden;">0.34</text><text class="group-bar-texts" fill="#545454" x="320.11214358466015" text-anchor="middle" y="58.413222913505635" style="font-size: 14px; font-family: &quot;阿里巴巴普惠体 常规&quot;; display: none; opacity: 1; visibility: visible;">0.51</text></g></g></g></g><rect class="selectOverlay-rect" x="0" y="0" width="47.88571439470564" height="209.64999809265134" style="display: none; fill: rgb(204, 204, 204); opacity: 0.15;"/><g class="bands-overlay" style="opacity: 0;"><rect class="band-0" x="0" y="0" width="47.88571439470564" height="209.64999809265134" style="fill: rgb(0, 0, 0);"/><rect class="band-1" x="47.88571439470564" y="0" width="47.88571439470564" height="209.64999809265134" style="fill: rgb(0, 0, 0);"/><rect class="band-2" x="95.77142878941127" y="0" width="47.88571439470564" height="209.64999809265134" style="fill: rgb(0, 0, 0);"/><rect class="band-3" x="143.6571431841169" y="0" width="47.88571439470564" height="209.64999809265134" style="fill: rgb(0, 0, 0);"/><rect class="band-4" x="191.54285757882255" y="0" width="47.88571439470564" height="209.64999809265134" style="fill: rgb(0, 0, 0);"/><rect class="band-5" x="239.4285719735282" y="0" width="47.88571439470564" height="209.64999809265134" style="fill: rgb(0, 0, 0);"/><rect class="band-6" x="287.3142863682338" y="0" width="47.88571439470564" height="209.64999809265134" style="fill: rgb(0, 0, 0);"/></g></g></g><text dy="1em" transform="translate(0,0)" style="fill: rgb(76, 76, 76); font-size: 18px; font-family: &quot;阿里巴巴普惠体 常规&quot;; font-weight: bold; text-anchor: start; display: block;"><tspan x="0" y="0">商品用券情况</tspan></text><g class="unit-group" transform="translate(0,31.8)" style="display: none;"/><g class="source-group" transform="translate(0,291.7)" style="display: none;"/><g class="legend" transform="translate(0,277.87499923706054)" style="display: block;"><g transform="translate(113,0)"><g class="legend-group"><g class="legend-item" transform="translate(0,0)" style="opacity: 1;"><circle cx="6" cy="6" r="6" class="legend-shape" style="fill: rgb(90, 174, 243);"/><text x="18" y="6" dy="0.35em" style="text-anchor: start; font-size: 14px; font-family: &quot;阿里巴巴普惠体 常规&quot;; fill: rgb(51, 51, 51);">用券</text></g><g class="legend-item" transform="translate(66,0)" style="opacity: 1;"><circle cx="6" cy="6" r="6" class="legend-shape" style="fill: rgb(98, 217, 173);"/><text x="18" y="6" dy="0.35em" style="text-anchor: start; font-size: 14px; font-family: &quot;阿里巴巴普惠体 常规&quot;; fill: rgb(51, 51, 51);">未使用券</text></g></g></g></g></g></svg>