<svg width="16" height="16" viewBox="0 0 16 16" xmlns="http://www.w3.org/2000/svg" xmlns:xlink="http://www.w3.org/1999/xlink"><defs><filter x="-7.8%" y="-7.1%" width="115.5%" height="114.3%" filterUnits="objectBoundingBox" id="filter-4"><feGaussianBlur stdDeviation=".5" in="SourceAlpha" result="shadowBlurInner1"/><feOffset dy="1" in="shadowBlurInner1" result="shadowOffsetInner1"/><feComposite in="shadowOffsetInner1" in2="SourceAlpha" operator="arithmetic" k2="-1" k3="1" result="shadowInnerInner1"/><feColorMatrix values="0 0 0 0 1 0 0 0 0 1 0 0 0 0 1 0 0 0 0.16 0" in="shadowInnerInner1"/></filter><filter x="-28.7%" y="-64.3%" width="214.9%" height="357.1%" filterUnits="objectBoundingBox" id="filter-6"><feOffset dx="1" dy="1" in="SourceAlpha" result="shadowOffsetOuter1"/><feGaussianBlur stdDeviation=".5" in="shadowOffsetOuter1" result="shadowBlurOuter1"/><feColorMatrix values="0 0 0 0 0 0 0 0 0 0 0 0 0 0 0 0 0 0 0.2 0" in="shadowBlurOuter1"/></filter><filter x="-28.7%" y="-64.3%" width="214.9%" height="357.1%" filterUnits="objectBoundingBox" id="filter-8"><feOffset dx="1" dy="1" in="SourceAlpha" result="shadowOffsetOuter1"/><feGaussianBlur stdDeviation=".5" in="shadowOffsetOuter1" result="shadowBlurOuter1"/><feColorMatrix values="0 0 0 0 0 0 0 0 0 0 0 0 0 0 0 0 0 0 0.2 0" in="shadowBlurOuter1"/></filter><filter x="-28.7%" y="-64.3%" width="214.9%" height="357.1%" filterUnits="objectBoundingBox" id="filter-10"><feOffset dx="1" dy="1" in="SourceAlpha" result="shadowOffsetOuter1"/><feGaussianBlur stdDeviation=".5" in="shadowOffsetOuter1" result="shadowBlurOuter1"/><feColorMatrix values="0 0 0 0 0 0 0 0 0 0 0 0 0 0 0 0 0 0 0.2 0" in="shadowBlurOuter1"/></filter><filter x="-28.7%" y="-64.3%" width="214.9%" height="357.1%" filterUnits="objectBoundingBox" id="filter-12"><feOffset dx="1" dy="1" in="SourceAlpha" result="shadowOffsetOuter1"/><feGaussianBlur stdDeviation=".5" in="shadowOffsetOuter1" result="shadowBlurOuter1"/><feColorMatrix values="0 0 0 0 0 0 0 0 0 0 0 0 0 0 0 0 0 0 0.2 0" in="shadowBlurOuter1"/></filter><linearGradient x1="100%" y1="45.529%" x2="77.053%" y2="45.529%" id="linearGradient-1"><stop stop-color="#008F4B" offset="0%"/><stop stop-color="#00833C" offset="100%"/></linearGradient><linearGradient x1="74.669%" y1="0%" x2="11.621%" y2="96.701%" id="linearGradient-2"><stop stop-color="#00D689" offset="0%"/><stop stop-color="#00AA5B" offset="100%"/></linearGradient><polygon id="path-5" points="7.18666667 9.9676378 10.6666667 9.9676378 10.6666667 11.5231934 7.18666667 11.5231934"/><polygon id="path-7" points="2.45847656 9.9676378 5.93847656 9.9676378 5.93847656 11.5231934 2.45847656 11.5231934"/><rect id="path-9" x="6.974" y="7.389" width="3.48" height="1.556"/><rect id="path-11" x="2.458" y="7.389" width="3.48" height="1.556"/><path d="M11.389 0c.618 0 1.12.501 1.12 1.12V14H1.683a1.12 1.12 0 0 1-1.12-1.12V1.12C.563.501 1.065 0 1.683 0h9.706Zm1.121 13.067a.93.93 0 0 0 .928.933h-.928v-.997.064Z" id="path-3"/></defs><g id="品类图标库" stroke="none" stroke-width="1" fill="none" fill-rule="evenodd"><g id="腾讯文档品类图标切图库" transform="translate(-1231 -629)"><g id="file_sheet_16" transform="translate(1231 629)"><g id="编组-6" transform="translate(.5 1)"><path d="M4.274 3.495h9.076c.619 0 1.12.502 1.12 1.12v8.265A1.12 1.12 0 0 1 13.35 14H4.284a1.123 1.123 0 0 1-1.121-1.12l-.008-8.265a1.118 1.118 0 0 1 1.119-1.12Z" id="蒙版备份" fill="url(#linearGradient-1)"/><g id="蒙版"><use fill="url(#linearGradient-2)" xlink:href="#path-3"/><use fill="#000" filter="url(#filter-4)" xlink:href="#path-3"/></g><g id="Rectangle-19-Copy-5备份-2"><use fill="#000" filter="url(#filter-6)" xlink:href="#path-5"/><use fill="#A3F0D4" xlink:href="#path-5"/></g><g id="Rectangle-19-Copy-4备份-3"><use fill="#000" filter="url(#filter-8)" xlink:href="#path-7"/><use fill="#A3F0D4" xlink:href="#path-7"/></g><g id="Rectangle-19-Copy-5备份"><use fill="#000" filter="url(#filter-10)" xlink:href="#path-9"/><use fill="#E0FBF1" xlink:href="#path-9"/></g><g id="Rectangle-19-Copy-4"><use fill="#000" filter="url(#filter-12)" xlink:href="#path-11"/><use fill="#E0FBF1" xlink:href="#path-11"/></g></g></g></g></g></svg>