<svg viewBox="0 0 96 96" xmlns="http://www.w3.org/2000/svg" xmlns:xlink="http://www.w3.org/1999/xlink"
  id="Icons_AlterationsTailoring2" overflow="hidden">
  <path
    d="M29 47C38.532 47 46 42.607 46 37 46 31.393 38.532 27 29 27 19.468 27 12 31.393 12 37 12 42.607 19.468 47 29 47ZM29 31C36.661 31 42 34.162 42 37 42 39.838 36.661 43 29 43 21.339 43 16 39.838 16 37 16 34.162 21.339 31 29 31Z" />
  <ellipse cx="29" cy="37" rx="9" ry="4" />
  <path
    d="M89.662 39.788C78.619 34.815 67.194 34.888 55.651 39.944 55.8812 38.9795 55.9984 37.9916 56 37 56 26.907 44.141 19 29 19 13.859 19 2 26.907 2 37L2 57.694C2 68.52 14.369 77 30.159 77 39.659 77 49.521 71.789 54.818 68.989 65.875 63.145 76.77 62.562 87.198 67.258L94 70.323 94 41.742ZM61 44.264C62.3115 43.8008 63.6467 43.4076 65 43.086L65 56 61 56ZM11 51 11.848 51C12.8686 51.5514 13.9212 52.0416 15 52.468L15 58 11 58ZM31 54.948C32.3667 54.8813 33.7 54.7543 35 54.567L35 61 31 61ZM41 53.185C42.3685 52.7441 43.705 52.2095 45 51.585L45 64 41 64ZM51 48.829C52.435 48.194 53.728 47.565 54.818 46.989 54.879 46.957 54.939 46.93 55 46.898L55 54 51 54ZM25 66 21 66 21 54.225C22.3225 54.4878 23.6576 54.683 25 54.81ZM71 49 71 42.192C72.3321 42.111 73.6679 42.111 75 42.192L75 49ZM29 25C40.383 25 50 30.5 50 37 50 43.5 40.383 49 29 49 17.617 49 8 43.505 8 37 8 30.495 17.617 25 29 25ZM88 61.078C85.9727 60.2603 83.8847 59.602 81.755 59.109 80.6614 56.7016 80.0645 54.0984 80 51.455 80.0392 48.629 80.8707 45.8708 82.4 43.494 84.0388 43.9704 85.6427 44.5598 87.2 45.258L88 45.619Z" />
</svg>