<svg width="506" height="322" viewBox="0 0 506 322" fill="none" xmlns="http://www.w3.org/2000/svg">
<path d="M35.3601 264.31C35.9001 296.36 62.1501 321.99 94.2101 321.76L447.65 319.29C479.76 319.06 505.67 292.96 505.65 260.85C505.65 252.27 505.6 243.18 505.49 233.89H34.8501L35.3601 264.31Z" fill="#BF8673"/>
<path d="M487.63 274.34C480.07 256.9 449 253.62 449 253.62H199.33C199.33 253.62 172.59 252.46 165.03 254.2C157.47 255.94 151.66 266.41 147.01 274.55C142.36 282.69 147.01 285.01 147.01 285.01H182.76C182.76 285.01 158.34 298.38 157.76 315.24C157.68 317.5 158.77 319.51 160.82 321.29L447.64 319.28C466.27 319.14 482.82 310.3 493.42 296.62C493.44 287.99 489.93 279.63 487.63 274.33V274.34Z" fill="#B87C69"/>
<path d="M154.04 298.97C154.04 293.66 124.18 289.36 87.3501 289.36C70.2101 289.36 54.5701 290.29 42.7601 291.82C46.0601 297.73 50.3601 303 55.4301 307.41C64.9101 308.16 75.7901 308.58 87.3501 308.58C124.18 308.58 154.04 304.28 154.04 298.97Z" fill="#B87C69"/>
<path d="M505.02 208.37C503.76 159.8 499.32 114.08 360.21 114.08C315.48 111.67 314.79 0.719971 185.31 0.719971C55.8301 0.719971 32.9901 70.49 32.9901 123.01L34.8201 232.49H505.47C505.37 224.52 505.22 216.41 505.02 208.36V208.37Z" fill="#EBE0D8"/>
<path d="M115.67 230.44H505.44C505.34 223.13 505.2 215.72 505.01 208.37C504.89 203.85 504.72 198.86 504.44 194.43L77.8002 194.29L115.67 230.45V230.44Z" fill="#DECBBF"/>
<path d="M34.8801 235.93H505.51C505.48 233.49 505.45 231.03 505.42 228.56H34.7601L34.8801 235.93Z" fill="#D4B59F"/>
<path d="M360.21 114.08C315.48 111.67 314.79 0.719971 185.31 0.719971C148.92 0.719971 120.96 6.22997 99.5601 15.32V182.08H503.17C497.55 144.5 473.68 114.08 360.2 114.08H360.21Z" fill="#D1937E"/>
<path d="M502.31 177.11H104.18L77.9401 190.31H504.13C503.74 185.82 503.17 181.41 502.3 177.11H502.31Z" fill="#BF8673"/>
<path d="M504.13 190.31H77.9401V194.43H504.44C504.35 193.05 504.25 191.68 504.13 190.31Z" fill="#D1937E"/>
<path d="M360.21 114.08C315.48 111.67 314.79 0.719971 185.31 0.719971C151.49 0.719971 124.95 5.47997 104.19 13.45V146.67H487.89C470.39 127.12 434.51 114.08 360.21 114.08Z" fill="#DDEAF0"/>
<path d="M411.94 116.75V134.85H375.7V114.28C375.92 114.28 376.14 114.29 376.36 114.3C385.31 114.55 393.64 115.02 401.38 115.68C405.03 115.99 408.54 116.35 411.94 116.75Z" fill="#C0DBF2"/>
<path d="M437.62 121.09V134.85H401.38V115.68C405.03 115.99 408.54 116.35 411.94 116.75C421.45 117.87 429.97 119.33 437.62 121.08V121.09Z" fill="#B1D3F2"/>
<path d="M437.62 121.09C452.79 124.58 464.51 129.25 473.56 134.85H437.62V121.09Z" fill="#C0DBF2"/>
<path d="M376.36 114.3V134.85H323.99V83.96C335.42 100.59 345.4 113.28 360.21 114.08C365.57 114.08 370.73 114.15 375.7 114.28C375.92 114.28 376.14 114.29 376.36 114.3Z" fill="#B1D3F2"/>
<path d="M323.99 83.96V134.85H307.32V60.12C307.55 60.42 307.77 60.72 307.99 61.02C313.92 68.97 319.09 76.83 323.99 83.96Z" fill="#C0DBF2"/>
<path d="M275.45 40.64H247.49V134.85H275.45V40.64Z" fill="#C0DBF2"/>
<path d="M248.92 39.56H214.11V134.85H248.92V39.56Z" fill="#B1D3F2"/>
<path d="M307.99 61.02V134.85H273.18V29.86H278.62C290.27 39.12 299.47 49.68 307.32 60.12C307.55 60.42 307.77 60.72 307.99 61.02Z" fill="#B1D3F2"/>
<path d="M173.59 38.16H137.35V134.85H173.59V38.16Z" fill="#B1D3F2"/>
<path d="M220.45 20.36H166.17V134.85H220.45V20.36Z" fill="#C0DBF2"/>
<path d="M140.21 29.58H104.18V134.86H140.21V29.58Z" fill="#C0DBF2"/>
<path d="M497.81 162.29H104.18V177.11H502.31C501.28 171.99 499.85 167.03 497.81 162.29Z" fill="#AAA0A1"/>
<path d="M104.18 162.85H498.04C493.22 151.34 484.91 141.1 470.41 133.01H104.18V162.85Z" fill="#DDD3D4"/>
<path d="M496.83 160.13H104.18V166.14H499.32C498.59 164.1 497.77 162.09 496.83 160.13Z" fill="#CEC0C2"/>
<path d="M156.35 103.02C154.62 94.46 145.77 97.43 145.77 97.43C137.86 83.94 121.16 87.68 121.16 87.68C119.73 72.84 106.13 69.23 104.18 68.79V113.54H187.89C181.67 98.15 156.35 103.02 156.35 103.02Z" fill="#A0B56D"/>
<path d="M332.28 95.44C329.42 96.42 327.71 97.43 327.71 97.43C327.71 97.43 319.77 80.38 301.08 82.17C282.39 83.96 278.48 99.77 278.48 99.77C278.48 99.77 267.48 95.32 259.11 97.92C250.73 100.52 249.97 113.75 249.97 113.75H357.27C347.54 112.13 339.89 105.16 332.28 95.43V95.44Z" fill="#A0B56D"/>
<path d="M104.18 137.78H477.94C457.86 123.27 422.56 114.08 360.21 114.08C358.28 113.98 356.44 113.67 354.66 113.18H104.18V137.77V137.78Z" fill="#ABBF7B"/>
<path opacity="0.22" d="M254.42 14.74C236.47 6.18997 214.06 0.719971 185.3 0.719971C185.29 0.719971 185.27 0.719971 185.26 0.719971L106.14 177.11H181.59L254.42 14.74Z" fill="white"/>
<path opacity="0.22" d="M302.62 54.09L247.44 177.11H295.04L331.89 94.95C323.14 83.64 314.41 68.72 302.61 54.09H302.62Z" fill="white"/>
<path opacity="0.22" d="M355.72 177.11H468.49L483.94 142.67C467.44 127.45 437.71 116.89 383.78 114.56L355.73 177.1L355.72 177.11Z" fill="white"/>
<path d="M457.57 101.76H241.09C234.678 101.76 229.48 106.958 229.48 113.37V223.74C229.48 230.152 234.678 235.35 241.09 235.35H457.57C463.982 235.35 469.18 230.152 469.18 223.74V113.37C469.18 106.958 463.982 101.76 457.57 101.76Z" fill="#FDD69B"/>
<path d="M444.21 235.35H457.57C463.98 235.35 469.18 230.15 469.18 223.74V113.36C469.18 106.95 463.98 101.75 457.57 101.75H444.21C450.62 101.75 455.82 106.95 455.82 113.36V223.74C455.82 230.15 450.62 235.35 444.21 235.35Z" fill="#F2C58B"/>
<path d="M199.16 280.83H188.74V232.19H206.42L199.16 280.83Z" fill="#E3C6BC"/>
<path d="M235.48 270.41H225.06V221.77H242.74L235.48 270.41Z" fill="#D1AD9F"/>
<path d="M442.97 270.41H453.39V221.77H435.7L442.97 270.41Z" fill="#D1AD9F"/>
<path d="M406.65 280.83H417.07V232.19H399.38L406.65 280.83Z" fill="#E3C6BC"/>
<path d="M457.57 190.11H187.32C180.908 190.11 175.71 195.308 175.71 201.72V223.74C175.71 230.152 180.908 235.35 187.32 235.35H457.57C463.982 235.35 469.18 230.152 469.18 223.74V201.72C469.18 195.308 463.982 190.11 457.57 190.11Z" fill="#FFCD95"/>
<path d="M469.18 223.75V201.72C469.18 195.31 463.98 190.11 457.57 190.11H455.81V223.74C455.81 230.15 450.61 235.35 444.2 235.35H457.56C463.97 235.35 469.17 230.15 469.17 223.74L469.18 223.75Z" fill="#F2C58B"/>
<path d="M457.57 190.11H187.32C180.91 190.11 175.71 195.31 175.71 201.72V209.61H469.18V201.72C469.18 195.31 463.98 190.11 457.57 190.11Z" fill="#F2C58B"/>
<path d="M425.88 181.05C425.88 181.05 426.43 163.64 404.59 162.59C382.75 161.54 336.23 173.04 328.35 175.93C320.47 178.82 317.45 196.31 333.56 200.02C349.67 203.73 378.11 203.34 398.54 203.46C420.27 203.59 425.78 194.5 425.89 181.05H425.88Z" fill="#D38475"/>
<path d="M426.91 180.41C426.91 180.41 426.71 164.41 408.43 162.07C390.15 159.73 343.99 169.78 334.19 172.66C324.38 175.54 319.47 182.62 321.45 188.28C323.43 193.95 331.09 201.45 348.53 203.12C367.32 204.91 402.19 207.78 415.79 201.28C428.51 195.58 426.91 180.41 426.91 180.41Z" fill="#BFA0A0"/>
<path d="M426.94 183.46C426.48 190.98 423.32 197.9 415.79 201.28C398.32 208.15 358.47 205.52 337.08 200.85C337.47 192.79 339 182.24 343.25 180.54C348.78 178.33 380.08 170.93 380.27 169.42C380.39 168.44 379.68 165.56 379.16 163.67C395.68 162.1 411.85 157.89 422.31 168.89C426.06 173.22 427.27 178.96 426.93 183.45L426.94 183.46Z" fill="#B59393"/>
<path d="M320.53 189.89C320.53 189.89 322.53 272 323.89 277.29C325.24 282.58 333.08 285.31 335.57 276.23C338.07 267.16 342.21 243.6 343.91 233.18C347.46 211.4 347.86 191.3 345.22 184.09C342.05 175.69 321.39 168.31 320.53 189.88V189.89Z" fill="#D89281"/>
<path d="M323.27 270.92C323.27 270.92 324.17 278.08 317.85 279.85C312.08 281.47 297.73 284.34 295.74 287.31C293.74 290.28 299.07 292.84 304.19 293.52C309.31 294.2 320.64 292.77 328.39 292.61C336.14 292.45 338.41 291.06 339.09 289C340.29 285.41 335.67 278.58 335.99 272.72C336.52 263.11 323.31 260.46 323.25 270.91L323.27 270.92Z" fill="#D89281"/>
<path d="M295.27 288.92C295.27 288.92 295.5 291.56 295.58 292.28C295.66 293 299.12 295.51 307.27 295.23C315.42 294.95 324.2 294.07 328.89 293.88C333.58 293.69 337.98 293.85 338.73 293.42C339.69 292.87 339.15 289.5 339.15 289.5L295.28 288.93L295.27 288.92Z" fill="#D7DFE0"/>
<path d="M336.93 275.67C336.91 275.61 336.85 275.56 336.78 275.56C336.52 275.54 335.83 275.58 334.89 276.21C333.67 277.02 330.64 278.96 325.76 279.29C325.76 279.29 322.47 275.72 319.54 275.8C318.76 276.02 315.82 278.05 309.02 280.12C302.23 282.19 295.2 285.38 295.22 288.38C295.23 291.38 298.66 292.66 305.51 292.74C312.36 292.82 319.9 291.97 329.15 291.27C338.39 290.57 338.85 290.49 339.15 289.51C339.45 288.52 339.61 284.67 338.81 281.56C338.03 278.52 337.42 277 336.94 275.68L336.93 275.67Z" fill="#D1D6DB"/>
<path d="M319.54 275.8C318.76 276.02 315.82 278.05 309.02 280.12C307.28 280.65 305.53 281.25 303.89 281.91C307.32 284.91 309.09 283.67 313.65 282.48C318.38 281.25 325.76 279.29 325.76 279.29C325.76 279.29 322.47 275.72 319.54 275.8Z" fill="#C1CEDB"/>
<path d="M319.29 195.45C318.9 207.59 319.74 241.89 319.93 250.4C320.13 258.85 319.67 270.53 319.67 270.53C319.67 270.53 323.56 271.98 329.15 272.4C335.81 272.9 339.78 272.1 339.78 272.1C339.78 272.1 341.8 256.8 342.68 250.97C343.55 245.13 349.13 218.06 348.55 203.59C347.96 189.12 346.72 177.76 334.27 175.86C323.61 174.1 319.75 181.6 319.3 195.46L319.29 195.45Z" fill="#BFA0A0"/>
<path d="M348.54 203.59C348.15 193.85 348.22 185.3 343.43 180.47C340.14 181.51 332.9 184.4 333.55 200.02C333.87 207.61 337.53 260.29 339.46 272.16C339.49 272.16 339.53 272.15 339.55 272.14C339.57 272.14 339.59 272.14 339.61 272.14C339.65 272.14 339.68 272.13 339.7 272.12C339.71 272.12 339.73 272.12 339.74 272.12H339.75H339.76C339.76 272.12 340.04 269.97 340.45 266.97C340.52 266.47 340.59 265.95 340.66 265.41C340.73 264.87 340.81 264.31 340.88 263.74C341.23 261.18 341.61 258.39 341.95 255.91C342.06 255.09 342.18 254.3 342.28 253.56C342.31 253.32 342.35 253.08 342.38 252.85C342.48 252.16 342.57 251.53 342.65 250.98C343.52 245.14 349.1 218.07 348.52 203.6L348.54 203.59Z" fill="#B59393"/>
<path d="M381.18 145.16C381.18 145.16 382.09 156.96 382.48 164.03C382.87 171.1 381.54 188.32 400.45 198.62C417.5 207.91 433.97 198.7 437.16 194.05C442.05 186.93 440.73 177.02 440.26 166.48C439.68 153.61 438.67 138.8 437.19 120.2C435.83 103.14 378.28 113.96 381.18 145.15V145.16Z" fill="#EA9A88"/>
<path d="M443.53 181.29C443.53 181.29 442.94 174.15 441.54 166.38C440.15 158.61 439.38 151.13 439.38 151.13C439.38 151.13 398.39 158.89 381.21 149.49C381.21 149.49 381.67 160.93 382.01 168.59C382.36 176.26 384.48 195.97 405.72 201.61C426.96 207.25 440.54 199.71 443.52 181.28L443.53 181.29Z" fill="#BFA0A0"/>
<path d="M381.97 165.29C382.02 166.44 382.07 167.55 382.12 168.6C382.15 169.33 382.2 170.17 382.28 171.09L400.87 165.23C395.46 164.68 384.82 165.15 381.97 165.29Z" fill="#B59393"/>
<path d="M442.58 172.92C442.3 170.91 441.96 168.68 441.55 166.39C440.43 160.13 439.53 154.06 439.37 151.93C431.17 154.61 395.83 164.59 382.03 168.82C382.09 169.97 382.18 171.36 382.37 172.93C382.5 172.97 382.63 173.01 382.76 173.05C386.66 174.14 390.23 173.26 397.08 171.74C411.91 168.44 431.2 166.93 442.57 172.94L442.58 172.92Z" fill="#B59393"/>
<path d="M442.71 177.36C442.71 177.36 440.94 160.03 419.15 161.9C397.37 163.77 355.2 176.26 347.77 180.17C340.34 184.08 339.66 201.74 356.28 203.29C372.73 204.82 398.39 205.81 418.59 203.21C440.15 200.44 444.4 190.7 442.71 177.36Z" fill="#D89281"/>
<path d="M427.12 202.74C407.91 207.93 364.35 204.94 354.94 202.02C345.52 199.09 342.55 194.24 343.26 184.56C343.73 178.17 358.67 173.14 372.39 169.54C372.8 169.43 373.23 169.32 373.67 169.21C387.73 165.6 413.54 160.15 427.32 161.43C428.13 161.51 428.9 161.63 429.63 161.78C441.74 164.38 443.49 177.45 443.49 177.45C443.91 181.85 446.21 197.58 427.13 202.74H427.12Z" fill="#BFA0A0"/>
<path d="M365.66 203.89C371.22 204.54 378.17 205.08 385.52 205.36C373.47 201.13 365.85 189.38 365.85 189.38L365.66 203.89Z" fill="#B59393"/>
<path d="M438.98 171.59C437.31 167.58 433.78 162.27 426.52 160.71C425.79 160.55 425.02 160.43 424.21 160.36C417.05 159.69 406.65 160.85 396.34 162.61C383.61 166.3 364.22 168.65 364.66 168.86C364.66 168.86 370.63 172.62 373.57 173.45C377.47 174.54 387.14 172.18 393.99 170.65C408.6 167.4 427.55 165.89 438.98 171.59Z" fill="#B59393"/>
<path d="M443.48 177.45C443.48 177.45 442.24 168.13 434.55 163.66C431.19 164.64 427.83 165.61 424.47 166.59C427.49 167.27 432.68 168.99 436.41 173.6C440.89 179.14 441.96 187.28 439.47 195.44C444.93 188.83 443.76 180.47 443.47 177.45H443.48Z" fill="#B59393"/>
<path d="M354.96 274.43C354.96 274.43 355.4 280.49 349.82 282.66C343.26 285.22 328.84 288.47 326.7 291.34C324.56 294.21 329.75 297.03 334.84 297.96C339.92 298.89 351.25 296.13 359.01 296.35C366.76 296.57 368.67 294.72 369.34 292.67C370.98 287.64 366.98 282.7 367.59 276.87C368.6 267.3 355.53 264 354.96 274.43Z" fill="#D89281"/>
<path d="M326.1 292.64C326.1 292.64 326.33 295.28 326.41 296C326.49 296.72 329.95 299.23 338.1 298.95C346.25 298.67 355.03 297.79 359.72 297.6C364.41 297.41 368.81 297.57 369.56 297.14C370.52 296.59 369.98 293.22 369.98 293.22L326.11 292.65L326.1 292.64Z" fill="#D7DFE0"/>
<path d="M368.11 279.24C368.09 279.18 368.03 279.13 367.96 279.13C367.7 279.11 366.64 279.06 365.69 279.7C364.47 280.51 361.46 282.68 356.58 283.01C356.58 283.01 353.29 279.44 350.36 279.52C349.58 279.74 346.64 281.77 339.84 283.84C333.05 285.91 326.02 289.1 326.04 292.1C326.05 295.1 329.48 296.38 336.33 296.46C343.18 296.54 350.72 295.69 359.97 294.99C369.21 294.29 369.67 294.21 369.97 293.23C370.27 292.24 370.43 288.39 369.63 285.28C368.85 282.24 368.59 280.58 368.11 279.25V279.24Z" fill="#EAEAEA"/>
<path d="M350.37 279.51C349.59 279.73 346.65 281.76 339.85 283.83C338.11 284.36 336.36 284.96 334.72 285.62C338.15 288.62 339.92 287.38 344.48 286.19C349.21 284.96 356.59 283 356.59 283C356.59 283 353.3 279.43 350.37 279.51Z" fill="#D7DFE0"/>
<path d="M342.67 193.96C342.67 193.96 354.84 270.59 355.04 276.88C355.99 279.43 359.4 280.22 361.84 280.19C364.3 280.16 367.01 279.67 367.79 275.02C369.33 265.74 370.56 239.98 371.17 229.44C372.44 207.41 369.35 193.87 365.96 186.97C361.84 178.55 341.91 171.67 342.67 193.96Z" fill="#D89281"/>
<path d="M341.58 186.65C341.58 186.65 340.37 194.48 342.27 210.82C344.17 227.16 348.92 252.4 349.44 256.94C349.96 261.48 351.27 275.4 351.27 275.4C351.27 275.4 353.42 277.76 361.35 277.46C369.28 277.15 371.81 274.69 371.81 274.69C371.81 274.69 372.29 255.14 372.48 247.85C372.66 240.56 373.28 216.47 372.27 208.43C371.26 200.39 369.54 180.92 354.51 178.88C346.16 178.08 343.13 181.42 341.59 186.66L341.58 186.65Z" fill="#BFA0A0"/>
<path d="M393.85 72.34C393.85 72.34 382.4 66.8 377.46 81.77C372.51 96.74 368.95 123.08 368.31 131.77C367.67 140.46 378.56 142.93 383.05 135.4C387.54 127.87 396.14 97.92 397.92 90.24C399.7 82.56 399.74 75.14 393.86 72.35L393.85 72.34Z" fill="#D89281"/>
<path d="M374.35 122.75C372.89 122.05 370.88 120.06 369.77 118.89C370.23 115.57 370.78 111.93 371.42 108.19L391.7 112.18C388.71 121.8 385.33 131.54 383.03 135.41C380.61 139.48 376.32 140.63 372.99 139.46C373.01 138.49 373.01 137.54 372.94 136.75C372.71 133.88 373.8 131.62 374.53 129.37C375.26 127.12 376.46 123.78 374.34 122.76L374.35 122.75Z" fill="#CE8371"/>
<path d="M385.79 71.08C385.79 71.08 377.83 74.62 375.06 85.97C372.29 97.31 371.06 100.77 370.92 103.54C370.78 106.31 370.61 108.08 369.79 110.42C368.97 112.76 367.72 115.45 368.08 116.32C368.44 117.19 377.12 123.46 391.6 123.71C391.6 123.71 393.24 123.11 393.19 121.35C393.14 119.58 393.84 113.16 394.55 110.93C395.26 108.7 400.41 87.9 400.45 81.6C400.49 75.3 395.21 68.38 385.79 71.08Z" fill="#E88D60"/>
<path d="M368.08 116.32C367.86 115.77 368.27 114.5 368.81 113.05C370.67 114.12 373.65 115.38 374.22 114.59C374.95 113.6 374.77 111.34 374.92 108.74C375.06 106.15 374.79 104.1 375.71 98.47C376.63 92.83 378.6 86.41 378.6 86.41C378.6 86.41 392.77 86.07 399.71 87.95C398.25 96.59 395.09 109.22 394.55 110.93C393.84 113.16 393.14 119.59 393.19 121.35C393.24 123.12 391.6 123.71 391.6 123.71C377.12 123.46 368.44 117.19 368.08 116.32Z" fill="#D97B4C"/>
<path d="M366.82 129.84C361.54 133.54 356.37 139.82 354.21 141.72C352.06 143.62 355.17 152.14 364.06 146.41C372.95 140.68 378.24 141.77 380.49 135.45C382.74 129.13 374.04 124.67 366.82 129.84Z" fill="#D89281"/>
<path d="M375.05 127.71C374.88 128.29 374.7 128.85 374.53 129.36C373.8 131.61 372.72 133.87 372.94 136.74C373.06 138.23 372.98 140.31 372.87 141.96C376.61 140.4 379.11 139.29 380.47 135.45C381.86 131.55 379.07 128.36 375.04 127.71H375.05Z" fill="#CE8371"/>
<path d="M421.49 66.47C411.47 65.08 403.56 66.67 394.25 69.69C388.02 71.71 386.71 73.98 383.79 78.32C378.66 85.93 380.33 105.44 380.85 113.63C381.39 122.26 379.95 138.92 380.83 143.48C381.71 148.04 403.31 154.51 415.7 152.28C425.2 150.57 433.8 145.65 434.79 136.87C435.96 126.52 436.91 113.42 439.54 104.36C442.18 95.3 446.71 75.34 432.2 69.49C429.48 68.39 424.12 66.82 421.48 66.45L421.49 66.47Z" fill="#D89281"/>
<path d="M397.47 59.26C397.47 59.26 399.16 68.43 397.74 72.95C396.32 77.47 403.71 79.06 408.24 78.35C412.78 77.64 420.31 76.06 420.31 70.47C420.31 64.87 416.34 65.44 414.77 50.46C413.54 38.75 394.5 47.98 397.47 59.26Z" fill="#D89281"/>
<path d="M398.12 71.13C398.77 66.34 397.47 59.26 397.47 59.26C395.11 50.3 406.63 42.64 412.09 45.73C412.48 47 412.79 48.45 413 50.1C413.11 50.96 414.65 67.29 398.13 71.14L398.12 71.13Z" fill="#CE8371"/>
<path d="M419.2 66.0699C419.2 66.0699 411.47 76.7599 401.91 74.5999C399.9 73.9599 398.34 72.4499 398.31 68.4299C398.31 67.9799 398.34 67.5099 398.29 66.9699C398.29 66.9699 394.3 67.1899 388.19 69.6899C382.08 72.1799 379.49 78.2199 378.9 80.7799C378.31 83.3399 377.2 90.7699 377.09 94.6399C376.98 98.5099 376.67 103.05 376.98 106.24C377.29 109.43 376.08 113.44 376.17 116.54C376.26 119.63 376.65 125.58 376.17 128.14C375.69 130.69 376.85 156.97 374.02 164.51C378.89 166.8 398.67 165.71 412.32 175.82C425.97 185.92 443.96 181.88 444.16 181.21C445.65 173.44 442.1 164.47 439.43 150.53C438.71 144.7 437.97 126.38 438.37 117.31C438.77 108.24 448.24 88.1099 438.65 73.3599C436.65 70.2799 428.09 65.9399 419.21 66.0799L419.2 66.0699Z" fill="#E88D60"/>
<path d="M439.13 147.61C438.92 145.41 438.81 143.19 438.71 140.96C438.52 137.23 438.37 133 438.3 128.96C438.23 125.97 438.2 122.96 438.27 120.15C438.29 119.13 438.32 118.17 438.36 117.3C438.46 115.17 439.08 112.42 439.84 109.27C440.79 105.17 441.85 101.08 442.53 96.9399C442.95 94.2699 443.22 91.5299 443.21 88.7899C443.21 88.3799 443.21 87.9699 443.19 87.5499C443.17 86.8799 443.12 86.2099 443.07 85.5499C432.31 81.6699 419.94 83.2499 419.94 83.2499C414.14 93.3699 416.85 115.87 415.62 123.47C414.73 127.31 413.99 130.31 415.49 130.6C416.99 130.89 419.96 130.64 419.99 131.63C420.02 132.62 419.61 135.62 419.61 135.62C419.61 135.62 403.03 141.06 397.86 145.68C391.38 150.88 382.28 153.44 375.7 152.43C375.43 157.48 374.93 162.01 374 164.5C377.59 166.19 389.29 166.04 400.65 169.9C416.58 162.72 422.51 166.84 440.27 154.7C440.06 153.84 439.88 152.97 439.73 152.09C439.62 151.57 439.52 151.05 439.42 150.51C439.33 149.74 439.23 148.75 439.14 147.6L439.13 147.61Z" fill="#D97B4C"/>
<path d="M406.97 77.9199C406.97 77.9199 407 77.9199 407.02 77.9199C414.77 76.6999 419.76 70.6099 419.96 70.3599C420.09 70.1999 420.06 69.9699 419.9 69.8399C419.74 69.7099 419.5 69.7399 419.38 69.8999C419.33 69.9599 414.36 76.0199 406.9 77.1999C406.7 77.2299 406.56 77.4199 406.59 77.6299C406.62 77.8199 406.78 77.9499 406.97 77.9399V77.9199Z" fill="#D97B4C"/>
<path d="M403.88 78.1199C404.07 78.1199 404.23 77.9599 404.24 77.7699C404.25 77.5599 404.1 77.3899 403.89 77.3799C403.84 77.3799 400.35 77.1299 398.44 74.9399C397.49 73.8599 397.08 72.4599 397.2 70.7999C397.22 70.5899 397.06 70.4199 396.86 70.3999C396.65 70.3899 396.48 70.5399 396.46 70.7399C396.32 72.6099 396.8 74.1899 397.89 75.4299C400.02 77.8599 403.7 78.1099 403.86 78.1199C403.87 78.1199 403.88 78.1199 403.89 78.1199H403.88Z" fill="#D97B4C"/>
<path d="M392.34 15.98C392.34 15.98 376.79 18.82 377.12 33.17C377.46 47.52 386.22 68.86 395.66 68.23C405.11 67.6 415.41 55.03 415.77 40C416.13 24.98 405.45 12.83 392.33 15.97L392.34 15.98Z" fill="#D89281"/>
<path d="M392.25 49.41C392.25 49.41 392.53 47.69 396.28 46.77C399.33 46.02 401.73 45.87 402.21 47.77C403.07 50.17 391.67 53.61 392.25 49.41Z" fill="#CE8371"/>
<path d="M380.59 51C381.19 52.5 381.79 53.9 382.41 55.2C384.36 54.3 386.33 52.93 386.03 52.09C385.76 51 384.8 50.43 383.4 50.44C382.59 50.45 381.58 50.78 380.59 51Z" fill="#CE8371"/>
<path d="M394.67 42.69C394.96 43.79 394.53 44.85 393.71 45.07C392.89 45.29 391.98 44.58 391.69 43.48C391.4 42.38 391.83 41.32 392.65 41.1C393.47 40.88 394.38 41.59 394.67 42.69Z" fill="#192B4F"/>
<path d="M384.06 45.25C384.34 46.3 383.93 47.33 383.14 47.54C382.35 47.75 381.48 47.07 381.2 46.01C380.92 44.96 381.33 43.93 382.12 43.72C382.91 43.51 383.78 44.19 384.06 45.25Z" fill="#192B4F"/>
<path d="M393.15 57.91C392.56 58.09 391.92 58.25 391.24 58.4C387.91 59.1 386.35 58.71 386.28 58.69C386.02 58.62 385.86 58.35 385.93 58.09C386 57.83 386.26 57.67 386.53 57.74C386.54 57.74 387.97 58.08 391.04 57.44C394.19 56.78 396.45 55.55 396.47 55.54C396.71 55.41 397 55.5 397.13 55.73C397.26 55.97 397.17 56.26 396.94 56.39C396.86 56.43 395.4 57.23 393.15 57.9V57.91Z" fill="#BA6D5B"/>
<path d="M391.72 60.14C390.54 60.49 389.55 60.36 389.5 60.35C389.23 60.31 389.05 60.06 389.09 59.8C389.13 59.53 389.38 59.35 389.64 59.39C389.66 59.39 391.08 59.58 392.39 58.8C392.62 58.66 392.92 58.74 393.06 58.97C393.2 59.2 393.12 59.5 392.89 59.64C392.5 59.87 392.1 60.04 391.73 60.15L391.72 60.14Z" fill="#CE8371"/>
<path d="M390.32 53.69C389.72 53.87 388.62 54.15 387.89 54.01C386.91 53.82 386.99 52.98 387.09 52V51.88C387.7 45.9 386.78 43.79 386.77 43.77C386.66 43.52 386.77 43.24 387.01 43.12C387.25 43.01 387.54 43.12 387.66 43.36C387.7 43.45 388.7 45.73 388.08 51.97V52.09C388.03 52.47 387.99 52.9 388.03 53.03C388.04 53.03 388.06 53.03 388.08 53.04C388.63 53.14 389.8 52.84 390.41 52.63C390.67 52.54 390.94 52.67 391.03 52.93C391.12 53.18 390.99 53.46 390.73 53.55C390.68 53.57 390.53 53.62 390.32 53.68V53.69Z" fill="#BA6D5B"/>
<path d="M388.99 38C388.15 38.65 388.53 39.99 389.26 40.2C389.59 40.24 393.11 39.05 394.49 38.67C395.87 38.29 398.17 37.98 398.23 37.79C398.29 37.6 397.18 37.01 395.49 37.05C394.06 37.09 389.83 37.35 388.99 38.01V38Z" fill="#7F3D3D"/>
<path d="M378.69 43.18C378.69 43.18 378.09 43.45 377.9 43.09C377.65 42.63 379.34 41.06 382.86 39.86C383.91 39.56 384.29 40.79 384.26 41.45C384.23 42.05 382.36 41.68 378.69 43.18Z" fill="#7F3D3D"/>
<path d="M375.25 41.95C375.25 41.95 376.33 42.62 377.79 41.11C377.79 41.11 378.17 42.6 377.28 43.49C377.28 43.49 383.8 41.77 384.23 36.12C384.24 36 384.25 35.87 384.25 35.75C384.25 35.75 384.1 34.78 384.09 33.51C384.07 30.66 384.75 26.24 389.4 27.62C391.06 26.83 393.4 27.19 394.71 30.21C396.01 33.2 392.6 35.82 401.84 36.08C401.84 36.08 404.09 36.58 405.17 40.12C406.26 43.66 406.99 43.79 409.47 44.2C409.47 44.2 412.24 54.6 417.26 54.86C417.26 54.86 415.96 52.9 415.85 51.17C415.85 51.17 417.45 51.78 419.87 50.99C419.87 50.99 417.69 49.92 417.08 49.06C417.08 49.06 420.41 49.56 423.04 47.18C423.04 47.18 419.68 45.87 418.56 40.84C418.56 40.84 419.91 41.15 422.16 40.27C422.16 40.27 418 37.64 417.59 33.02C417.18 28.4 412.65 7.05999 392.34 14.19C392.34 14.19 383.44 12.7 376.71 20.75C369.99 28.8 375.25 41.94 375.25 41.94V41.95Z" fill="#8C4949"/>
<path d="M412.28 39.43C412.36 39.4 412.43 39.34 412.47 39.26C412.57 39.08 412.51 38.85 412.33 38.75C408.39 36.55 407.27 32.47 406.95 30.24C406.91 29.95 406.87 29.65 406.83 29.33C406.37 25.84 405.69 20.57 401.18 17.53C395.76 13.87 390.98 16.73 390.93 16.76C390.75 16.87 390.7 17.1 390.81 17.27C390.92 17.45 391.19 17.3 391.36 17.19C391.54 17.08 395.75 14.77 400.76 18.15C404.99 21 405.65 26.07 406.09 29.43C406.13 29.75 406.17 30.06 406.21 30.35C406.79 34.45 408.83 37.66 411.96 39.41C412.06 39.47 412.18 39.47 412.28 39.43Z" fill="#7F3D3D"/>
<path d="M387.72 20.6C387.72 20.6 388.82 16.31 392.79 16.39C394.72 16.43 396.61 17.37 398.11 19.03C399.62 20.71 400.63 23.05 400.95 25.61C401.19 27.52 401.07 29.09 400.98 30.48C400.81 32.87 400.7 34.45 402.5 35.89C402.66 36.01 402.69 36.24 402.57 36.4C402.15 36.16 401.86 36.09 401.86 36.09C401.76 36.09 401.67 36.09 401.57 36.08C399.94 34.5 400.07 32.69 400.22 30.44C400.32 29.08 400.42 27.55 400.2 25.71C399.61 20.9 396.42 17.23 392.78 17.15C389.42 17.08 388.47 20.73 388.45 20.79C388.43 20.86 388.39 20.94 388.33 21.02C388.09 21.14 387.95 21.23 387.95 21.23C387.75 21.18 387.67 20.81 387.72 20.61V20.6Z" fill="#7F3D3D"/>
<path d="M394.18 16.26C393.99 16.33 393.82 16.4 393.75 16.2C393.68 16.01 393.78 15.8 393.97 15.72C394.09 15.68 396.76 14.74 400.13 15.18C403.25 15.59 407.57 17.31 410.39 23.2C411.88 26.31 412.66 29.23 413.36 31.81C414.52 36.13 415.36 39.25 418.69 40.5C418.85 40.56 418.95 40.73 418.93 40.89C418.69 40.88 418.56 40.85 418.56 40.85C418.59 40.97 418.62 41.09 418.65 41.21C418.58 41.23 418.5 41.22 418.43 41.2C414.74 39.82 413.81 36.37 412.64 32C411.96 29.45 411.18 26.57 409.72 23.52C407.58 19.05 404.33 16.49 400.07 15.92C396.87 15.49 394.21 16.24 394.18 16.25V16.26Z" fill="#7F3D3D"/>
<path d="M392.31 14.21C391.05 14.75 384.92 20.55 389.29 27.43C386.18 21.14 391.9 14.76 392.31 14.21Z" fill="#7F3D3D"/>
<path d="M382.35 31.23C383.07 32.86 383.75 34.41 383.89 35.78C383.9 35.96 384.06 36.09 384.23 36.12C384.24 36 384.25 35.87 384.25 35.75C384.25 35.75 384.1 34.78 384.09 33.51C383.8 32.68 383.41 31.81 383.03 30.93C381.87 28.3 380.67 25.58 381.84 23.47C383.69 20.1 387.84 20.9 387.88 20.9C388.08 20.94 388.28 20.81 388.31 20.61C388.35 20.41 388.23 20.22 388.02 20.17C387.97 20.16 383.29 19.27 381.17 23.11C379.82 25.54 381.1 28.44 382.33 31.23H382.35Z" fill="#7F3D3D"/>
<path d="M377.49 40.89C378.92 38.94 378.17 36.24 377.37 33.38C376.39 29.87 375.29 25.9 377.95 22.41C380.46 19.12 383.26 17.98 385.18 17.59C387.27 17.17 389.02 17.63 389.08 17.64C389.28 17.69 389.4 17.89 389.35 18.09C389.3 18.29 389.1 18.41 388.9 18.36C388.67 18.3 383.05 16.95 378.56 22.85C376.12 26.05 377.13 29.67 378.11 33.17C378.96 36.21 379.76 39.08 378.11 41.32C378.07 41.38 378.01 41.42 377.94 41.45C377.92 41.45 377.89 41.46 377.86 41.47C377.84 41.25 377.8 41.1 377.8 41.1C377.71 41.19 377.62 41.28 377.53 41.36C377.41 41.23 377.39 41.03 377.5 40.88L377.49 40.89Z" fill="#7F3D3D"/>
<path d="M407.11 41.67C407.11 41.67 406.96 36.67 411.43 36.59C415.9 36.51 414.43 48.27 410.64 48.37C406.85 48.46 407.11 41.67 407.11 41.67Z" fill="#D89281"/>
<path d="M410.51 45.9C410.71 45.82 410.81 45.6 410.73 45.4C409.25 41.72 411.02 40.25 411.1 40.19C411.26 40.06 411.29 39.82 411.16 39.65C411.03 39.48 410.79 39.45 410.63 39.58C410.53 39.65 408.32 41.43 410.02 45.67C410.1 45.86 410.32 45.96 410.51 45.88V45.9Z" fill="#CE8371"/>
<path d="M410.13 44.2C410.21 44.17 410.28 44.11 410.33 44.03C410.99 42.81 412.13 42.89 412.18 42.9C412.39 42.92 412.57 42.76 412.59 42.55C412.61 42.34 412.46 42.16 412.25 42.14C412.18 42.14 410.57 42 409.66 43.67C409.56 43.86 409.63 44.09 409.81 44.19C409.91 44.25 410.03 44.25 410.13 44.21V44.2Z" fill="#CE8371"/>
<path d="M428.02 68.3C428.02 68.3 415.37 69.64 419.07 84.97C422.77 100.3 436.73 136.51 440.78 144.23C444.83 151.95 455.38 148.3 455.21 139.53C455.05 130.76 443.45 88.82 440.91 81.36C438.37 73.89 434.49 67.57 428.02 68.3Z" fill="#D89281"/>
<path d="M441.51 131.4C441.51 131.4 438.16 132.63 435.95 133.24C434.74 130.27 433.42 126.93 432.06 123.4C435.32 121.42 445.05 118.91 450.87 117.52C451.48 119.98 452.05 122.38 452.57 124.65C450.42 125.73 446.63 127.45 443.51 127.94C438.86 128.67 436.64 128.77 436.36 129.53C435.39 132.12 438.71 130.21 441.52 131.4H441.51Z" fill="#CE8371"/>
<path d="M427.13 67.99C427.13 67.99 434.89 66.72 439.33 73.84C442.77 79.35 444.87 87.97 446.81 92.35C448.75 96.73 450 100.74 450.79 103.5C451.58 106.26 452.34 112.59 453.16 114.65C453.98 116.71 455.57 119.47 455.55 120.63C455.53 121.79 441.13 130.47 428.78 126.99C427.69 125.58 426.41 117.45 425.52 114.72C424.63 111.99 417.96 92.19 416.81 85.75C415.66 79.3 418.98 69.18 427.14 68L427.13 67.99Z" fill="#E88D60"/>
<path d="M448.8 148.28C448.8 148.28 416.1 161.59 411.97 162.11C410.06 162.35 406.98 161.18 404.88 159.84C402.46 158.3 402.04 156.49 406.38 153.9C414.48 149.06 435.12 133.61 446.82 130.69C450.2 130.69 453.23 132.08 454.6 135.82C456.28 140.42 454.89 146.37 448.8 148.28Z" fill="#D89281"/>
<path d="M365.28 144.56C365.28 144.56 363.75 146.77 363.52 148.12C363.29 149.46 362.75 152.78 362.42 154.06C362.09 155.35 360.59 160.46 360.22 160.99C359.85 161.52 358.57 159.65 358.4 158.41C358.23 157.17 358.56 154.95 358.69 153.88C358.83 152.82 358.59 151.94 357.98 151.6C357.37 151.25 353.34 154.93 352.54 155.75C351.74 156.57 351.79 162.37 351.24 163.46C350.69 164.55 349.53 163.76 349.54 162.56C349.54 162.56 348.39 165.37 347.51 161.41C347.51 161.41 346.33 162.08 346.19 159.72C346.19 159.72 345.48 160.5 345.01 158.83C344.5 156.97 344.1 154.58 344.68 151.23C345.21 148.2 351.15 144.84 356.88 139.26C362.61 133.68 370.3 138.65 365.26 144.56H365.28Z" fill="#D89281"/>
<path d="M349.53 162.58C349.63 160.45 349.7 158.2 349.76 156.07C350.01 154.82 350.88 153.72 351.35 152.51C350.36 152.97 348.79 154.94 348.99 156.27C349.09 157.36 349.17 158.81 349.26 159.91C349.41 160.71 349.22 162.01 349.52 162.57L349.53 162.58Z" fill="#BA6D5B"/>
<path d="M347.51 161.41C347.55 159.65 347.49 157.31 347.63 155.59C348.12 154.19 348.74 152.82 349.02 151.35C348.02 152.18 347.14 154.09 346.91 155.52C347.02 157.4 347.07 159.81 347.51 161.42V161.41Z" fill="#BA6D5B"/>
<path d="M346.24 159.72C346.29 158.01 346.2 156.19 346.24 154.48C346.55 153.29 346.85 152.13 346.91 150.86C346.38 151.17 346.09 152.25 345.8 152.89C345.53 153.63 345.42 154.45 345.57 155.23C345.63 155.79 345.77 156.92 345.84 157.48C345.95 158.23 346.04 158.98 346.15 159.72C346.15 159.77 346.23 159.76 346.23 159.72H346.24Z" fill="#BA6D5B"/>
<path d="M293.5 275.22C293.5 275.22 305.38 274.33 312.5 283.53C319.63 292.73 333.73 294.07 339.22 290.66C339.22 290.66 339.52 292.44 338.48 294.67C338.48 294.67 346.79 293.48 349.61 302.39C349.61 302.39 343.37 309.22 293.49 309.22H293.41C243.53 309.22 237.29 302.39 237.29 302.39C240.11 293.48 248.42 294.67 248.42 294.67C247.38 292.44 247.68 290.66 247.68 290.66C253.17 294.07 267.28 292.74 274.4 283.53C281.53 274.33 293.4 275.22 293.4 275.22H293.48H293.5Z" fill="#8F6F6F"/>
<path d="M289.07 276.94L295.83 277.07L297.54 275.41C295.13 275.1 293.5 275.22 293.5 275.22H293.42C293.42 275.22 291.2 275.05 288.11 275.61L289.07 276.94Z" fill="#876565"/>
<path d="M289.08 176.25H295.99V278.16C295.99 279.43 294.96 280.47 293.68 280.47H291.39C290.12 280.47 289.08 279.44 289.08 278.16V176.25Z" fill="#8F6F6F"/>
<path d="M289.08 234.17C289.96 233.79 290.83 233.42 291.68 233.05C292.86 232.54 294.32 232.11 295.99 231.75V179.61H289.08V234.17Z" fill="#876565"/>
<path d="M248.44 294.67C274.92 301.14 311.98 301.12 338.49 294.67C313.54 303.48 273.41 303.49 248.44 294.67Z" fill="#855E5E"/>
<path d="M421.28 173.91C421.28 176.87 363.64 179.27 292.53 179.27C221.42 179.27 163.78 176.87 163.78 173.91V166.84C163.78 166.84 228.09 168.55 292.53 168.55C356.97 168.55 421.28 166.84 421.28 166.84V173.91Z" fill="#C9A393"/>
<path d="M292.53 172.2C363.637 172.2 421.28 169.8 421.28 166.84C421.28 163.88 363.637 161.48 292.53 161.48C221.423 161.48 163.78 163.88 163.78 166.84C163.78 169.8 221.423 172.2 292.53 172.2Z" fill="#E3C6BC"/>
<path d="M272.5 167.68C284.457 167.68 294.15 166.31 294.15 164.62C294.15 162.93 284.457 161.56 272.5 161.56C260.543 161.56 250.85 162.93 250.85 164.62C250.85 166.31 260.543 167.68 272.5 167.68Z" fill="#DBB7AB"/>
<path opacity="0.54" d="M268.36 133.58C268.36 133.58 265.47 130.77 266.9 126.4C268.34 122.03 271.44 119.42 270.83 116.72C270.22 114.02 264.37 108.4 272.22 104.3C272.22 104.3 268.91 106.84 271.31 110.44C273.71 114.04 276.66 115.5 276.58 119.92C276.5 124.34 267.44 123.9 268.36 133.58Z" fill="white"/>
<path opacity="0.54" d="M281.33 118.36C281.33 118.36 283.53 122.31 278.93 125.02C273.84 128.01 274.52 130.64 276.92 134.24C276.92 134.24 275.81 131.19 277.92 129.16C280.03 127.13 288.14 125.59 281.33 118.35V118.36Z" fill="white"/>
<path d="M282.61 154.47C279.77 154.51 277.43 152.23 277.39 149.4C277.35 146.56 279.63 144.22 282.46 144.18C285.3 144.14 287.64 146.42 287.68 149.25C287.72 152.09 285.44 154.43 282.61 154.47ZM282.48 145.51C280.38 145.54 278.69 147.28 278.72 149.38C278.75 151.48 280.49 153.17 282.59 153.14C284.69 153.11 286.38 151.37 286.35 149.27C286.32 147.17 284.58 145.48 282.48 145.51Z" fill="#4D4C70"/>
<path d="M284.08 142.62L259.12 142.97C259.12 142.97 256.12 154.89 263.73 163.65C263.74 164.66 267.41 165.42 271.92 165.36C276.43 165.3 280.07 164.43 280.05 163.42C287.41 154.45 284.08 142.62 284.08 142.62Z" fill="#676694"/>
<path d="M262.52 162.11C262.89 162.63 263.29 163.14 263.73 163.64C263.74 164.65 267.41 165.41 271.92 165.35C276.43 165.29 280.07 164.42 280.05 163.41C287.41 154.44 284.08 142.61 284.08 142.61L259.12 142.96C259.12 142.96 258.96 143.58 258.81 144.65C261.25 145.32 268.77 147.12 276.64 146.45C286.09 145.65 281.26 163.43 262.52 162.1V162.11Z" fill="#5C5B84"/>
<path d="M271.64 144.597C278.532 144.499 284.107 143.605 284.093 142.6C284.079 141.595 278.481 140.859 271.589 140.957C264.697 141.054 259.122 141.948 259.136 142.953C259.15 143.958 264.748 144.694 271.64 144.597Z" fill="#676694"/>
<path d="M259.56 143.44C261.01 144.19 265.87 144.7 271.62 144.61C277.38 144.53 282.21 143.89 283.64 143.1C282.19 142.35 277.33 141.84 271.58 141.93C265.82 142.01 260.99 142.65 259.56 143.44Z" fill="#A86D5D"/>
<path d="M408.75 153.77C408.75 153.77 405.12 154.27 403.09 153.32C401.06 152.37 399.21 151.85 398.34 151.84C397.47 151.83 396.47 152.07 396.47 152.07C396.47 152.07 394.31 151.37 393.23 152.42C393.23 152.42 391.63 151.61 390.52 152.37C390.52 152.37 388.94 152.15 388.3 153.03C387.66 153.92 385.11 156.59 384.82 157.67C384.53 158.74 385.31 161.81 385.51 163.22C385.72 164.63 387.29 164.91 387.43 164.49C387.43 164.49 388.88 165.22 389.63 164.35C389.63 164.35 390.82 165.05 391.61 163.97C391.61 163.97 392.57 164.32 393.32 164.21C394.61 164.02 395.15 161.59 395.34 161.41C395.53 161.23 398.59 161.71 400.49 162.22C401.61 162.52 403.34 162.99 405.17 163.28C406.44 163.48 408.62 163.3 410.7 162.62C413.47 161.71 408.74 153.78 408.74 153.78L408.75 153.77Z" fill="#D89281"/>
<path d="M400.5 162.22C400.75 162.29 401.04 162.36 401.35 162.44C403.63 162.15 403.95 161.74 403.95 161.74C402.61 161.2 401.06 157.95 400.52 157.32C399.98 156.7 399.17 155.7 398.08 155.78C397 155.86 396.21 157.86 396.21 157.86C396.21 157.86 395.78 160.39 395.35 161.41C395.54 161.23 398.6 161.71 400.5 162.22Z" fill="#BA6D5B"/>
<path d="M395.04 153.84C394.32 154.97 393.47 156.06 393.16 157.38C392.67 159.59 392.3 161.82 391.64 163.98H391.6C391.82 161.6 392.32 159.26 392.98 156.97C393.4 155.78 394.25 154.8 395.01 153.81L395.04 153.83V153.84Z" fill="#BA6D5B"/>
<path d="M392.09 154.21C391.41 155.31 390.63 156.41 390.38 157.69C390.11 159.86 390.04 162.06 389.67 164.23H389.63C389.57 161.91 389.67 159.58 390.16 157.31C390.57 156.16 391.32 155.16 392.05 154.19L392.08 154.21H392.09Z" fill="#BA6D5B"/>
<path d="M389.83 154.07C389.05 155.19 388.08 156.25 387.61 157.54C387.41 159.85 387.64 162.18 387.46 164.5H387.42C387.13 162.18 387 159.81 387.33 157.49C387.84 156.17 388.92 155.14 389.8 154.05L389.83 154.07Z" fill="#BA6D5B"/>
<path d="M305.64 161.28H409.12C409.6 161.28 409.99 161.67 409.99 162.15V165.22C409.99 165.7 409.6 166.09 409.12 166.09H306.51C306.03 166.09 305.64 165.7 305.64 165.22V161.28Z" fill="#222E56"/>
<path d="M364.4 124.01L377.6 161.29H369.48L355.91 122.96H362.91C363.58 122.96 364.17 123.38 364.4 124.01Z" fill="#34427D"/>
<path d="M362.13 122.96L375.7 161.29H305.64L292.82 125.07C292.46 124.04 293.22 122.97 294.31 122.97H362.14L362.13 122.96Z" fill="#293463"/>
<path d="M329.12 141.01L328.38 149.5H337.91L329.12 141.01Z" fill="#222E56"/>
<path d="M88.3501 281.6H87.2901C86.4285 281.6 85.7301 282.298 85.7301 283.16V298.06C85.7301 298.922 86.4285 299.62 87.2901 299.62H88.3501C89.2117 299.62 89.9101 298.922 89.9101 298.06V283.16C89.9101 282.298 89.2117 281.6 88.3501 281.6Z" fill="#F1CD85"/>
<path d="M67.1701 299.61H66.1201C65.2601 299.61 64.6901 298.91 64.8601 298.05L67.7501 283.16C67.9201 282.3 68.7501 281.6 69.6201 281.6H70.6701C71.5301 281.6 72.1001 282.3 71.9301 283.16L69.0401 298.05C68.8701 298.91 68.0401 299.61 67.1701 299.61Z" fill="#F1CD85"/>
<path d="M107.95 299.61H109C109.86 299.61 110.43 298.91 110.26 298.05L107.37 283.16C107.2 282.3 106.37 281.6 105.5 281.6H104.45C103.59 281.6 103.02 282.3 103.19 283.16L106.08 298.05C106.25 298.91 107.08 299.61 107.95 299.61Z" fill="#F1CD85"/>
<path d="M109.79 281.44C109.79 281.44 117.17 278.21 114.75 241.52H59.9401C57.5201 278.21 64.9001 281.44 64.9001 281.44H109.79Z" fill="#F1CD85"/>
<path d="M114.75 241.52C114.75 242.71 102.48 243.68 87.3501 243.68C72.2201 243.68 59.9501 242.71 59.9501 241.52C59.9501 240.33 72.2201 239.36 87.3501 239.36C102.48 239.36 114.75 240.33 114.75 241.52Z" fill="#C48960"/>
<path d="M64.9001 281.44C64.9001 282.63 74.9501 283.6 87.3401 283.6C99.7301 283.6 109.78 282.63 109.78 281.44C109.92 281.37 116.08 278.34 115.12 249.25C114.29 250.32 113.83 251.72 113.54 253.07C113.12 255 112.91 257.03 111.88 258.71C110.83 258.55 110.79 256.56 109.73 256.6C109.38 256.61 109.09 256.87 108.91 257.16C108.48 257.83 108.45 258.66 108.4 259.45C108.35 260.24 108.23 261.09 107.69 261.67C107.15 262.25 106.05 262.34 105.65 261.66C105.42 261.27 105.41 260.66 104.98 260.52C104.69 260.43 104.38 260.63 104.17 260.85C102.37 262.7 102.82 266.48 100.38 267.31C100.18 267.38 99.9601 267.42 99.7501 267.36C99.2801 267.22 99.1301 266.63 99.0801 266.13C98.6801 262.33 99.3601 258.38 98.2001 254.74C97.9101 253.82 97.4401 252.88 96.6001 252.42C95.4901 251.82 94.0301 252.29 93.1601 253.2C92.2801 254.11 91.8601 255.36 91.5401 256.58C90.7601 259.58 90.4401 262.68 90.3901 265.77C90.3601 267.98 90.3601 270.48 88.7601 272.01C88.5601 272.2 88.3301 272.37 88.0601 272.41C87.5701 272.48 87.1301 272.11 86.8301 271.72C84.4701 268.77 85.3001 264.3 83.4701 261C83.1601 260.44 82.7501 259.91 82.1801 259.63C80.7901 258.96 79.1701 260.1 78.3101 261.38C77.6101 262.43 76.9301 263.76 75.6801 263.89C74.1701 264.05 73.2001 262.38 72.5701 260.99C71.9401 259.61 70.7101 258.01 69.2701 258.49C67.8401 258.96 67.5701 261.14 66.1501 261.62C65.7601 261.75 65.3301 261.73 64.9301 261.62C62.7201 260.95 62.4501 258.01 61.2801 256.02C60.8301 255.26 60.2001 254.61 59.4501 254.13C59.3001 278.99 64.8901 281.44 64.8901 281.44H64.9001Z" fill="#D3976E"/>
<path d="M86.1801 203.5C86.1801 203.5 78.3601 192.99 79.0901 182.24C79.8201 171.49 87.1501 160.25 89.3501 151.94C91.5501 143.63 87.6401 132.88 89.5901 128.72C91.5501 124.57 92.0301 132.63 93.2601 129.21C94.4801 125.79 100.84 104.04 110.86 102.08C120.88 100.12 119.17 119.43 114.77 130.92C110.37 142.41 106.95 146.8 107.68 154.87C108.41 162.93 115.5 182.49 86.1701 203.5H86.1801Z" fill="#9CAD65"/>
<path d="M86.05 243.67C88.87 150.96 102.27 123.48 103.66 120.87C86.34 152.44 83.89 225.18 83.55 243.65C84.37 243.65 85.21 243.66 86.05 243.67Z" fill="#879657"/>
<path d="M69.49 124.42C67.16 122.43 63.57 123.3 62.35 126.11C61.3 128.55 60.41 132.19 61.01 137.02C62.23 146.8 57.34 153.15 61.5 163.17C65.14 171.95 63.72 188.41 72.67 197.13C74.9 199.3 78.6 198.62 79.95 195.82C81.73 192.11 83.82 185.88 84.48 176.37C85.7 158.77 78.86 160.24 78.37 148.27C77.99 139.01 74.54 128.72 69.49 124.42Z" fill="#879657"/>
<path d="M80.9 243.61C81.89 243.63 82.91 243.64 83.94 243.65C82.52 231.01 75.96 175.2 67.12 137.27C67.12 137.27 74.21 171.97 76.41 199.1C78.1 219.93 80.08 236.87 80.9 243.61Z" fill="#9CAD65"/>
<path d="M65.1701 199.59C65.1701 199.59 62.7301 193.72 55.6401 189.57C48.5501 185.42 33.4001 178.08 32.4201 166.11C31.4401 154.14 32.9101 150.22 26.8001 142.65C20.6901 135.07 12.6301 124.57 21.4201 122.37C30.2201 120.17 48.7901 137.52 55.3901 152.92C61.9901 168.32 65.1701 190.07 65.1701 199.6V199.59Z" fill="#879657"/>
<path d="M79.7601 243.59C80.7201 243.61 81.7101 243.63 82.7201 243.64C75.1201 211.1 47.9301 158.25 41.5801 146.15C63.4401 187.91 77.6601 238.01 79.2101 243.56C79.3901 243.56 79.5801 243.58 79.7701 243.59H79.7601Z" fill="#9CAD65"/>
<path d="M97.6701 200.81C97.6701 200.81 93.7601 186.88 97.1801 171.24C100.6 155.6 111.84 146.31 117.22 136.54C122.6 126.76 128.71 112.1 137.26 115.52C145.81 118.94 141.66 133.36 135.06 142.89C128.46 152.42 126.26 160.97 122.84 171.48C119.42 181.99 111.6 195.19 97.6701 200.81Z" fill="#879657"/>
<path d="M84.78 243.66C85.62 243.66 86.48 243.66 87.35 243.66C87.52 243.66 87.68 243.66 87.84 243.66C104.01 176.46 120.89 145.33 120.89 145.33C98.91 183.96 86.81 234.7 84.78 243.66Z" fill="#9CAD65"/>
<path d="M58.3201 202.28C58.3201 202.28 50.0101 184.68 39.0101 182C28.0101 179.31 22.8801 173.2 14.0801 169.54C5.28006 165.87 -1.80994 170.76 0.390055 181.51C2.52006 191.94 15.9101 199.61 26.0801 198.95C26.5101 198.92 26.8201 199.35 26.6501 199.75C26.1101 201.02 26.9601 202.45 28.3301 202.57C32.3401 202.92 39.8101 203.39 44.6201 202.54C51.4601 201.32 58.3101 202.3 58.3101 202.3L58.3201 202.28Z" fill="#9CAD65"/>
<path d="M84.2801 243.66C77.3201 196.71 24.6001 186.64 24.6001 186.64C70.6001 200.95 79.3201 233.4 80.9401 243.61C82.0301 243.63 83.1501 243.65 84.2901 243.66H84.2801Z" fill="#879657"/>
<path d="M33.6401 207.17C33.6401 207.17 19.3901 210.86 17.2701 231.36C15.4201 249.24 24.4501 259.4 28.7601 256.53C30.2301 255.55 29.4901 246.27 28.7601 241.62C28.0301 236.98 31.0501 222.64 34.6301 223.29C40.0101 224.27 45.6301 226.22 50.7601 222.56C55.8901 218.89 61.0201 210.34 61.0201 210.34C61.0201 210.34 55.1501 202.76 33.6501 207.16L33.6401 207.17Z" fill="#879657"/>
<path d="M83.06 243.65C84.19 243.66 85.34 243.67 86.5 243.68C85.08 236.92 81.45 225.8 72.25 215.97C57.83 200.57 33.64 207.17 33.64 207.17C70.18 200.86 80.36 230.48 83.06 243.65Z" fill="#9CAD65"/>
<path d="M104.76 208.88C104.76 208.88 103.78 183.22 115.27 170.51C126.76 157.8 135.55 157.31 142.15 149.49C148.75 141.67 157.55 133.36 162.92 138.25C168.3 143.14 160.96 161.96 151.43 170.75C154 170.98 155.15 174.1 153.34 175.94C151.13 178.18 147.62 180.97 142.14 183.71C129.92 189.82 138.23 201.79 104.75 208.88H104.76Z" fill="#9CAD65"/>
<path d="M88.4601 243.67C89.7601 243.67 91.0301 243.65 92.2701 243.64C111.23 187.34 137.5 163.74 143.39 158.98C107.81 186.8 91.5701 233.78 88.4601 243.67Z" fill="#879657"/>
<path d="M121.37 219.39C121.37 219.39 128.46 222.57 127.48 226.97C126.5 231.37 123.33 244.08 128.46 251.41C133.59 258.74 135.79 261.43 136.04 269.98C136.28 278.53 143.37 284.15 145.57 269.98C147.77 255.81 147.77 211.08 121.38 219.39H121.37Z" fill="#879657"/>
<path d="M132.37 222.08C111.17 207.95 94.48 236.39 90.67 243.66C92.19 243.65 93.68 243.62 95.11 243.59C95.3 243.59 95.49 243.57 95.67 243.56C100.73 234.09 113.3 215.72 127.48 221.35C144.1 227.95 141.65 266.32 141.65 266.32C141.65 266.32 145.56 232.11 132.36 222.09L132.37 222.08Z" fill="#9CAD65"/>
</svg>
