<svg width="752" height="983" viewBox="0 0 752 983" fill="none" xmlns="http://www.w3.org/2000/svg">
<path d="M40 68C40 52.536 52.536 40 68 40H684C699.464 40 712 52.536 712 68V915C712 930.464 699.464 943 684 943H68C52.536 943 40 930.464 40 915V68Z" fill="#F5F5F5"/>
<rect x="130.5" y="541.5" width="491" height="311" rx="4.5" stroke="#9747FF" stroke-dasharray="10 5"/>
<rect x="150" y="561" width="52" height="32" rx="16" fill="#6750A4"/>
<rect x="174" y="565" width="24" height="24" rx="12" fill="white"/>
<rect x="250" y="561" width="52" height="32" rx="16" fill="#6750A4"/>
<rect x="266" y="557" width="40" height="40" rx="20" fill="#6750A4" fill-opacity="0.08"/>
<rect x="274" y="565" width="24" height="24" rx="12" fill="#EADDFF"/>
<rect x="350" y="561" width="52" height="32" rx="16" fill="#6750A4"/>
<rect x="366" y="557" width="40" height="40" rx="20" fill="#6750A4" fill-opacity="0.1"/>
<rect x="374" y="565" width="24" height="24" rx="12" fill="#EADDFF"/>
<rect x="450" y="561" width="52" height="32" rx="16" fill="#6750A4"/>
<rect x="466" y="557" width="40" height="40" rx="20" fill="#6750A4" fill-opacity="0.1"/>
<rect x="472" y="563" width="28" height="28" rx="14" fill="#EADDFF"/>
<rect x="550" y="561" width="52" height="32" rx="16" fill="#1D1B20" fill-opacity="0.1"/>
<rect x="574" y="565" width="24" height="24" rx="12" fill="#FEF7FF"/>
<rect x="150" y="641" width="52" height="32" rx="16" fill="#6750A4"/>
<rect x="174" y="645" width="24" height="24" rx="12" fill="white"/>
<path d="M184.367 661L180.567 657.2L181.517 656.25L184.367 659.1L190.483 652.983L191.433 653.933L184.367 661Z" fill="#4F378A"/>
<rect x="250" y="641" width="52" height="32" rx="16" fill="#6750A4"/>
<rect x="266" y="637" width="40" height="40" rx="20" fill="#6750A4" fill-opacity="0.08"/>
<rect x="274" y="645" width="24" height="24" rx="12" fill="#EADDFF"/>
<path d="M284.367 661L280.567 657.2L281.517 656.25L284.367 659.1L290.483 652.983L291.433 653.933L284.367 661Z" fill="#4F378A"/>
<rect x="350" y="641" width="52" height="32" rx="16" fill="#6750A4"/>
<rect x="366" y="637" width="40" height="40" rx="20" fill="#6750A4" fill-opacity="0.1"/>
<rect x="374" y="645" width="24" height="24" rx="12" fill="#EADDFF"/>
<path d="M384.367 661L380.567 657.2L381.517 656.25L384.367 659.1L390.483 652.983L391.433 653.933L384.367 661Z" fill="#4F378A"/>
<rect x="450" y="641" width="52" height="32" rx="16" fill="#6750A4"/>
<rect x="466" y="637" width="40" height="40" rx="20" fill="#6750A4" fill-opacity="0.1"/>
<rect x="472" y="643" width="28" height="28" rx="14" fill="#EADDFF"/>
<path d="M484.867 661L481.067 657.2L482.017 656.25L484.867 659.1L490.983 652.983L491.933 653.933L484.867 661Z" fill="#4F378A"/>
<rect x="550" y="641" width="52" height="32" rx="16" fill="#1D1B20" fill-opacity="0.1"/>
<rect x="574" y="645" width="24" height="24" rx="12" fill="#FEF7FF"/>
<g opacity="0.38">
<path d="M584.367 661L580.567 657.2L581.517 656.25L584.367 659.1L590.483 652.983L591.433 653.933L584.367 661Z" fill="#1D1B20"/>
</g>
<rect x="151" y="722" width="50" height="30" rx="15" fill="#E6E0E9"/>
<rect x="151" y="722" width="50" height="30" rx="15" stroke="#79747E" stroke-width="2"/>
<rect x="158" y="729" width="16" height="16" rx="8" fill="#79747E"/>
<rect x="251" y="722" width="50" height="30" rx="15" fill="#E6E0E9"/>
<rect x="251" y="722" width="50" height="30" rx="15" stroke="#79747E" stroke-width="2"/>
<rect x="246" y="717" width="40" height="40" rx="20" fill="#1D1B20" fill-opacity="0.08"/>
<rect x="258" y="729" width="16" height="16" rx="8" fill="#49454F"/>
<rect x="351" y="722" width="50" height="30" rx="15" fill="#E6E0E9"/>
<rect x="351" y="722" width="50" height="30" rx="15" stroke="#79747E" stroke-width="2"/>
<rect x="346" y="717" width="40" height="40" rx="20" fill="#1D1B20" fill-opacity="0.1"/>
<rect x="358" y="729" width="16" height="16" rx="8" fill="#49454F"/>
<rect x="451" y="722" width="50" height="30" rx="15" fill="#E6E0E9"/>
<rect x="451" y="722" width="50" height="30" rx="15" stroke="#79747E" stroke-width="2"/>
<rect x="446" y="717" width="40" height="40" rx="20" fill="#1D1B20" fill-opacity="0.1"/>
<rect x="452" y="723" width="28" height="28" rx="14" fill="#49454F"/>
<rect x="550" y="721" width="52" height="32" rx="16" fill="#E7E0EC" fill-opacity="0.1"/>
<rect x="551" y="722" width="50" height="30" rx="15" stroke="#1D1B20" stroke-opacity="0.1" stroke-width="2"/>
<g opacity="0.38">
<rect x="558" y="729" width="16" height="16" rx="8" fill="#1D1B20"/>
</g>
<rect x="151" y="802" width="50" height="30" rx="15" fill="#E6E0E9"/>
<rect x="151" y="802" width="50" height="30" rx="15" stroke="#79747E" stroke-width="2"/>
<rect x="154" y="805" width="24" height="24" rx="12" fill="#79747E"/>
<path d="M162.267 821.667L161.333 820.733L165.067 817L161.333 813.267L162.267 812.333L166 816.067L169.733 812.333L170.667 813.267L166.933 817L170.667 820.733L169.733 821.667L166 817.933L162.267 821.667Z" fill="#E6E0E9"/>
<rect x="251" y="802" width="50" height="30" rx="15" fill="#E6E0E9"/>
<rect x="251" y="802" width="50" height="30" rx="15" stroke="#79747E" stroke-width="2"/>
<rect x="246" y="797" width="40" height="40" rx="20" fill="#1D1B20" fill-opacity="0.08"/>
<rect x="254" y="805" width="24" height="24" rx="12" fill="#49454F"/>
<path d="M262.267 821.667L261.333 820.733L265.067 817L261.333 813.267L262.267 812.333L266 816.067L269.733 812.333L270.667 813.267L266.933 817L270.667 820.733L269.733 821.667L266 817.933L262.267 821.667Z" fill="#E6E0E9"/>
<rect x="351" y="802" width="50" height="30" rx="15" fill="#E6E0E9"/>
<rect x="351" y="802" width="50" height="30" rx="15" stroke="#79747E" stroke-width="2"/>
<rect x="346" y="797" width="40" height="40" rx="20" fill="#1D1B20" fill-opacity="0.1"/>
<rect x="354" y="805" width="24" height="24" rx="12" fill="#49454F"/>
<path d="M362.267 821.667L361.333 820.733L365.067 817L361.333 813.267L362.267 812.333L366 816.067L369.733 812.333L370.667 813.267L366.933 817L370.667 820.733L369.733 821.667L366 817.933L362.267 821.667Z" fill="#E6E0E9"/>
<rect x="451" y="802" width="50" height="30" rx="15" fill="#E6E0E9"/>
<rect x="451" y="802" width="50" height="30" rx="15" stroke="#79747E" stroke-width="2"/>
<rect x="446" y="797" width="40" height="40" rx="20" fill="#1D1B20" fill-opacity="0.1"/>
<rect x="452" y="803" width="28" height="28" rx="14" fill="#49454F"/>
<path d="M462.267 821.667L461.333 820.733L465.067 817L461.333 813.267L462.267 812.333L466 816.067L469.733 812.333L470.667 813.267L466.933 817L470.667 820.733L469.733 821.667L466 817.933L462.267 821.667Z" fill="#E6E0E9"/>
<rect x="550" y="801" width="52" height="32" rx="16" fill="#E7E0EC" fill-opacity="0.1"/>
<rect x="551" y="802" width="50" height="30" rx="15" stroke="#1D1B20" stroke-opacity="0.1" stroke-width="2"/>
<g opacity="0.38">
<rect x="554" y="805" width="24" height="24" rx="12" fill="#1D1B20"/>
<g opacity="0.38">
<path d="M562.267 821.667L561.333 820.733L565.067 817L561.333 813.267L562.267 812.333L566 816.067L569.733 812.333L570.667 813.267L566.933 817L570.667 820.733L569.733 821.667L566 817.933L562.267 821.667Z" fill="#E6E0E9"/>
</g>
</g>
<g clip-path="url(#clip0_55141_14257)">
<path d="M40 68C40 52.536 52.536 40 68 40H684C699.464 40 712 52.536 712 68V451H40V68Z" fill="#F5F5F5"/>
<g clip-path="url(#clip1_55141_14257)">
<path d="M112 92.5C122.77 92.5 131.5 101.23 131.5 112C131.5 122.77 122.77 131.5 112 131.5C101.23 131.5 92.5 122.77 92.5 112C92.5 101.23 101.23 92.5 112 92.5Z" stroke="#1D1B20"/>
<path d="M125.5 98.5V125.5H98.5V98.5H125.5Z" stroke="#1D1B20"/>
<mask id="path-78-inside-1_55141_14257" fill="white">
<path fill-rule="evenodd" clip-rule="evenodd" d="M125.928 98.0703L112 125.927L98.0713 98.0703"/>
</mask>
<path d="M112 125.927L111.105 126.375L112 128.164L112.894 126.375L112 125.927ZM125.928 98.0703L125.034 97.6231L111.105 125.48L112 125.927L112.894 126.375L126.823 98.5175L125.928 98.0703ZM112 125.927L112.894 125.48L98.9657 97.6231L98.0713 98.0703L97.1769 98.5175L111.105 126.375L112 125.927Z" fill="#1D1B20" mask="url(#path-78-inside-1_55141_14257)"/>
</g>
<path d="M128.914 251.625C128.914 250.297 128.706 249.125 128.289 248.109C127.898 247.068 127.195 246.13 126.18 245.297C125.19 244.464 123.81 243.669 122.039 242.914C120.294 242.159 118.081 241.391 115.398 240.609C112.586 239.776 110.047 238.852 107.781 237.836C105.516 236.794 103.576 235.609 101.961 234.281C100.346 232.953 99.1094 231.43 98.25 229.711C97.3906 227.992 96.9609 226.026 96.9609 223.812C96.9609 221.599 97.4167 219.555 98.3281 217.68C99.2396 215.805 100.542 214.177 102.234 212.797C103.953 211.391 105.997 210.297 108.367 209.516C110.737 208.734 113.38 208.344 116.297 208.344C120.568 208.344 124.188 209.164 127.156 210.805C130.151 212.419 132.43 214.542 133.992 217.172C135.555 219.776 136.336 222.562 136.336 225.531H128.836C128.836 223.396 128.38 221.508 127.469 219.867C126.557 218.201 125.177 216.898 123.328 215.961C121.479 214.997 119.135 214.516 116.297 214.516C113.615 214.516 111.401 214.919 109.656 215.727C107.911 216.534 106.609 217.628 105.75 219.008C104.917 220.388 104.5 221.964 104.5 223.734C104.5 224.932 104.747 226.026 105.242 227.016C105.763 227.979 106.557 228.878 107.625 229.711C108.719 230.544 110.099 231.312 111.766 232.016C113.458 232.719 115.477 233.396 117.82 234.047C121.049 234.958 123.836 235.974 126.18 237.094C128.523 238.214 130.451 239.477 131.961 240.883C133.497 242.263 134.63 243.839 135.359 245.609C136.115 247.354 136.492 249.333 136.492 251.547C136.492 253.865 136.023 255.961 135.086 257.836C134.148 259.711 132.807 261.312 131.062 262.641C129.318 263.969 127.221 264.997 124.773 265.727C122.352 266.43 119.643 266.781 116.648 266.781C114.018 266.781 111.427 266.417 108.875 265.687C106.349 264.958 104.044 263.865 101.961 262.406C99.9036 260.948 98.25 259.151 97 257.016C95.776 254.854 95.1641 252.354 95.1641 249.516H102.664C102.664 251.469 103.042 253.148 103.797 254.555C104.552 255.935 105.581 257.081 106.883 257.992C108.211 258.904 109.708 259.581 111.375 260.023C113.068 260.44 114.826 260.648 116.648 260.648C119.279 260.648 121.505 260.284 123.328 259.555C125.151 258.826 126.531 257.784 127.469 256.43C128.432 255.076 128.914 253.474 128.914 251.625ZM155.711 258.5L166.57 223.734H171.336L170.398 230.648L159.344 266H154.695L155.711 258.5ZM148.406 223.734L157.664 258.891L158.328 266H153.445L141.18 223.734H148.406ZM181.727 258.617L190.555 223.734H197.742L185.477 266H180.633L181.727 258.617ZM172.391 223.734L183.016 257.914L184.227 266H179.617L168.25 230.57L167.312 223.734H172.391ZM213.016 223.734V266H205.75V223.734H213.016ZM205.203 212.523C205.203 211.352 205.555 210.362 206.258 209.555C206.987 208.747 208.055 208.344 209.461 208.344C210.841 208.344 211.896 208.747 212.625 209.555C213.38 210.362 213.758 211.352 213.758 212.523C213.758 213.643 213.38 214.607 212.625 215.414C211.896 216.195 210.841 216.586 209.461 216.586C208.055 216.586 206.987 216.195 206.258 215.414C205.555 214.607 205.203 213.643 205.203 212.523ZM242.312 223.734V229.281H219.461V223.734H242.312ZM227.195 213.461H234.422V255.531C234.422 256.964 234.643 258.044 235.086 258.773C235.529 259.503 236.102 259.984 236.805 260.219C237.508 260.453 238.263 260.57 239.07 260.57C239.669 260.57 240.294 260.518 240.945 260.414C241.622 260.284 242.13 260.18 242.469 260.102L242.508 266C241.935 266.182 241.18 266.352 240.242 266.508C239.331 266.69 238.224 266.781 236.922 266.781C235.151 266.781 233.523 266.43 232.039 265.727C230.555 265.023 229.37 263.852 228.484 262.211C227.625 260.544 227.195 258.305 227.195 255.492V213.461ZM267.703 260.844C269.422 260.844 271.01 260.492 272.469 259.789C273.927 259.086 275.125 258.122 276.062 256.898C277 255.648 277.534 254.229 277.664 252.641H284.539C284.409 255.141 283.562 257.471 282 259.633C280.464 261.768 278.445 263.5 275.945 264.828C273.445 266.13 270.698 266.781 267.703 266.781C264.526 266.781 261.753 266.221 259.383 265.102C257.039 263.982 255.086 262.445 253.523 260.492C251.987 258.539 250.828 256.299 250.047 253.773C249.292 251.221 248.914 248.526 248.914 245.687V244.047C248.914 241.208 249.292 238.526 250.047 236C250.828 233.448 251.987 231.195 253.523 229.242C255.086 227.289 257.039 225.753 259.383 224.633C261.753 223.513 264.526 222.953 267.703 222.953C271.01 222.953 273.901 223.63 276.375 224.984C278.849 226.312 280.789 228.135 282.195 230.453C283.628 232.745 284.409 235.349 284.539 238.266H277.664C277.534 236.521 277.039 234.945 276.18 233.539C275.346 232.133 274.201 231.013 272.742 230.18C271.31 229.32 269.63 228.891 267.703 228.891C265.49 228.891 263.628 229.333 262.117 230.219C260.633 231.078 259.448 232.25 258.562 233.734C257.703 235.193 257.078 236.82 256.688 238.617C256.323 240.388 256.141 242.198 256.141 244.047V245.687C256.141 247.536 256.323 249.359 256.688 251.156C257.052 252.953 257.664 254.581 258.523 256.039C259.409 257.497 260.594 258.669 262.078 259.555C263.589 260.414 265.464 260.844 267.703 260.844ZM299.891 206V266H292.664V206H299.891ZM298.172 243.266L295.164 243.148C295.19 240.258 295.62 237.589 296.453 235.141C297.286 232.667 298.458 230.518 299.969 228.695C301.479 226.872 303.276 225.466 305.359 224.477C307.469 223.461 309.799 222.953 312.352 222.953C314.435 222.953 316.31 223.24 317.977 223.812C319.643 224.359 321.062 225.245 322.234 226.469C323.432 227.693 324.344 229.281 324.969 231.234C325.594 233.161 325.906 235.518 325.906 238.305V266H318.641V238.227C318.641 236.013 318.315 234.242 317.664 232.914C317.013 231.56 316.062 230.583 314.812 229.984C313.562 229.359 312.026 229.047 310.203 229.047C308.406 229.047 306.766 229.424 305.281 230.18C303.823 230.935 302.56 231.977 301.492 233.305C300.451 234.633 299.63 236.156 299.031 237.875C298.458 239.568 298.172 241.365 298.172 243.266Z" fill="#1D1B20"/>
<path d="M 103.398 329.687 C 103.398 329.289 103.336 328.937 103.211 328.633 C 103.094 328.32 102.883 328.039 102.578 327.789 C 102.281 327.539 101.867 327.301 101.336 327.074 C 100.812 326.848 100.148 326.617 99.3438 326.383 C 98.5 326.133 97.7383 325.855 97.0586 325.551 C 96.3789 325.238 95.7969 324.883 95.3125 324.484 C 94.8281 324.086 94.457 323.629 94.1992 323.113 C 93.9414 322.598 93.8125 322.008 93.8125 321.344 C 93.8125 320.68 93.9492 320.066 94.2227 319.504 C 94.4961 318.941 94.8867 318.453 95.3945 318.039 C 95.9102 317.617 96.5234 317.289 97.2344 317.055 C 97.9453 316.82 98.7383 316.703 99.6133 316.703 C 100.895 316.703 101.98 316.949 102.871 317.441 C 103.77 317.926 104.453 318.562 104.922 319.352 C 105.391 320.133 105.625 320.969 105.625 321.859 L 103.375 321.859 C 103.375 321.219 103.238 320.652 102.965 320.16 C 102.691 319.66 102.277 319.27 101.723 318.988 C 101.168 318.699 100.465 318.555 99.6133 318.555 C 98.8086 318.555 98.1445 318.676 97.6211 318.918 C 97.0977 319.16 96.707 319.488 96.4492 319.902 C 96.1992 320.316 96.0742 320.789 96.0742 321.32 C 96.0742 321.68 96.1484 322.008 96.2969 322.305 C 96.4531 322.594 96.6914 322.863 97.0117 323.113 C 97.3398 323.363 97.7539 323.594 98.2539 323.805 C 98.7617 324.016 99.3672 324.219 100.07 324.414 C 101.039 324.687 101.875 324.992 102.578 325.328 C 103.281 325.664 103.859 326.043 104.312 326.465 C 104.773 326.879 105.113 327.352 105.332 327.883 C 105.559 328.406 105.672 329 105.672 329.664 C 105.672 330.359 105.531 330.988 105.25 331.551 C 104.969 332.113 104.566 332.594 104.043 332.992 C 103.52 333.391 102.891 333.699 102.156 333.918 C 101.43 334.129 100.617 334.234 99.7188 334.234 C 98.9297 334.234 98.1523 334.125 97.3867 333.906 C 96.6289 333.687 95.9375 333.359 95.3125 332.922 C 94.6953 332.484 94.1992 331.945 93.8242 331.305 C 93.457 330.656 93.2734 329.906 93.2734 329.055 L 95.5234 329.055 C 95.5234 329.641 95.6367 330.145 95.8633 330.566 C 96.0898 330.98 96.3984 331.324 96.7891 331.598 C 97.1875 331.871 97.6367 332.074 98.1367 332.207 C 98.6445 332.332 99.1719 332.395 99.7188 332.395 C 100.508 332.395 101.176 332.285 101.723 332.066 C 102.27 331.848 102.684 331.535 102.965 331.129 C 103.254 330.723 103.398 330.242 103.398 329.687 Z M 113.488 334.234 C 112.605 334.234 111.805 334.086 111.086 333.789 C 110.375 333.484 109.762 333.059 109.246 332.512 C 108.738 331.965 108.348 331.316 108.074 330.566 C 107.801 329.816 107.664 328.996 107.664 328.105 L 107.664 327.613 C 107.664 326.582 107.816 325.664 108.121 324.859 C 108.426 324.047 108.84 323.359 109.363 322.797 C 109.887 322.234 110.48 321.809 111.145 321.52 C 111.809 321.23 112.496 321.086 113.207 321.086 C 114.113 321.086 114.895 321.242 115.551 321.555 C 116.215 321.867 116.758 322.305 117.18 322.867 C 117.602 323.422 117.914 324.078 118.117 324.836 C 118.32 325.586 118.422 326.406 118.422 327.297 L 118.422 328.27 L 108.953 328.27 L 108.953 326.5 L 116.254 326.5 L 116.254 326.336 C 116.223 325.773 116.105 325.227 115.902 324.695 C 115.707 324.164 115.395 323.727 114.965 323.383 C 114.535 323.039 113.949 322.867 113.207 322.867 C 112.715 322.867 112.262 322.973 111.848 323.184 C 111.434 323.387 111.078 323.691 110.781 324.098 C 110.484 324.504 110.254 325 110.09 325.586 C 109.926 326.172 109.844 326.848 109.844 327.613 L 109.844 328.105 C 109.844 328.707 109.926 329.273 110.09 329.805 C 110.262 330.328 110.508 330.789 110.828 331.187 C 111.156 331.586 111.551 331.898 112.012 332.125 C 112.48 332.352 113.012 332.465 113.605 332.465 C 114.371 332.465 115.02 332.309 115.551 331.996 C 116.082 331.684 116.547 331.266 116.945 330.742 L 118.258 331.785 C 117.984 332.199 117.637 332.594 117.215 332.969 C 116.793 333.344 116.273 333.648 115.656 333.883 C 115.047 334.117 114.324 334.234 113.488 334.234 Z M 126.215 334.234 C 125.332 334.234 124.531 334.086 123.812 333.789 C 123.102 333.484 122.488 333.059 121.973 332.512 C 121.465 331.965 121.074 331.316 120.801 330.566 C 120.527 329.816 120.391 328.996 120.391 328.105 L 120.391 327.613 C 120.391 326.582 120.543 325.664 120.848 324.859 C 121.152 324.047 121.566 323.359 122.09 322.797 C 122.613 322.234 123.207 321.809 123.871 321.52 C 124.535 321.23 125.223 321.086 125.934 321.086 C 126.84 321.086 127.621 321.242 128.277 321.555 C 128.941 321.867 129.484 322.305 129.906 322.867 C 130.328 323.422 130.641 324.078 130.844 324.836 C 131.047 325.586 131.148 326.406 131.148 327.297 L 131.148 328.27 L 121.68 328.27 L 121.68 326.5 L 128.98 326.5 L 128.98 326.336 C 128.949 325.773 128.832 325.227 128.629 324.695 C 128.434 324.164 128.121 323.727 127.691 323.383 C 127.262 323.039 126.676 322.867 125.934 322.867 C 125.441 322.867 124.988 322.973 124.574 323.184 C 124.16 323.387 123.805 323.691 123.508 324.098 C 123.211 324.504 122.98 325 122.816 325.586 C 122.652 326.172 122.57 326.848 122.57 327.613 L 122.57 328.105 C 122.57 328.707 122.652 329.273 122.816 329.805 C 122.988 330.328 123.234 330.789 123.555 331.187 C 123.883 331.586 124.277 331.898 124.738 332.125 C 125.207 332.352 125.738 332.465 126.332 332.465 C 127.098 332.465 127.746 332.309 128.277 331.996 C 128.809 331.684 129.273 331.266 129.672 330.742 L 130.984 331.785 C 130.711 332.199 130.363 332.594 129.941 332.969 C 129.52 333.344 129 333.648 128.383 333.883 C 127.773 334.117 127.051 334.234 126.215 334.234 Z M 147.625 331.539 L 147.625 316 L 149.805 316 L 149.805 334 L 147.812 334 L 147.625 331.539 Z M 139.094 327.801 L 139.094 327.555 C 139.094 326.586 139.211 325.707 139.445 324.918 C 139.688 324.121 140.027 323.437 140.465 322.867 C 140.91 322.297 141.438 321.859 142.047 321.555 C 142.664 321.242 143.352 321.086 144.109 321.086 C 144.906 321.086 145.602 321.227 146.195 321.508 C 146.797 321.781 147.305 322.184 147.719 322.715 C 148.141 323.238 148.473 323.871 148.715 324.613 C 148.957 325.355 149.125 326.195 149.219 327.133 L 149.219 328.211 C 149.133 329.141 148.965 329.977 148.715 330.719 C 148.473 331.461 148.141 332.094 147.719 332.617 C 147.305 333.141 146.797 333.543 146.195 333.824 C 145.594 334.098 144.891 334.234 144.086 334.234 C 143.344 334.234 142.664 334.074 142.047 333.754 C 141.438 333.434 140.91 332.984 140.465 332.406 C 140.027 331.828 139.688 331.148 139.445 330.367 C 139.211 329.578 139.094 328.723 139.094 327.801 Z M 141.273 327.555 L 141.273 327.801 C 141.273 328.434 141.336 329.027 141.461 329.582 C 141.594 330.137 141.797 330.625 142.07 331.047 C 142.344 331.469 142.691 331.801 143.113 332.043 C 143.535 332.277 144.039 332.395 144.625 332.395 C 145.344 332.395 145.934 332.242 146.395 331.937 C 146.863 331.633 147.238 331.23 147.52 330.73 C 147.801 330.23 148.02 329.687 148.176 329.102 L 148.176 326.277 C 148.082 325.848 147.945 325.434 147.766 325.035 C 147.594 324.629 147.367 324.27 147.086 323.957 C 146.812 323.637 146.473 323.383 146.066 323.195 C 145.668 323.008 145.195 322.914 144.648 322.914 C 144.055 322.914 143.543 323.039 143.113 323.289 C 142.691 323.531 142.344 323.867 142.07 324.297 C 141.797 324.719 141.594 325.211 141.461 325.773 C 141.336 326.328 141.273 326.922 141.273 327.555 Z M 158.441 334.234 C 157.559 334.234 156.758 334.086 156.039 333.789 C 155.328 333.484 154.715 333.059 154.199 332.512 C 153.691 331.965 153.301 331.316 153.027 330.566 C 152.754 329.816 152.617 328.996 152.617 328.105 L 152.617 327.613 C 152.617 326.582 152.77 325.664 153.074 324.859 C 153.379 324.047 153.793 323.359 154.316 322.797 C 154.84 322.234 155.434 321.809 156.098 321.52 C 156.762 321.23 157.449 321.086 158.16 321.086 C 159.066 321.086 159.848 321.242 160.504 321.555 C 161.168 321.867 161.711 322.305 162.133 322.867 C 162.555 323.422 162.867 324.078 163.07 324.836 C 163.273 325.586 163.375 326.406 163.375 327.297 L 163.375 328.27 L 153.906 328.27 L 153.906 326.5 L 161.207 326.5 L 161.207 326.336 C 161.176 325.773 161.059 325.227 160.855 324.695 C 160.66 324.164 160.348 323.727 159.918 323.383 C 159.488 323.039 158.902 322.867 158.16 322.867 C 157.668 322.867 157.215 322.973 156.801 323.184 C 156.387 323.387 156.031 323.691 155.734 324.098 C 155.438 324.504 155.207 325 155.043 325.586 C 154.879 326.172 154.797 326.848 154.797 327.613 L 154.797 328.105 C 154.797 328.707 154.879 329.273 155.043 329.805 C 155.215 330.328 155.461 330.789 155.781 331.187 C 156.109 331.586 156.504 331.898 156.965 332.125 C 157.434 332.352 157.965 332.465 158.559 332.465 C 159.324 332.465 159.973 332.309 160.504 331.996 C 161.035 331.684 161.5 331.266 161.898 330.742 L 163.211 331.785 C 162.938 332.199 162.59 332.594 162.168 332.969 C 161.746 333.344 161.227 333.648 160.609 333.883 C 160 334.117 159.277 334.234 158.441 334.234 Z M 173.289 330.637 C 173.289 330.324 173.219 330.035 173.078 329.77 C 172.945 329.496 172.668 329.25 172.246 329.031 C 171.832 328.805 171.207 328.609 170.371 328.445 C 169.668 328.297 169.031 328.121 168.461 327.918 C 167.898 327.715 167.418 327.469 167.02 327.18 C 166.629 326.891 166.328 326.551 166.117 326.16 C 165.906 325.77 165.801 325.312 165.801 324.789 C 165.801 324.289 165.91 323.816 166.129 323.371 C 166.355 322.926 166.672 322.531 167.078 322.187 C 167.492 321.844 167.988 321.574 168.566 321.379 C 169.145 321.184 169.789 321.086 170.5 321.086 C 171.516 321.086 172.383 321.266 173.102 321.625 C 173.82 321.984 174.371 322.465 174.754 323.066 C 175.137 323.66 175.328 324.32 175.328 325.047 L 173.16 325.047 C 173.16 324.695 173.055 324.355 172.844 324.027 C 172.641 323.691 172.34 323.414 171.941 323.195 C 171.551 322.977 171.07 322.867 170.5 322.867 C 169.898 322.867 169.41 322.961 169.035 323.148 C 168.668 323.328 168.398 323.559 168.227 323.84 C 168.062 324.121 167.98 324.418 167.98 324.73 C 167.98 324.965 168.02 325.176 168.098 325.363 C 168.184 325.543 168.332 325.711 168.543 325.867 C 168.754 326.016 169.051 326.156 169.434 326.289 C 169.816 326.422 170.305 326.555 170.898 326.687 C 171.938 326.922 172.793 327.203 173.465 327.531 C 174.137 327.859 174.637 328.262 174.965 328.738 C 175.293 329.215 175.457 329.793 175.457 330.473 C 175.457 331.027 175.34 331.535 175.105 331.996 C 174.879 332.457 174.547 332.855 174.109 333.191 C 173.68 333.52 173.164 333.777 172.562 333.965 C 171.969 334.145 171.301 334.234 170.559 334.234 C 169.441 334.234 168.496 334.035 167.723 333.637 C 166.949 333.238 166.363 332.723 165.965 332.09 C 165.566 331.457 165.367 330.789 165.367 330.086 L 167.547 330.086 C 167.578 330.68 167.75 331.152 168.062 331.504 C 168.375 331.848 168.758 332.094 169.211 332.242 C 169.664 332.383 170.113 332.453 170.559 332.453 C 171.152 332.453 171.648 332.375 172.047 332.219 C 172.453 332.062 172.762 331.848 172.973 331.574 C 173.184 331.301 173.289 330.988 173.289 330.637 Z M 180.66 321.32 L 180.66 334 L 178.48 334 L 178.48 321.32 L 180.66 321.32 Z M 178.316 317.957 C 178.316 317.605 178.422 317.309 178.633 317.066 C 178.852 316.824 179.172 316.703 179.594 316.703 C 180.008 316.703 180.324 316.824 180.543 317.066 C 180.77 317.309 180.883 317.605 180.883 317.957 C 180.883 318.293 180.77 318.582 180.543 318.824 C 180.324 319.059 180.008 319.176 179.594 319.176 C 179.172 319.176 178.852 319.059 178.633 318.824 C 178.422 318.582 178.316 318.293 178.316 317.957 Z M 192.355 321.32 L 194.324 321.32 L 194.324 333.73 C 194.324 334.848 194.098 335.801 193.645 336.59 C 193.191 337.379 192.559 337.977 191.746 338.383 C 190.941 338.797 190.012 339.004 188.957 339.004 C 188.52 339.004 188.004 338.934 187.41 338.793 C 186.824 338.66 186.246 338.43 185.676 338.102 C 185.113 337.781 184.641 337.348 184.258 336.801 L 185.395 335.512 C 185.926 336.152 186.48 336.598 187.059 336.848 C 187.645 337.098 188.223 337.223 188.793 337.223 C 189.48 337.223 190.074 337.094 190.574 336.836 C 191.074 336.578 191.461 336.195 191.734 335.687 C 192.016 335.187 192.156 334.57 192.156 333.836 L 192.156 324.109 L 192.355 321.32 Z M 183.625 327.801 L 183.625 327.555 C 183.625 326.586 183.738 325.707 183.965 324.918 C 184.199 324.121 184.531 323.437 184.961 322.867 C 185.398 322.297 185.926 321.859 186.543 321.555 C 187.16 321.242 187.855 321.086 188.629 321.086 C 189.426 321.086 190.121 321.227 190.715 321.508 C 191.316 321.781 191.824 322.184 192.238 322.715 C 192.66 323.238 192.992 323.871 193.234 324.613 C 193.477 325.355 193.645 326.195 193.738 327.133 L 193.738 328.211 C 193.652 329.141 193.484 329.977 193.234 330.719 C 192.992 331.461 192.66 332.094 192.238 332.617 C 191.824 333.141 191.316 333.543 190.715 333.824 C 190.113 334.098 189.41 334.234 188.605 334.234 C 187.848 334.234 187.16 334.074 186.543 333.754 C 185.934 333.434 185.41 332.984 184.973 332.406 C 184.535 331.828 184.199 331.148 183.965 330.367 C 183.738 329.578 183.625 328.723 183.625 327.801 Z M 185.793 327.555 L 185.793 327.801 C 185.793 328.434 185.855 329.027 185.98 329.582 C 186.113 330.137 186.312 330.625 186.578 331.047 C 186.852 331.469 187.199 331.801 187.621 332.043 C 188.043 332.277 188.547 332.395 189.133 332.395 C 189.852 332.395 190.445 332.242 190.914 331.937 C 191.383 331.633 191.754 331.23 192.027 330.73 C 192.309 330.23 192.527 329.687 192.684 329.102 L 192.684 326.277 C 192.598 325.848 192.465 325.434 192.285 325.035 C 192.113 324.629 191.887 324.27 191.605 323.957 C 191.332 323.637 190.992 323.383 190.586 323.195 C 190.18 323.008 189.703 322.914 189.156 322.914 C 188.562 322.914 188.051 323.039 187.621 323.289 C 187.199 323.531 186.852 323.867 186.578 324.297 C 186.312 324.719 186.113 325.211 185.98 325.773 C 185.855 326.328 185.793 326.922 185.793 327.555 Z M 199.785 324.027 L 199.785 334 L 197.617 334 L 197.617 321.32 L 199.668 321.32 L 199.785 324.027 Z M 199.27 327.18 L 198.367 327.145 C 198.375 326.277 198.504 325.477 198.754 324.742 C 199.004 324 199.355 323.355 199.809 322.809 C 200.262 322.262 200.801 321.84 201.426 321.543 C 202.059 321.238 202.758 321.086 203.523 321.086 C 204.148 321.086 204.711 321.172 205.211 321.344 C 205.711 321.508 206.137 321.773 206.488 322.141 C 206.848 322.508 207.121 322.984 207.309 323.57 C 207.496 324.148 207.59 324.855 207.59 325.691 L 207.59 334 L 205.41 334 L 205.41 325.668 C 205.41 325.004 205.312 324.473 205.117 324.074 C 204.922 323.668 204.637 323.375 204.262 323.195 C 203.887 323.008 203.426 322.914 202.879 322.914 C 202.34 322.914 201.848 323.027 201.402 323.254 C 200.965 323.48 200.586 323.793 200.266 324.191 C 199.953 324.59 199.707 325.047 199.527 325.562 C 199.355 326.07 199.27 326.609 199.27 327.18 Z M 225.051 321.32 L 227.02 321.32 L 227.02 333.73 C 227.02 334.848 226.793 335.801 226.34 336.59 C 225.887 337.379 225.254 337.977 224.441 338.383 C 223.637 338.797 222.707 339.004 221.652 339.004 C 221.215 339.004 220.699 338.934 220.105 338.793 C 219.52 338.66 218.941 338.43 218.371 338.102 C 217.809 337.781 217.336 337.348 216.953 336.801 L 218.09 335.512 C 218.621 336.152 219.176 336.598 219.754 336.848 C 220.34 337.098 220.918 337.223 221.488 337.223 C 222.176 337.223 222.77 337.094 223.27 336.836 C 223.77 336.578 224.156 336.195 224.43 335.687 C 224.711 335.187 224.852 334.57 224.852 333.836 L 224.852 324.109 L 225.051 321.32 Z M 216.32 327.801 L 216.32 327.555 C 216.32 326.586 216.434 325.707 216.66 324.918 C 216.895 324.121 217.227 323.437 217.656 322.867 C 218.094 322.297 218.621 321.859 219.238 321.555 C 219.855 321.242 220.551 321.086 221.324 321.086 C 222.121 321.086 222.816 321.227 223.41 321.508 C 224.012 321.781 224.52 322.184 224.934 322.715 C 225.355 323.238 225.688 323.871 225.93 324.613 C 226.172 325.355 226.34 326.195 226.434 327.133 L 226.434 328.211 C 226.348 329.141 226.18 329.977 225.93 330.719 C 225.688 331.461 225.355 332.094 224.934 332.617 C 224.52 333.141 224.012 333.543 223.41 333.824 C 222.809 334.098 222.105 334.234 221.301 334.234 C 220.543 334.234 219.855 334.074 219.238 333.754 C 218.629 333.434 218.105 332.984 217.668 332.406 C 217.23 331.828 216.895 331.148 216.66 330.367 C 216.434 329.578 216.32 328.723 216.32 327.801 Z M 218.488 327.555 L 218.488 327.801 C 218.488 328.434 218.551 329.027 218.676 329.582 C 218.809 330.137 219.008 330.625 219.273 331.047 C 219.547 331.469 219.895 331.801 220.316 332.043 C 220.738 332.277 221.242 332.395 221.828 332.395 C 222.547 332.395 223.141 332.242 223.609 331.937 C 224.078 331.633 224.449 331.23 224.723 330.73 C 225.004 330.23 225.223 329.687 225.379 329.102 L 225.379 326.277 C 225.293 325.848 225.16 325.434 224.98 325.035 C 224.809 324.629 224.582 324.27 224.301 323.957 C 224.027 323.637 223.688 323.383 223.281 323.195 C 222.875 323.008 222.398 322.914 221.852 322.914 C 221.258 322.914 220.746 323.039 220.316 323.289 C 219.895 323.531 219.547 323.867 219.273 324.297 C 219.008 324.719 218.809 325.211 218.676 325.773 C 218.551 326.328 218.488 326.922 218.488 327.555 Z M 238.07 331.07 L 238.07 321.32 L 240.25 321.32 L 240.25 334 L 238.176 334 L 238.07 331.07 Z M 238.48 328.398 L 239.383 328.375 C 239.383 329.219 239.293 330 239.113 330.719 C 238.941 331.43 238.66 332.047 238.27 332.57 C 237.879 333.094 237.367 333.504 236.734 333.801 C 236.102 334.09 235.332 334.234 234.426 334.234 C 233.809 334.234 233.242 334.145 232.727 333.965 C 232.219 333.785 231.781 333.508 231.414 333.133 C 231.047 332.758 230.762 332.27 230.559 331.668 C 230.363 331.066 230.266 330.344 230.266 329.5 L 230.266 321.32 L 232.434 321.32 L 232.434 329.523 C 232.434 330.094 232.496 330.566 232.621 330.941 C 232.754 331.309 232.93 331.602 233.148 331.82 C 233.375 332.031 233.625 332.18 233.898 332.266 C 234.18 332.352 234.469 332.395 234.766 332.395 C 235.688 332.395 236.418 332.219 236.957 331.867 C 237.496 331.508 237.883 331.027 238.117 330.426 C 238.359 329.816 238.48 329.141 238.48 328.398 Z M 245.91 321.32 L 245.91 334 L 243.73 334 L 243.73 321.32 L 245.91 321.32 Z" fill="#6750A4"/>
<path d="M 243.566 317.957 C 243.566 317.605 243.672 317.309 243.883 317.066 C 244.102 316.824 244.422 316.703 244.844 316.703 C 245.258 316.703 245.574 316.824 245.793 317.066 C 246.02 317.309 246.133 317.605 246.133 317.957 C 246.133 318.293 246.02 318.582 245.793 318.824 C 245.574 319.059 245.258 319.176 244.844 319.176 C 244.422 319.176 244.102 319.059 243.883 318.824 C 243.672 318.582 243.566 318.293 243.566 317.957 Z M 257.383 331.539 L 257.383 316 L 259.562 316 L 259.562 334 L 257.57 334 L 257.383 331.539 Z M 248.852 327.801 L 248.852 327.555 C 248.852 326.586 248.969 325.707 249.203 324.918 C 249.445 324.121 249.785 323.437 250.223 322.867 C 250.668 322.297 251.195 321.859 251.805 321.555 C 252.422 321.242 253.109 321.086 253.867 321.086 C 254.664 321.086 255.359 321.227 255.953 321.508 C 256.555 321.781 257.062 322.184 257.477 322.715 C 257.898 323.238 258.23 323.871 258.473 324.613 C 258.715 325.355 258.883 326.195 258.977 327.133 L 258.977 328.211 C 258.891 329.141 258.723 329.977 258.473 330.719 C 258.23 331.461 257.898 332.094 257.477 332.617 C 257.062 333.141 256.555 333.543 255.953 333.824 C 255.352 334.098 254.648 334.234 253.844 334.234 C 253.102 334.234 252.422 334.074 251.805 333.754 C 251.195 333.434 250.668 332.984 250.223 332.406 C 249.785 331.828 249.445 331.148 249.203 330.367 C 248.969 329.578 248.852 328.723 248.852 327.801 Z M 251.031 327.555 L 251.031 327.801 C 251.031 328.434 251.094 329.027 251.219 329.582 C 251.352 330.137 251.555 330.625 251.828 331.047 C 252.102 331.469 252.449 331.801 252.871 332.043 C 253.293 332.277 253.797 332.395 254.383 332.395 C 255.102 332.395 255.691 332.242 256.152 331.937 C 256.621 331.633 256.996 331.23 257.277 330.73 C 257.559 330.23 257.777 329.687 257.934 329.102 L 257.934 326.277 C 257.84 325.848 257.703 325.434 257.523 325.035 C 257.352 324.629 257.125 324.27 256.844 323.957 C 256.57 323.637 256.23 323.383 255.824 323.195 C 255.426 323.008 254.953 322.914 254.406 322.914 C 253.812 322.914 253.301 323.039 252.871 323.289 C 252.449 323.531 252.102 323.867 251.828 324.297 C 251.555 324.719 251.352 325.211 251.219 325.773 C 251.094 326.328 251.031 326.922 251.031 327.555 Z M 268.199 334.234 C 267.316 334.234 266.516 334.086 265.797 333.789 C 265.086 333.484 264.473 333.059 263.957 332.512 C 263.449 331.965 263.059 331.316 262.785 330.566 C 262.512 329.816 262.375 328.996 262.375 328.105 L 262.375 327.613 C 262.375 326.582 262.527 325.664 262.832 324.859 C 263.137 324.047 263.551 323.359 264.074 322.797 C 264.598 322.234 265.191 321.809 265.855 321.52 C 266.52 321.23 267.207 321.086 267.918 321.086 C 268.824 321.086 269.605 321.242 270.262 321.555 C 270.926 321.867 271.469 322.305 271.891 322.867 C 272.312 323.422 272.625 324.078 272.828 324.836 C 273.031 325.586 273.133 326.406 273.133 327.297 L 273.133 328.27 L 263.664 328.27 L 263.664 326.5 L 270.965 326.5 L 270.965 326.336 C 270.934 325.773 270.816 325.227 270.613 324.695 C 270.418 324.164 270.105 323.727 269.676 323.383 C 269.246 323.039 268.66 322.867 267.918 322.867 C 267.426 322.867 266.973 322.973 266.559 323.184 C 266.145 323.387 265.789 323.691 265.492 324.098 C 265.195 324.504 264.965 325 264.801 325.586 C 264.637 326.172 264.555 326.848 264.555 327.613 L 264.555 328.105 C 264.555 328.707 264.637 329.273 264.801 329.805 C 264.973 330.328 265.219 330.789 265.539 331.187 C 265.867 331.586 266.262 331.898 266.723 332.125 C 267.191 332.352 267.723 332.465 268.316 332.465 C 269.082 332.465 269.73 332.309 270.262 331.996 C 270.793 331.684 271.258 331.266 271.656 330.742 L 272.969 331.785 C 272.695 332.199 272.348 332.594 271.926 332.969 C 271.504 333.344 270.984 333.648 270.367 333.883 C 269.758 334.117 269.035 334.234 268.199 334.234 Z M 278.02 316 L 278.02 334 L 275.84 334 L 275.84 316 L 278.02 316 Z M 283.855 321.32 L 283.855 334 L 281.676 334 L 281.676 321.32 L 283.855 321.32 Z M 281.512 317.957 C 281.512 317.605 281.617 317.309 281.828 317.066 C 282.047 316.824 282.367 316.703 282.789 316.703 C 283.203 316.703 283.52 316.824 283.738 317.066 C 283.965 317.309 284.078 317.605 284.078 317.957 C 284.078 318.293 283.965 318.582 283.738 318.824 C 283.52 319.059 283.203 319.176 282.789 319.176 C 282.367 319.176 282.047 319.059 281.828 318.824 C 281.617 318.582 281.512 318.293 281.512 317.957 Z M 289.504 324.027 L 289.504 334 L 287.336 334 L 287.336 321.32 L 289.387 321.32 L 289.504 324.027 Z M 288.988 327.18 L 288.086 327.145 C 288.094 326.277 288.223 325.477 288.473 324.742 C 288.723 324 289.074 323.355 289.527 322.809 C 289.98 322.262 290.52 321.84 291.145 321.543 C 291.777 321.238 292.477 321.086 293.242 321.086 C 293.867 321.086 294.43 321.172 294.93 321.344 C 295.43 321.508 295.855 321.773 296.207 322.141 C 296.566 322.508 296.84 322.984 297.027 323.57 C 297.215 324.148 297.309 324.855 297.309 325.691 L 297.309 334 L 295.129 334 L 295.129 325.668 C 295.129 325.004 295.031 324.473 294.836 324.074 C 294.641 323.668 294.355 323.375 293.98 323.195 C 293.605 323.008 293.145 322.914 292.598 322.914 C 292.059 322.914 291.566 323.027 291.121 323.254 C 290.684 323.48 290.305 323.793 289.984 324.191 C 289.672 324.59 289.426 325.047 289.246 325.562 C 289.074 326.07 288.988 326.609 288.988 327.18 Z M 305.863 334.234 C 304.98 334.234 304.18 334.086 303.461 333.789 C 302.75 333.484 302.137 333.059 301.621 332.512 C 301.113 331.965 300.723 331.316 300.449 330.566 C 300.176 329.816 300.039 328.996 300.039 328.105 L 300.039 327.613 C 300.039 326.582 300.191 325.664 300.496 324.859 C 300.801 324.047 301.215 323.359 301.738 322.797 C 302.262 322.234 302.855 321.809 303.52 321.52 C 304.184 321.23 304.871 321.086 305.582 321.086 C 306.488 321.086 307.27 321.242 307.926 321.555 C 308.59 321.867 309.133 322.305 309.555 322.867 C 309.977 323.422 310.289 324.078 310.492 324.836 C 310.695 325.586 310.797 326.406 310.797 327.297 L 310.797 328.27 L 301.328 328.27 L 301.328 326.5 L 308.629 326.5 L 308.629 326.336 C 308.598 325.773 308.48 325.227 308.277 324.695 C 308.082 324.164 307.77 323.727 307.34 323.383 C 306.91 323.039 306.324 322.867 305.582 322.867 C 305.09 322.867 304.637 322.973 304.223 323.184 C 303.809 323.387 303.453 323.691 303.156 324.098 C 302.859 324.504 302.629 325 302.465 325.586 C 302.301 326.172 302.219 326.848 302.219 327.613 L 302.219 328.105 C 302.219 328.707 302.301 329.273 302.465 329.805 C 302.637 330.328 302.883 330.789 303.203 331.187 C 303.531 331.586 303.926 331.898 304.387 332.125 C 304.855 332.352 305.387 332.465 305.98 332.465 C 306.746 332.465 307.395 332.309 307.926 331.996 C 308.457 331.684 308.922 331.266 309.32 330.742 L 310.633 331.785 C 310.359 332.199 310.012 332.594 309.59 332.969 C 309.168 333.344 308.648 333.648 308.031 333.883 C 307.422 334.117 306.699 334.234 305.863 334.234 Z" fill="#6750A4"/>
<path d="M92.3242 336.344H311.676V337.516H92.3242V336.344Z" fill="#6750A4"/>
<path d="M 100.306 380.766 C 100.306 380.467 100.259 380.203 100.165 379.975 C 100.077 379.74 99.9189 379.529 99.6904 379.342 C 99.4678 379.154 99.1572 378.976 98.7588 378.806 C 98.3662 378.636 97.8682 378.463 97.2646 378.287 C 96.6318 378.1 96.0605 377.892 95.5508 377.663 C 95.041 377.429 94.6045 377.162 94.2412 376.863 C 93.8779 376.564 93.5996 376.222 93.4062 375.835 C 93.2129 375.448 93.1162 375.006 93.1162 374.508 C 93.1162 374.01 93.2188 373.55 93.4238 373.128 C 93.6289 372.706 93.9219 372.34 94.3027 372.029 C 94.6895 371.713 95.1494 371.467 95.6826 371.291 C 96.2158 371.115 96.8105 371.027 97.4668 371.027 C 98.4277 371.027 99.2422 371.212 99.9102 371.581 C 100.584 371.944 101.097 372.422 101.448 373.014 C 101.8 373.6 101.976 374.227 101.976 374.895 L 100.288 374.895 C 100.288 374.414 100.186 373.989 99.9805 373.62 C 99.7754 373.245 99.4648 372.952 99.0488 372.741 C 98.6328 372.524 98.1055 372.416 97.4668 372.416 C 96.8633 372.416 96.3652 372.507 95.9727 372.688 C 95.5801 372.87 95.2871 373.116 95.0938 373.427 C 94.9062 373.737 94.8125 374.092 94.8125 374.49 C 94.8125 374.76 94.8682 375.006 94.9795 375.229 C 95.0967 375.445 95.2754 375.647 95.5156 375.835 C 95.7617 376.022 96.0723 376.195 96.4473 376.354 C 96.8281 376.512 97.2822 376.664 97.8096 376.811 C 98.5361 377.016 99.1631 377.244 99.6904 377.496 C 100.218 377.748 100.651 378.032 100.991 378.349 C 101.337 378.659 101.592 379.014 101.756 379.412 C 101.926 379.805 102.011 380.25 102.011 380.748 C 102.011 381.27 101.905 381.741 101.694 382.163 C 101.483 382.585 101.182 382.945 100.789 383.244 C 100.396 383.543 99.9248 383.774 99.374 383.938 C 98.8291 384.097 98.2197 384.176 97.5459 384.176 C 96.9541 384.176 96.3711 384.094 95.7969 383.93 C 95.2285 383.766 94.71 383.52 94.2412 383.191 C 93.7783 382.863 93.4062 382.459 93.125 381.979 C 92.8496 381.492 92.7119 380.93 92.7119 380.291 L 94.3994 380.291 C 94.3994 380.73 94.4844 381.108 94.6543 381.425 C 94.8242 381.735 95.0557 381.993 95.3486 382.198 C 95.6475 382.403 95.9844 382.556 96.3594 382.655 C 96.7402 382.749 97.1357 382.796 97.5459 382.796 C 98.1377 382.796 98.6387 382.714 99.0488 382.55 C 99.459 382.386 99.7695 382.151 99.9805 381.847 C 100.197 381.542 100.306 381.182 100.306 380.766 Z M 106.335 382.312 L 108.778 374.49 L 109.851 374.49 L 109.64 376.046 L 107.152 384 L 106.106 384 L 106.335 382.312 Z M 104.691 374.49 L 106.774 382.4 L 106.924 384 L 105.825 384 L 103.065 374.49 L 104.691 374.49 Z M 112.188 382.339 L 114.175 374.49 L 115.792 374.49 L 113.032 384 L 111.942 384 L 112.188 382.339 Z M 110.088 374.49 L 112.479 382.181 L 112.751 384 L 111.714 384 L 109.156 376.028 L 108.945 374.49 L 110.088 374.49 Z M 119.229 374.49 L 119.229 384 L 117.594 384 L 117.594 374.49 L 119.229 374.49 Z M 117.471 371.968 C 117.471 371.704 117.55 371.481 117.708 371.3 C 117.872 371.118 118.112 371.027 118.429 371.027 C 118.739 371.027 118.977 371.118 119.141 371.3 C 119.311 371.481 119.396 371.704 119.396 371.968 C 119.396 372.22 119.311 372.437 119.141 372.618 C 118.977 372.794 118.739 372.882 118.429 372.882 C 118.112 372.882 117.872 372.794 117.708 372.618 C 117.55 372.437 117.471 372.22 117.471 371.968 Z M 125.82 374.49 L 125.82 375.738 L 120.679 375.738 L 120.679 374.49 L 125.82 374.49 Z M 122.419 372.179 L 124.045 372.179 L 124.045 381.645 C 124.045 381.967 124.095 382.21 124.194 382.374 C 124.294 382.538 124.423 382.646 124.581 382.699 C 124.739 382.752 124.909 382.778 125.091 382.778 C 125.226 382.778 125.366 382.767 125.513 382.743 C 125.665 382.714 125.779 382.69 125.855 382.673 L 125.864 384 C 125.735 384.041 125.565 384.079 125.354 384.114 C 125.149 384.155 124.9 384.176 124.607 384.176 C 124.209 384.176 123.843 384.097 123.509 383.938 C 123.175 383.78 122.908 383.517 122.709 383.147 C 122.516 382.772 122.419 382.269 122.419 381.636 L 122.419 372.179 Z M 131.533 382.84 C 131.92 382.84 132.277 382.761 132.605 382.603 C 132.934 382.444 133.203 382.228 133.414 381.952 C 133.625 381.671 133.745 381.352 133.774 380.994 L 135.321 380.994 C 135.292 381.557 135.102 382.081 134.75 382.567 C 134.404 383.048 133.95 383.437 133.388 383.736 C 132.825 384.029 132.207 384.176 131.533 384.176 C 130.818 384.176 130.194 384.05 129.661 383.798 C 129.134 383.546 128.694 383.2 128.343 382.761 C 127.997 382.321 127.736 381.817 127.561 381.249 C 127.391 380.675 127.306 380.068 127.306 379.43 L 127.306 379.061 C 127.306 378.422 127.391 377.818 127.561 377.25 C 127.736 376.676 127.997 376.169 128.343 375.729 C 128.694 375.29 129.134 374.944 129.661 374.692 C 130.194 374.44 130.818 374.314 131.533 374.314 C 132.277 374.314 132.928 374.467 133.484 374.771 C 134.041 375.07 134.478 375.48 134.794 376.002 C 135.116 376.518 135.292 377.104 135.321 377.76 L 133.774 377.76 C 133.745 377.367 133.634 377.013 133.44 376.696 C 133.253 376.38 132.995 376.128 132.667 375.94 C 132.345 375.747 131.967 375.65 131.533 375.65 C 131.035 375.65 130.616 375.75 130.276 375.949 C 129.942 376.143 129.676 376.406 129.477 376.74 C 129.283 377.068 129.143 377.435 129.055 377.839 C 128.973 378.237 128.932 378.645 128.932 379.061 L 128.932 379.43 C 128.932 379.846 128.973 380.256 129.055 380.66 C 129.137 381.064 129.274 381.431 129.468 381.759 C 129.667 382.087 129.934 382.351 130.268 382.55 C 130.607 382.743 131.029 382.84 131.533 382.84 Z M 138.775 370.5 L 138.775 384 L 137.149 384 L 137.149 370.5 L 138.775 370.5 Z M 138.389 378.885 L 137.712 378.858 C 137.718 378.208 137.814 377.607 138.002 377.057 C 138.189 376.5 138.453 376.017 138.793 375.606 C 139.133 375.196 139.537 374.88 140.006 374.657 C 140.48 374.429 141.005 374.314 141.579 374.314 C 142.048 374.314 142.47 374.379 142.845 374.508 C 143.22 374.631 143.539 374.83 143.803 375.105 C 144.072 375.381 144.277 375.738 144.418 376.178 C 144.559 376.611 144.629 377.142 144.629 377.769 L 144.629 384 L 142.994 384 L 142.994 377.751 C 142.994 377.253 142.921 376.854 142.774 376.556 C 142.628 376.251 142.414 376.031 142.133 375.896 C 141.852 375.756 141.506 375.686 141.096 375.686 C 140.691 375.686 140.322 375.771 139.988 375.94 C 139.66 376.11 139.376 376.345 139.136 376.644 C 138.901 376.942 138.717 377.285 138.582 377.672 C 138.453 378.053 138.389 378.457 138.389 378.885 Z M 151.01 384.176 C 150.348 384.176 149.747 384.064 149.208 383.842 C 148.675 383.613 148.215 383.294 147.828 382.884 C 147.447 382.474 147.154 381.987 146.949 381.425 C 146.744 380.862 146.642 380.247 146.642 379.579 L 146.642 379.21 C 146.642 378.437 146.756 377.748 146.984 377.145 C 147.213 376.535 147.523 376.02 147.916 375.598 C 148.309 375.176 148.754 374.856 149.252 374.64 C 149.75 374.423 150.266 374.314 150.799 374.314 C 151.479 374.314 152.064 374.432 152.557 374.666 C 153.055 374.9 153.462 375.229 153.778 375.65 C 154.095 376.066 154.329 376.559 154.481 377.127 C 154.634 377.689 154.71 378.305 154.71 378.973 L 154.71 379.702 L 147.608 379.702 L 147.608 378.375 L 153.084 378.375 L 153.084 378.252 C 153.061 377.83 152.973 377.42 152.82 377.021 C 152.674 376.623 152.439 376.295 152.117 376.037 C 151.795 375.779 151.355 375.65 150.799 375.65 C 150.43 375.65 150.09 375.729 149.779 375.888 C 149.469 376.04 149.202 376.269 148.979 376.573 C 148.757 376.878 148.584 377.25 148.461 377.689 C 148.338 378.129 148.276 378.636 148.276 379.21 L 148.276 379.579 C 148.276 380.03 148.338 380.455 148.461 380.854 C 148.59 381.246 148.774 381.592 149.015 381.891 C 149.261 382.189 149.557 382.424 149.902 382.594 C 150.254 382.764 150.652 382.849 151.098 382.849 C 151.672 382.849 152.158 382.731 152.557 382.497 C 152.955 382.263 153.304 381.949 153.603 381.557 L 154.587 382.339 C 154.382 382.649 154.121 382.945 153.805 383.227 C 153.488 383.508 153.099 383.736 152.636 383.912 C 152.179 384.088 151.637 384.176 151.01 384.176 Z M 162.146 381.478 C 162.146 381.243 162.093 381.026 161.987 380.827 C 161.888 380.622 161.68 380.437 161.363 380.273 C 161.053 380.104 160.584 379.957 159.957 379.834 C 159.43 379.723 158.952 379.591 158.524 379.438 C 158.103 379.286 157.742 379.102 157.443 378.885 C 157.15 378.668 156.925 378.413 156.767 378.12 C 156.608 377.827 156.529 377.484 156.529 377.092 C 156.529 376.717 156.611 376.362 156.775 376.028 C 156.945 375.694 157.183 375.398 157.487 375.141 C 157.798 374.883 158.17 374.681 158.604 374.534 C 159.037 374.388 159.521 374.314 160.054 374.314 C 160.815 374.314 161.466 374.449 162.005 374.719 C 162.544 374.988 162.957 375.349 163.244 375.8 C 163.531 376.245 163.675 376.74 163.675 377.285 L 162.049 377.285 C 162.049 377.021 161.97 376.767 161.812 376.521 C 161.659 376.269 161.434 376.061 161.135 375.896 C 160.842 375.732 160.481 375.65 160.054 375.65 C 159.603 375.65 159.236 375.721 158.955 375.861 C 158.68 375.996 158.478 376.169 158.349 376.38 C 158.226 376.591 158.164 376.813 158.164 377.048 C 158.164 377.224 158.193 377.382 158.252 377.522 C 158.316 377.657 158.428 377.783 158.586 377.9 C 158.744 378.012 158.967 378.117 159.254 378.217 C 159.541 378.316 159.907 378.416 160.353 378.516 C 161.132 378.691 161.773 378.902 162.277 379.148 C 162.781 379.395 163.156 379.696 163.402 380.054 C 163.648 380.411 163.771 380.845 163.771 381.354 C 163.771 381.771 163.684 382.151 163.508 382.497 C 163.338 382.843 163.089 383.142 162.761 383.394 C 162.438 383.64 162.052 383.833 161.601 383.974 C 161.155 384.108 160.654 384.176 160.098 384.176 C 159.26 384.176 158.551 384.026 157.971 383.728 C 157.391 383.429 156.951 383.042 156.652 382.567 C 156.354 382.093 156.204 381.592 156.204 381.064 L 157.839 381.064 C 157.862 381.51 157.991 381.864 158.226 382.128 C 158.46 382.386 158.747 382.57 159.087 382.682 C 159.427 382.787 159.764 382.84 160.098 382.84 C 160.543 382.84 160.915 382.781 161.214 382.664 C 161.519 382.547 161.75 382.386 161.908 382.181 C 162.066 381.976 162.146 381.741 162.146 381.478 Z M 174.354 374.49 L 174.354 375.738 L 169.212 375.738 L 169.212 374.49 L 174.354 374.49 Z M 170.952 372.179 L 172.578 372.179 L 172.578 381.645 C 172.578 381.967 172.628 382.21 172.728 382.374 C 172.827 382.538 172.956 382.646 173.114 382.699 C 173.272 382.752 173.442 382.778 173.624 382.778 C 173.759 382.778 173.899 382.767 174.046 382.743 C 174.198 382.714 174.312 382.69 174.389 382.673 L 174.397 384 C 174.269 384.041 174.099 384.079 173.888 384.114 C 173.683 384.155 173.434 384.176 173.141 384.176 C 172.742 384.176 172.376 384.097 172.042 383.938 C 171.708 383.78 171.441 383.517 171.242 383.147 C 171.049 382.772 170.952 382.269 170.952 381.636 L 170.952 372.179 Z M 175.654 379.351 L 175.654 379.148 C 175.654 378.463 175.754 377.827 175.953 377.241 C 176.152 376.649 176.439 376.137 176.814 375.703 C 177.189 375.264 177.644 374.924 178.177 374.684 C 178.71 374.437 179.308 374.314 179.97 374.314 C 180.638 374.314 181.238 374.437 181.771 374.684 C 182.311 374.924 182.768 375.264 183.143 375.703 C 183.523 376.137 183.813 376.649 184.013 377.241 C 184.212 377.827 184.312 378.463 184.312 379.148 L 184.312 379.351 C 184.312 380.036 184.212 380.672 184.013 381.258 C 183.813 381.844 183.523 382.356 183.143 382.796 C 182.768 383.229 182.313 383.569 181.78 383.815 C 181.253 384.056 180.655 384.176 179.987 384.176 C 179.319 384.176 178.719 384.056 178.186 383.815 C 177.652 383.569 177.195 383.229 176.814 382.796 C 176.439 382.356 176.152 381.844 175.953 381.258 C 175.754 380.672 175.654 380.036 175.654 379.351 Z M 177.28 379.148 L 177.28 379.351 C 177.28 379.825 177.336 380.273 177.447 380.695 C 177.559 381.111 177.726 381.48 177.948 381.803 C 178.177 382.125 178.461 382.38 178.801 382.567 C 179.141 382.749 179.536 382.84 179.987 382.84 C 180.433 382.84 180.822 382.749 181.156 382.567 C 181.496 382.38 181.777 382.125 182 381.803 C 182.223 381.48 182.39 381.111 182.501 380.695 C 182.618 380.273 182.677 379.825 182.677 379.351 L 182.677 379.148 C 182.677 378.68 182.618 378.237 182.501 377.821 C 182.39 377.399 182.22 377.027 181.991 376.705 C 181.769 376.377 181.487 376.119 181.147 375.932 C 180.813 375.744 180.421 375.65 179.97 375.65 C 179.524 375.65 179.132 375.744 178.792 375.932 C 178.458 376.119 178.177 376.377 177.948 376.705 C 177.726 377.027 177.559 377.399 177.447 377.821 C 177.336 378.237 177.28 378.68 177.28 379.148 Z M 192.512 374.49 L 193.988 374.49 L 193.988 383.798 C 193.988 384.636 193.818 385.351 193.479 385.942 C 193.139 386.534 192.664 386.982 192.055 387.287 C 191.451 387.598 190.754 387.753 189.963 387.753 C 189.635 387.753 189.248 387.7 188.803 387.595 C 188.363 387.495 187.93 387.322 187.502 387.076 C 187.08 386.836 186.726 386.511 186.438 386.101 L 187.291 385.134 C 187.689 385.614 188.105 385.948 188.539 386.136 C 188.979 386.323 189.412 386.417 189.84 386.417 C 190.355 386.417 190.801 386.32 191.176 386.127 C 191.551 385.934 191.841 385.646 192.046 385.266 C 192.257 384.891 192.362 384.428 192.362 383.877 L 192.362 376.582 L 192.512 374.49 Z M 185.964 379.351 L 185.964 379.166 C 185.964 378.439 186.049 377.78 186.219 377.188 C 186.395 376.591 186.644 376.078 186.966 375.65 C 187.294 375.223 187.689 374.895 188.152 374.666 C 188.615 374.432 189.137 374.314 189.717 374.314 C 190.314 374.314 190.836 374.42 191.281 374.631 C 191.732 374.836 192.113 375.138 192.424 375.536 C 192.74 375.929 192.989 376.403 193.171 376.96 C 193.353 377.517 193.479 378.146 193.549 378.85 L 193.549 379.658 C 193.484 380.355 193.358 380.982 193.171 381.539 C 192.989 382.096 192.74 382.57 192.424 382.963 C 192.113 383.355 191.732 383.657 191.281 383.868 C 190.83 384.073 190.303 384.176 189.699 384.176 C 189.131 384.176 188.615 384.056 188.152 383.815 C 187.695 383.575 187.303 383.238 186.975 382.805 C 186.646 382.371 186.395 381.861 186.219 381.275 C 186.049 380.684 185.964 380.042 185.964 379.351 Z M 187.59 379.166 L 187.59 379.351 C 187.59 379.825 187.637 380.271 187.73 380.687 C 187.83 381.103 187.979 381.469 188.179 381.785 C 188.384 382.102 188.645 382.351 188.961 382.532 C 189.277 382.708 189.655 382.796 190.095 382.796 C 190.634 382.796 191.079 382.682 191.431 382.453 C 191.782 382.225 192.061 381.923 192.266 381.548 C 192.477 381.173 192.641 380.766 192.758 380.326 L 192.758 378.208 C 192.693 377.886 192.594 377.575 192.459 377.276 C 192.33 376.972 192.16 376.702 191.949 376.468 C 191.744 376.228 191.489 376.037 191.185 375.896 C 190.88 375.756 190.522 375.686 190.112 375.686 C 189.667 375.686 189.283 375.779 188.961 375.967 C 188.645 376.148 188.384 376.4 188.179 376.723 C 187.979 377.039 187.83 377.408 187.73 377.83 C 187.637 378.246 187.59 378.691 187.59 379.166 Z M 202.619 374.49 L 204.096 374.49 L 204.096 383.798 C 204.096 384.636 203.926 385.351 203.586 385.942 C 203.246 386.534 202.771 386.982 202.162 387.287 C 201.559 387.598 200.861 387.753 200.07 387.753 C 199.742 387.753 199.355 387.7 198.91 387.595 C 198.471 387.495 198.037 387.322 197.609 387.076 C 197.188 386.836 196.833 386.511 196.546 386.101 L 197.398 385.134 C 197.797 385.614 198.213 385.948 198.646 386.136 C 199.086 386.323 199.52 386.417 199.947 386.417 C 200.463 386.417 200.908 386.32 201.283 386.127 C 201.658 385.934 201.948 385.646 202.153 385.266 C 202.364 384.891 202.47 384.428 202.47 383.877 L 202.47 376.582 L 202.619 374.49 Z M 196.071 379.351 L 196.071 379.166 C 196.071 378.439 196.156 377.78 196.326 377.188 C 196.502 376.591 196.751 376.078 197.073 375.65 C 197.401 375.223 197.797 374.895 198.26 374.666 C 198.723 374.432 199.244 374.314 199.824 374.314 C 200.422 374.314 200.943 374.42 201.389 374.631 C 201.84 374.836 202.221 375.138 202.531 375.536 C 202.848 375.929 203.097 376.403 203.278 376.96 C 203.46 377.517 203.586 378.146 203.656 378.85 L 203.656 379.658 C 203.592 380.355 203.466 380.982 203.278 381.539 C 203.097 382.096 202.848 382.57 202.531 382.963 C 202.221 383.355 201.84 383.657 201.389 383.868 C 200.938 384.073 200.41 384.176 199.807 384.176 C 199.238 384.176 198.723 384.056 198.26 383.815 C 197.803 383.575 197.41 383.238 197.082 382.805 C 196.754 382.371 196.502 381.861 196.326 381.275 C 196.156 380.684 196.071 380.042 196.071 379.351 Z M 197.697 379.166 L 197.697 379.351 C 197.697 379.825 197.744 380.271 197.838 380.687 C 197.938 381.103 198.087 381.469 198.286 381.785 C 198.491 382.102 198.752 382.351 199.068 382.532 C 199.385 382.708 199.763 382.796 200.202 382.796 C 200.741 382.796 201.187 382.682 201.538 382.453 C 201.89 382.225 202.168 381.923 202.373 381.548 C 202.584 381.173 202.748 380.766 202.865 380.326 L 202.865 378.208 C 202.801 377.886 202.701 377.575 202.566 377.276 C 202.438 376.972 202.268 376.702 202.057 376.468 C 201.852 376.228 201.597 376.037 201.292 375.896 C 200.987 375.756 200.63 375.686 200.22 375.686 C 199.774 375.686 199.391 375.779 199.068 375.967 C 198.752 376.148 198.491 376.4 198.286 376.723 C 198.087 377.039 197.938 377.408 197.838 377.83 C 197.744 378.246 197.697 378.691 197.697 379.166 Z M 208.332 370.5 L 208.332 384 L 206.697 384 L 206.697 370.5 L 208.332 370.5 Z" fill="#1D1B20"/>
<path d="M 214.889 384.176 C 214.227 384.176 213.626 384.064 213.087 383.842 C 212.554 383.613 212.094 383.294 211.707 382.884 C 211.326 382.474 211.033 381.987 210.828 381.425 C 210.623 380.862 210.521 380.247 210.521 379.579 L 210.521 379.21 C 210.521 378.437 210.635 377.748 210.863 377.145 C 211.092 376.535 211.402 376.02 211.795 375.598 C 212.188 375.176 212.633 374.856 213.131 374.64 C 213.629 374.423 214.145 374.314 214.678 374.314 C 215.357 374.314 215.943 374.432 216.436 374.666 C 216.934 374.9 217.341 375.229 217.657 375.65 C 217.974 376.066 218.208 376.559 218.36 377.127 C 218.513 377.689 218.589 378.305 218.589 378.973 L 218.589 379.702 L 211.487 379.702 L 211.487 378.375 L 216.963 378.375 L 216.963 378.252 C 216.939 377.83 216.852 377.42 216.699 377.021 C 216.553 376.623 216.318 376.295 215.996 376.037 C 215.674 375.779 215.234 375.65 214.678 375.65 C 214.309 375.65 213.969 375.729 213.658 375.888 C 213.348 376.04 213.081 376.269 212.858 376.573 C 212.636 376.878 212.463 377.25 212.34 377.689 C 212.217 378.129 212.155 378.636 212.155 379.21 L 212.155 379.579 C 212.155 380.03 212.217 380.455 212.34 380.854 C 212.469 381.246 212.653 381.592 212.894 381.891 C 213.14 382.189 213.436 382.424 213.781 382.594 C 214.133 382.764 214.531 382.849 214.977 382.849 C 215.551 382.849 216.037 382.731 216.436 382.497 C 216.834 382.263 217.183 381.949 217.481 381.557 L 218.466 382.339 C 218.261 382.649 218 382.945 217.684 383.227 C 217.367 383.508 216.978 383.736 216.515 383.912 C 216.058 384.088 215.516 384.176 214.889 384.176 Z M 228.934 374.49 L 228.934 375.738 L 223.792 375.738 L 223.792 374.49 L 228.934 374.49 Z M 225.532 372.179 L 227.158 372.179 L 227.158 381.645 C 227.158 381.967 227.208 382.21 227.308 382.374 C 227.407 382.538 227.536 382.646 227.694 382.699 C 227.853 382.752 228.022 382.778 228.204 382.778 C 228.339 382.778 228.479 382.767 228.626 382.743 C 228.778 382.714 228.893 382.69 228.969 382.673 L 228.978 384 C 228.849 384.041 228.679 384.079 228.468 384.114 C 228.263 384.155 228.014 384.176 227.721 384.176 C 227.322 384.176 226.956 384.097 226.622 383.938 C 226.288 383.78 226.021 383.517 225.822 383.147 C 225.629 382.772 225.532 382.269 225.532 381.636 L 225.532 372.179 Z M 232.467 370.5 L 232.467 384 L 230.841 384 L 230.841 370.5 L 232.467 370.5 Z M 232.08 378.885 L 231.403 378.858 C 231.409 378.208 231.506 377.607 231.693 377.057 C 231.881 376.5 232.145 376.017 232.484 375.606 C 232.824 375.196 233.229 374.88 233.697 374.657 C 234.172 374.429 234.696 374.314 235.271 374.314 C 235.739 374.314 236.161 374.379 236.536 374.508 C 236.911 374.631 237.23 374.83 237.494 375.105 C 237.764 375.381 237.969 375.738 238.109 376.178 C 238.25 376.611 238.32 377.142 238.32 377.769 L 238.32 384 L 236.686 384 L 236.686 377.751 C 236.686 377.253 236.612 376.854 236.466 376.556 C 236.319 376.251 236.105 376.031 235.824 375.896 C 235.543 375.756 235.197 375.686 234.787 375.686 C 234.383 375.686 234.014 375.771 233.68 375.94 C 233.352 376.11 233.067 376.345 232.827 376.644 C 232.593 376.942 232.408 377.285 232.273 377.672 C 232.145 378.053 232.08 378.457 232.08 378.885 Z M 244.701 384.176 C 244.039 384.176 243.438 384.064 242.899 383.842 C 242.366 383.613 241.906 383.294 241.52 382.884 C 241.139 382.474 240.846 381.987 240.641 381.425 C 240.436 380.862 240.333 380.247 240.333 379.579 L 240.333 379.21 C 240.333 378.437 240.447 377.748 240.676 377.145 C 240.904 376.535 241.215 376.02 241.607 375.598 C 242 375.176 242.445 374.856 242.943 374.64 C 243.441 374.423 243.957 374.314 244.49 374.314 C 245.17 374.314 245.756 374.432 246.248 374.666 C 246.746 374.9 247.153 375.229 247.47 375.65 C 247.786 376.066 248.021 376.559 248.173 377.127 C 248.325 377.689 248.401 378.305 248.401 378.973 L 248.401 379.702 L 241.3 379.702 L 241.3 378.375 L 246.775 378.375 L 246.775 378.252 C 246.752 377.83 246.664 377.42 246.512 377.021 C 246.365 376.623 246.131 376.295 245.809 376.037 C 245.486 375.779 245.047 375.65 244.49 375.65 C 244.121 375.65 243.781 375.729 243.471 375.888 C 243.16 376.04 242.894 376.269 242.671 376.573 C 242.448 376.878 242.275 377.25 242.152 377.689 C 242.029 378.129 241.968 378.636 241.968 379.21 L 241.968 379.579 C 241.968 380.03 242.029 380.455 242.152 380.854 C 242.281 381.246 242.466 381.592 242.706 381.891 C 242.952 382.189 243.248 382.424 243.594 382.594 C 243.945 382.764 244.344 382.849 244.789 382.849 C 245.363 382.849 245.85 382.731 246.248 382.497 C 246.646 382.263 246.995 381.949 247.294 381.557 L 248.278 382.339 C 248.073 382.649 247.812 382.945 247.496 383.227 C 247.18 383.508 246.79 383.736 246.327 383.912 C 245.87 384.088 245.328 384.176 244.701 384.176 Z M 260.302 381.478 C 260.302 381.243 260.249 381.026 260.144 380.827 C 260.044 380.622 259.836 380.437 259.52 380.273 C 259.209 380.104 258.74 379.957 258.113 379.834 C 257.586 379.723 257.108 379.591 256.681 379.438 C 256.259 379.286 255.898 379.102 255.6 378.885 C 255.307 378.668 255.081 378.413 254.923 378.12 C 254.765 377.827 254.686 377.484 254.686 377.092 C 254.686 376.717 254.768 376.362 254.932 376.028 C 255.102 375.694 255.339 375.398 255.644 375.141 C 255.954 374.883 256.326 374.681 256.76 374.534 C 257.193 374.388 257.677 374.314 258.21 374.314 C 258.972 374.314 259.622 374.449 260.161 374.719 C 260.7 374.988 261.113 375.349 261.4 375.8 C 261.688 376.245 261.831 376.74 261.831 377.285 L 260.205 377.285 C 260.205 377.021 260.126 376.767 259.968 376.521 C 259.815 376.269 259.59 376.061 259.291 375.896 C 258.998 375.732 258.638 375.65 258.21 375.65 C 257.759 375.65 257.393 375.721 257.111 375.861 C 256.836 375.996 256.634 376.169 256.505 376.38 C 256.382 376.591 256.32 376.813 256.32 377.048 C 256.32 377.224 256.35 377.382 256.408 377.522 C 256.473 377.657 256.584 377.783 256.742 377.9 C 256.9 378.012 257.123 378.117 257.41 378.217 C 257.697 378.316 258.063 378.416 258.509 378.516 C 259.288 378.691 259.93 378.902 260.434 379.148 C 260.938 379.395 261.312 379.696 261.559 380.054 C 261.805 380.411 261.928 380.845 261.928 381.354 C 261.928 381.771 261.84 382.151 261.664 382.497 C 261.494 382.843 261.245 383.142 260.917 383.394 C 260.595 383.64 260.208 383.833 259.757 383.974 C 259.312 384.108 258.811 384.176 258.254 384.176 C 257.416 384.176 256.707 384.026 256.127 383.728 C 255.547 383.429 255.107 383.042 254.809 382.567 C 254.51 382.093 254.36 381.592 254.36 381.064 L 255.995 381.064 C 256.019 381.51 256.147 381.864 256.382 382.128 C 256.616 382.386 256.903 382.57 257.243 382.682 C 257.583 382.787 257.92 382.84 258.254 382.84 C 258.699 382.84 259.071 382.781 259.37 382.664 C 259.675 382.547 259.906 382.386 260.064 382.181 C 260.223 381.976 260.302 381.741 260.302 381.478 Z M 268.045 374.49 L 268.045 375.738 L 262.903 375.738 L 262.903 374.49 L 268.045 374.49 Z M 264.644 372.179 L 266.27 372.179 L 266.27 381.645 C 266.27 381.967 266.319 382.21 266.419 382.374 C 266.519 382.538 266.647 382.646 266.806 382.699 C 266.964 382.752 267.134 382.778 267.315 382.778 C 267.45 382.778 267.591 382.767 267.737 382.743 C 267.89 382.714 268.004 382.69 268.08 382.673 L 268.089 384 C 267.96 384.041 267.79 384.079 267.579 384.114 C 267.374 384.155 267.125 384.176 266.832 384.176 C 266.434 384.176 266.067 384.097 265.733 383.938 C 265.399 383.78 265.133 383.517 264.934 383.147 C 264.74 382.772 264.644 382.269 264.644 381.636 L 264.644 372.179 Z M 275.56 382.374 L 275.56 377.479 C 275.56 377.104 275.483 376.778 275.331 376.503 C 275.185 376.222 274.962 376.005 274.663 375.853 C 274.364 375.7 273.995 375.624 273.556 375.624 C 273.146 375.624 272.785 375.694 272.475 375.835 C 272.17 375.976 271.93 376.16 271.754 376.389 C 271.584 376.617 271.499 376.863 271.499 377.127 L 269.873 377.127 C 269.873 376.787 269.961 376.45 270.137 376.116 C 270.312 375.782 270.564 375.48 270.893 375.211 C 271.227 374.936 271.625 374.719 272.088 374.561 C 272.557 374.396 273.078 374.314 273.652 374.314 C 274.344 374.314 274.953 374.432 275.48 374.666 C 276.014 374.9 276.43 375.255 276.729 375.729 C 277.033 376.198 277.186 376.787 277.186 377.496 L 277.186 381.926 C 277.186 382.242 277.212 382.579 277.265 382.937 C 277.323 383.294 277.408 383.602 277.52 383.859 L 277.52 384 L 275.823 384 C 275.741 383.812 275.677 383.563 275.63 383.253 C 275.583 382.937 275.56 382.644 275.56 382.374 Z M 275.841 378.234 L 275.858 379.377 L 274.215 379.377 C 273.752 379.377 273.339 379.415 272.976 379.491 C 272.612 379.562 272.308 379.67 272.062 379.816 C 271.815 379.963 271.628 380.147 271.499 380.37 C 271.37 380.587 271.306 380.842 271.306 381.135 C 271.306 381.434 271.373 381.706 271.508 381.952 C 271.643 382.198 271.845 382.395 272.114 382.541 C 272.39 382.682 272.727 382.752 273.125 382.752 C 273.623 382.752 274.062 382.646 274.443 382.436 C 274.824 382.225 275.126 381.967 275.349 381.662 C 275.577 381.357 275.7 381.062 275.718 380.774 L 276.412 381.557 C 276.371 381.803 276.26 382.075 276.078 382.374 C 275.896 382.673 275.653 382.96 275.349 383.235 C 275.05 383.505 274.692 383.73 274.276 383.912 C 273.866 384.088 273.403 384.176 272.888 384.176 C 272.243 384.176 271.678 384.05 271.191 383.798 C 270.711 383.546 270.336 383.209 270.066 382.787 C 269.803 382.359 269.671 381.882 269.671 381.354 C 269.671 380.845 269.771 380.396 269.97 380.01 C 270.169 379.617 270.456 379.292 270.831 379.034 C 271.206 378.771 271.657 378.571 272.185 378.437 C 272.712 378.302 273.301 378.234 273.951 378.234 L 275.841 378.234 Z M 283.725 374.49 L 283.725 375.738 L 278.583 375.738 L 278.583 374.49 L 283.725 374.49 Z M 280.323 372.179 L 281.949 372.179 L 281.949 381.645 C 281.949 381.967 281.999 382.21 282.099 382.374 C 282.198 382.538 282.327 382.646 282.485 382.699 C 282.644 382.752 282.813 382.778 282.995 382.778 C 283.13 382.778 283.271 382.767 283.417 382.743 C 283.569 382.714 283.684 382.69 283.76 382.673 L 283.769 384 C 283.64 384.041 283.47 384.079 283.259 384.114 C 283.054 384.155 282.805 384.176 282.512 384.176 C 282.113 384.176 281.747 384.097 281.413 383.938 C 281.079 383.78 280.812 383.517 280.613 383.147 C 280.42 382.772 280.323 382.269 280.323 381.636 L 280.323 372.179 Z M 289.578 384.176 C 288.916 384.176 288.315 384.064 287.776 383.842 C 287.243 383.613 286.783 383.294 286.396 382.884 C 286.016 382.474 285.723 381.987 285.518 381.425 C 285.312 380.862 285.21 380.247 285.21 379.579 L 285.21 379.21 C 285.21 378.437 285.324 377.748 285.553 377.145 C 285.781 376.535 286.092 376.02 286.484 375.598 C 286.877 375.176 287.322 374.856 287.82 374.64 C 288.318 374.423 288.834 374.314 289.367 374.314 C 290.047 374.314 290.633 374.432 291.125 374.666 C 291.623 374.9 292.03 375.229 292.347 375.65 C 292.663 376.066 292.897 376.559 293.05 377.127 C 293.202 377.689 293.278 378.305 293.278 378.973 L 293.278 379.702 L 286.177 379.702 L 286.177 378.375 L 291.652 378.375 L 291.652 378.252 C 291.629 377.83 291.541 377.42 291.389 377.021 C 291.242 376.623 291.008 376.295 290.686 376.037 C 290.363 375.779 289.924 375.65 289.367 375.65 C 288.998 375.65 288.658 375.729 288.348 375.888 C 288.037 376.04 287.771 376.269 287.548 376.573 C 287.325 376.878 287.152 377.25 287.029 377.689 C 286.906 378.129 286.845 378.636 286.845 379.21 L 286.845 379.579 C 286.845 380.03 286.906 380.455 287.029 380.854 C 287.158 381.246 287.343 381.592 287.583 381.891 C 287.829 382.189 288.125 382.424 288.471 382.594 C 288.822 382.764 289.221 382.849 289.666 382.849 C 290.24 382.849 290.727 382.731 291.125 382.497 C 291.523 382.263 291.872 381.949 292.171 381.557 L 293.155 382.339 C 292.95 382.649 292.689 382.945 292.373 383.227 C 292.057 383.508 291.667 383.736 291.204 383.912 C 290.747 384.088 290.205 384.176 289.578 384.176 Z M 299.211 379.351 L 299.211 379.148 C 299.211 378.463 299.311 377.827 299.51 377.241 C 299.709 376.649 299.996 376.137 300.371 375.703 C 300.746 375.264 301.2 374.924 301.733 374.684 C 302.267 374.437 302.864 374.314 303.526 374.314 C 304.194 374.314 304.795 374.437 305.328 374.684 C 305.867 374.924 306.324 375.264 306.699 375.703 C 307.08 376.137 307.37 376.649 307.569 377.241 C 307.769 377.827 307.868 378.463 307.868 379.148 L 307.868 379.351 C 307.868 380.036 307.769 380.672 307.569 381.258 C 307.37 381.844 307.08 382.356 306.699 382.796 C 306.324 383.229 305.87 383.569 305.337 383.815 C 304.81 384.056 304.212 384.176 303.544 384.176 C 302.876 384.176 302.275 384.056 301.742 383.815 C 301.209 383.569 300.752 383.229 300.371 382.796 C 299.996 382.356 299.709 381.844 299.51 381.258 C 299.311 380.672 299.211 380.036 299.211 379.351 Z M 300.837 379.148 L 300.837 379.351 C 300.837 379.825 300.893 380.273 301.004 380.695 C 301.115 381.111 301.282 381.48 301.505 381.803 C 301.733 382.125 302.018 382.38 302.357 382.567 C 302.697 382.749 303.093 382.84 303.544 382.84 C 303.989 382.84 304.379 382.749 304.713 382.567 C 305.053 382.38 305.334 382.125 305.557 381.803 C 305.779 381.48 305.946 381.111 306.058 380.695 C 306.175 380.273 306.233 379.825 306.233 379.351 L 306.233 379.148 C 306.233 378.68 306.175 378.237 306.058 377.821 C 305.946 377.399 305.776 377.027 305.548 376.705 C 305.325 376.377 305.044 376.119 304.704 375.932 C 304.37 375.744 303.978 375.65 303.526 375.65 C 303.081 375.65 302.688 375.744 302.349 375.932 C 302.015 376.119 301.733 376.377 301.505 376.705 C 301.282 377.027 301.115 377.399 301.004 377.821 C 300.893 378.237 300.837 378.68 300.837 379.148 Z M 312.333 384 L 310.707 384 L 310.707 373.488 C 310.707 372.803 310.83 372.226 311.076 371.757 C 311.328 371.282 311.688 370.925 312.157 370.685 C 312.626 370.438 313.183 370.315 313.827 370.315 C 314.015 370.315 314.202 370.327 314.39 370.351 C 314.583 370.374 314.771 370.409 314.952 370.456 L 314.864 371.783 C 314.741 371.754 314.601 371.733 314.442 371.722 C 314.29 371.71 314.138 371.704 313.985 371.704 C 313.64 371.704 313.341 371.774 313.089 371.915 C 312.843 372.05 312.655 372.249 312.526 372.513 C 312.397 372.776 312.333 373.102 312.333 373.488 L 312.333 384 Z M 314.354 374.49 L 314.354 375.738 L 309.204 375.738 L 309.204 374.49 L 314.354 374.49 Z M 326.237 382.374 L 326.237 377.479 C 326.237 377.104 326.161 376.778 326.009 376.503 C 325.862 376.222 325.64 376.005 325.341 375.853 C 325.042 375.7 324.673 375.624 324.233 375.624 C 323.823 375.624 323.463 375.694 323.152 375.835 C 322.848 375.976 322.607 376.16 322.432 376.389 C 322.262 376.617 322.177 376.863 322.177 377.127 L 320.551 377.127 C 320.551 376.787 320.639 376.45 320.814 376.116 C 320.99 375.782 321.242 375.48 321.57 375.211 C 321.904 374.936 322.303 374.719 322.766 374.561 C 323.234 374.396 323.756 374.314 324.33 374.314 C 325.021 374.314 325.631 374.432 326.158 374.666 C 326.691 374.9 327.107 375.255 327.406 375.729 C 327.711 376.198 327.863 376.787 327.863 377.496 L 327.863 381.926 C 327.863 382.242 327.89 382.579 327.942 382.937 C 328.001 383.294 328.086 383.602 328.197 383.859 L 328.197 384 L 326.501 384 C 326.419 383.812 326.354 383.563 326.308 383.253 C 326.261 382.937 326.237 382.644 326.237 382.374 Z M 326.519 378.234 L 326.536 379.377 L 324.893 379.377 C 324.43 379.377 324.017 379.415 323.653 379.491 C 323.29 379.562 322.985 379.67 322.739 379.816 C 322.493 379.963 322.306 380.147 322.177 380.37 C 322.048 380.587 321.983 380.842 321.983 381.135 C 321.983 381.434 322.051 381.706 322.186 381.952 C 322.32 382.198 322.522 382.395 322.792 382.541 C 323.067 382.682 323.404 382.752 323.803 382.752 C 324.301 382.752 324.74 382.646 325.121 382.436 C 325.502 382.225 325.804 381.967 326.026 381.662 C 326.255 381.357 326.378 381.062 326.396 380.774 L 327.09 381.557 C 327.049 381.803 326.938 382.075 326.756 382.374 C 326.574 382.673 326.331 382.96 326.026 383.235 C 325.728 383.505 325.37 383.73 324.954 383.912 C 324.544 384.088 324.081 384.176 323.565 384.176 C 322.921 384.176 322.355 384.05 321.869 383.798 C 321.389 383.546 321.014 383.209 320.744 382.787 C 320.48 382.359 320.349 381.882 320.349 381.354 C 320.349 380.845 320.448 380.396 320.647 380.01 C 320.847 379.617 321.134 379.292 321.509 379.034 C 321.884 378.771 322.335 378.571 322.862 378.437 C 323.39 378.302 323.979 378.234 324.629 378.234 L 326.519 378.234 Z" fill="#1D1B20"/>
<path d="M 340.423 381.478 C 340.423 381.243 340.37 381.026 340.265 380.827 C 340.165 380.622 339.957 380.437 339.641 380.273 C 339.33 380.104 338.861 379.957 338.234 379.834 C 337.707 379.723 337.229 379.591 336.802 379.438 C 336.38 379.286 336.02 379.102 335.721 378.885 C 335.428 378.668 335.202 378.413 335.044 378.12 C 334.886 377.827 334.807 377.484 334.807 377.092 C 334.807 376.717 334.889 376.362 335.053 376.028 C 335.223 375.694 335.46 375.398 335.765 375.141 C 336.075 374.883 336.447 374.681 336.881 374.534 C 337.314 374.388 337.798 374.314 338.331 374.314 C 339.093 374.314 339.743 374.449 340.282 374.719 C 340.821 374.988 341.234 375.349 341.521 375.8 C 341.809 376.245 341.952 376.74 341.952 377.285 L 340.326 377.285 C 340.326 377.021 340.247 376.767 340.089 376.521 C 339.937 376.269 339.711 376.061 339.412 375.896 C 339.119 375.732 338.759 375.65 338.331 375.65 C 337.88 375.65 337.514 375.721 337.232 375.861 C 336.957 375.996 336.755 376.169 336.626 376.38 C 336.503 376.591 336.441 376.813 336.441 377.048 C 336.441 377.224 336.471 377.382 336.529 377.522 C 336.594 377.657 336.705 377.783 336.863 377.9 C 337.021 378.012 337.244 378.117 337.531 378.217 C 337.818 378.316 338.185 378.416 338.63 378.516 C 339.409 378.691 340.051 378.902 340.555 379.148 C 341.059 379.395 341.434 379.696 341.68 380.054 C 341.926 380.411 342.049 380.845 342.049 381.354 C 342.049 381.771 341.961 382.151 341.785 382.497 C 341.615 382.843 341.366 383.142 341.038 383.394 C 340.716 383.64 340.329 383.833 339.878 383.974 C 339.433 384.108 338.932 384.176 338.375 384.176 C 337.537 384.176 336.828 384.026 336.248 383.728 C 335.668 383.429 335.229 383.042 334.93 382.567 C 334.631 382.093 334.481 381.592 334.481 381.064 L 336.116 381.064 C 336.14 381.51 336.269 381.864 336.503 382.128 C 336.737 382.386 337.024 382.57 337.364 382.682 C 337.704 382.787 338.041 382.84 338.375 382.84 C 338.82 382.84 339.192 382.781 339.491 382.664 C 339.796 382.547 340.027 382.386 340.186 382.181 C 340.344 381.976 340.423 381.741 340.423 381.478 Z M 345.951 374.49 L 345.951 384 L 344.316 384 L 344.316 374.49 L 345.951 374.49 Z M 344.193 371.968 C 344.193 371.704 344.272 371.481 344.431 371.3 C 344.595 371.118 344.835 371.027 345.151 371.027 C 345.462 371.027 345.699 371.118 345.863 371.3 C 346.033 371.481 346.118 371.704 346.118 371.968 C 346.118 372.22 346.033 372.437 345.863 372.618 C 345.699 372.794 345.462 372.882 345.151 372.882 C 344.835 372.882 344.595 372.794 344.431 372.618 C 344.272 372.437 344.193 372.22 344.193 371.968 Z M 350.188 376.521 L 350.188 384 L 348.562 384 L 348.562 374.49 L 350.1 374.49 L 350.188 376.521 Z M 349.801 378.885 L 349.124 378.858 C 349.13 378.208 349.227 377.607 349.414 377.057 C 349.602 376.5 349.865 376.017 350.205 375.606 C 350.545 375.196 350.949 374.88 351.418 374.657 C 351.893 374.429 352.417 374.314 352.991 374.314 C 353.46 374.314 353.882 374.379 354.257 374.508 C 354.632 374.631 354.951 374.83 355.215 375.105 C 355.484 375.381 355.689 375.738 355.83 376.178 C 355.971 376.611 356.041 377.142 356.041 377.769 L 356.041 384 L 354.406 384 L 354.406 377.751 C 354.406 377.253 354.333 376.854 354.187 376.556 C 354.04 376.251 353.826 376.031 353.545 375.896 C 353.264 375.756 352.918 375.686 352.508 375.686 C 352.104 375.686 351.734 375.771 351.4 375.94 C 351.072 376.11 350.788 376.345 350.548 376.644 C 350.313 376.942 350.129 377.285 349.994 377.672 C 349.865 378.053 349.801 378.457 349.801 378.885 Z M 364.672 374.49 L 366.148 374.49 L 366.148 383.798 C 366.148 384.636 365.979 385.351 365.639 385.942 C 365.299 386.534 364.824 386.982 364.215 387.287 C 363.611 387.598 362.914 387.753 362.123 387.753 C 361.795 387.753 361.408 387.7 360.963 387.595 C 360.523 387.495 360.09 387.322 359.662 387.076 C 359.24 386.836 358.886 386.511 358.599 386.101 L 359.451 385.134 C 359.85 385.614 360.266 385.948 360.699 386.136 C 361.139 386.323 361.572 386.417 362 386.417 C 362.516 386.417 362.961 386.32 363.336 386.127 C 363.711 385.934 364.001 385.646 364.206 385.266 C 364.417 384.891 364.522 384.428 364.522 383.877 L 364.522 376.582 L 364.672 374.49 Z M 358.124 379.351 L 358.124 379.166 C 358.124 378.439 358.209 377.78 358.379 377.188 C 358.555 376.591 358.804 376.078 359.126 375.65 C 359.454 375.223 359.85 374.895 360.312 374.666 C 360.775 374.432 361.297 374.314 361.877 374.314 C 362.475 374.314 362.996 374.42 363.441 374.631 C 363.893 374.836 364.273 375.138 364.584 375.536 C 364.9 375.929 365.149 376.403 365.331 376.96 C 365.513 377.517 365.639 378.146 365.709 378.85 L 365.709 379.658 C 365.645 380.355 365.519 380.982 365.331 381.539 C 365.149 382.096 364.9 382.57 364.584 382.963 C 364.273 383.355 363.893 383.657 363.441 383.868 C 362.99 384.073 362.463 384.176 361.859 384.176 C 361.291 384.176 360.775 384.056 360.312 383.815 C 359.855 383.575 359.463 383.238 359.135 382.805 C 358.807 382.371 358.555 381.861 358.379 381.275 C 358.209 380.684 358.124 380.042 358.124 379.351 Z M 359.75 379.166 L 359.75 379.351 C 359.75 379.825 359.797 380.271 359.891 380.687 C 359.99 381.103 360.14 381.469 360.339 381.785 C 360.544 382.102 360.805 382.351 361.121 382.532 C 361.438 382.708 361.815 382.796 362.255 382.796 C 362.794 382.796 363.239 382.682 363.591 382.453 C 363.942 382.225 364.221 381.923 364.426 381.548 C 364.637 381.173 364.801 380.766 364.918 380.326 L 364.918 378.208 C 364.854 377.886 364.754 377.575 364.619 377.276 C 364.49 376.972 364.32 376.702 364.109 376.468 C 363.904 376.228 363.649 376.037 363.345 375.896 C 363.04 375.756 362.683 375.686 362.272 375.686 C 361.827 375.686 361.443 375.779 361.121 375.967 C 360.805 376.148 360.544 376.4 360.339 376.723 C 360.14 377.039 359.99 377.408 359.891 377.83 C 359.797 378.246 359.75 378.691 359.75 379.166 Z M 370.385 370.5 L 370.385 384 L 368.75 384 L 368.75 370.5 L 370.385 370.5 Z M 376.941 384.176 C 376.279 384.176 375.679 384.064 375.14 383.842 C 374.606 383.613 374.146 383.294 373.76 382.884 C 373.379 382.474 373.086 381.987 372.881 381.425 C 372.676 380.862 372.573 380.247 372.573 379.579 L 372.573 379.21 C 372.573 378.437 372.688 377.748 372.916 377.145 C 373.145 376.535 373.455 376.02 373.848 375.598 C 374.24 375.176 374.686 374.856 375.184 374.64 C 375.682 374.423 376.197 374.314 376.73 374.314 C 377.41 374.314 377.996 374.432 378.488 374.666 C 378.986 374.9 379.394 375.229 379.71 375.65 C 380.026 376.066 380.261 376.559 380.413 377.127 C 380.565 377.689 380.642 378.305 380.642 378.973 L 380.642 379.702 L 373.54 379.702 L 373.54 378.375 L 379.016 378.375 L 379.016 378.252 C 378.992 377.83 378.904 377.42 378.752 377.021 C 378.605 376.623 378.371 376.295 378.049 376.037 C 377.727 375.779 377.287 375.65 376.73 375.65 C 376.361 375.65 376.021 375.729 375.711 375.888 C 375.4 376.04 375.134 376.269 374.911 376.573 C 374.688 376.878 374.516 377.25 374.393 377.689 C 374.27 378.129 374.208 378.636 374.208 379.21 L 374.208 379.579 C 374.208 380.03 374.27 380.455 374.393 380.854 C 374.521 381.246 374.706 381.592 374.946 381.891 C 375.192 382.189 375.488 382.424 375.834 382.594 C 376.186 382.764 376.584 382.849 377.029 382.849 C 377.604 382.849 378.09 382.731 378.488 382.497 C 378.887 382.263 379.235 381.949 379.534 381.557 L 380.519 382.339 C 380.313 382.649 380.053 382.945 379.736 383.227 C 379.42 383.508 379.03 383.736 378.567 383.912 C 378.11 384.088 377.568 384.176 376.941 384.176 Z M 388.771 374.49 L 388.771 384 L 387.137 384 L 387.137 374.49 L 388.771 374.49 Z M 387.014 371.968 C 387.014 371.704 387.093 371.481 387.251 371.3 C 387.415 371.118 387.655 371.027 387.972 371.027 C 388.282 371.027 388.52 371.118 388.684 371.3 C 388.854 371.481 388.938 371.704 388.938 371.968 C 388.938 372.22 388.854 372.437 388.684 372.618 C 388.52 372.794 388.282 372.882 387.972 372.882 C 387.655 372.882 387.415 372.794 387.251 372.618 C 387.093 372.437 387.014 372.22 387.014 371.968 Z M 395.363 374.49 L 395.363 375.738 L 390.222 375.738 L 390.222 374.49 L 395.363 374.49 Z M 391.962 372.179 L 393.588 372.179 L 393.588 381.645 C 393.588 381.967 393.638 382.21 393.737 382.374 C 393.837 382.538 393.966 382.646 394.124 382.699 C 394.282 382.752 394.452 382.778 394.634 382.778 C 394.769 382.778 394.909 382.767 395.056 382.743 C 395.208 382.714 395.322 382.69 395.398 382.673 L 395.407 384 C 395.278 384.041 395.108 384.079 394.897 384.114 C 394.692 384.155 394.443 384.176 394.15 384.176 C 393.752 384.176 393.386 384.097 393.052 383.938 C 392.718 383.78 392.451 383.517 392.252 383.147 C 392.059 382.772 391.962 382.269 391.962 381.636 L 391.962 372.179 Z M 401.217 384.176 C 400.555 384.176 399.954 384.064 399.415 383.842 C 398.882 383.613 398.422 383.294 398.035 382.884 C 397.654 382.474 397.361 381.987 397.156 381.425 C 396.951 380.862 396.849 380.247 396.849 379.579 L 396.849 379.21 C 396.849 378.437 396.963 377.748 397.191 377.145 C 397.42 376.535 397.73 376.02 398.123 375.598 C 398.516 375.176 398.961 374.856 399.459 374.64 C 399.957 374.423 400.473 374.314 401.006 374.314 C 401.686 374.314 402.271 374.432 402.764 374.666 C 403.262 374.9 403.669 375.229 403.985 375.65 C 404.302 376.066 404.536 376.559 404.688 377.127 C 404.841 377.689 404.917 378.305 404.917 378.973 L 404.917 379.702 L 397.815 379.702 L 397.815 378.375 L 403.291 378.375 L 403.291 378.252 C 403.268 377.83 403.18 377.42 403.027 377.021 C 402.881 376.623 402.646 376.295 402.324 376.037 C 402.002 375.779 401.562 375.65 401.006 375.65 C 400.637 375.65 400.297 375.729 399.986 375.888 C 399.676 376.04 399.409 376.269 399.187 376.573 C 398.964 376.878 398.791 377.25 398.668 377.689 C 398.545 378.129 398.483 378.636 398.483 379.21 L 398.483 379.579 C 398.483 380.03 398.545 380.455 398.668 380.854 C 398.797 381.246 398.981 381.592 399.222 381.891 C 399.468 382.189 399.764 382.424 400.109 382.594 C 400.461 382.764 400.859 382.849 401.305 382.849 C 401.879 382.849 402.365 382.731 402.764 382.497 C 403.162 382.263 403.511 381.949 403.81 381.557 L 404.794 382.339 C 404.589 382.649 404.328 382.945 404.012 383.227 C 403.695 383.508 403.306 383.736 402.843 383.912 C 402.386 384.088 401.844 384.176 401.217 384.176 Z M 408.433 376.38 L 408.433 384 L 406.798 384 L 406.798 374.49 L 408.345 374.49 L 408.433 376.38 Z M 408.099 378.885 L 407.343 378.858 C 407.349 378.208 407.434 377.607 407.598 377.057 C 407.762 376.5 408.005 376.017 408.327 375.606 C 408.649 375.196 409.051 374.88 409.531 374.657 C 410.012 374.429 410.568 374.314 411.201 374.314 C 411.646 374.314 412.057 374.379 412.432 374.508 C 412.807 374.631 413.132 374.827 413.407 375.097 C 413.683 375.366 413.896 375.712 414.049 376.134 C 414.201 376.556 414.277 377.065 414.277 377.663 L 414.277 384 L 412.651 384 L 412.651 377.742 C 412.651 377.244 412.566 376.846 412.396 376.547 C 412.232 376.248 411.998 376.031 411.693 375.896 C 411.389 375.756 411.031 375.686 410.621 375.686 C 410.141 375.686 409.739 375.771 409.417 375.94 C 409.095 376.11 408.837 376.345 408.644 376.644 C 408.45 376.942 408.31 377.285 408.222 377.672 C 408.14 378.053 408.099 378.457 408.099 378.885 Z M 414.26 377.988 L 413.17 378.322 C 413.176 377.801 413.261 377.3 413.425 376.819 C 413.595 376.339 413.838 375.911 414.154 375.536 C 414.477 375.161 414.872 374.865 415.341 374.648 C 415.81 374.426 416.346 374.314 416.949 374.314 C 417.459 374.314 417.91 374.382 418.303 374.517 C 418.701 374.651 419.035 374.859 419.305 375.141 C 419.58 375.416 419.788 375.771 419.929 376.204 C 420.069 376.638 420.14 377.153 420.14 377.751 L 420.14 384 L 418.505 384 L 418.505 377.733 C 418.505 377.2 418.42 376.787 418.25 376.494 C 418.086 376.195 417.852 375.987 417.547 375.87 C 417.248 375.747 416.891 375.686 416.475 375.686 C 416.117 375.686 415.801 375.747 415.525 375.87 C 415.25 375.993 415.019 376.163 414.831 376.38 C 414.644 376.591 414.5 376.834 414.4 377.109 C 414.307 377.385 414.26 377.678 414.26 377.988 Z M 426.635 379.351 L 426.635 379.148 C 426.635 378.463 426.734 377.827 426.934 377.241 C 427.133 376.649 427.42 376.137 427.795 375.703 C 428.17 375.264 428.624 374.924 429.157 374.684 C 429.69 374.437 430.288 374.314 430.95 374.314 C 431.618 374.314 432.219 374.437 432.752 374.684 C 433.291 374.924 433.748 375.264 434.123 375.703 C 434.504 376.137 434.794 376.649 434.993 377.241 C 435.192 377.827 435.292 378.463 435.292 379.148 L 435.292 379.351 C 435.292 380.036 435.192 380.672 434.993 381.258 C 434.794 381.844 434.504 382.356 434.123 382.796 C 433.748 383.229 433.294 383.569 432.761 383.815 C 432.233 384.056 431.636 384.176 430.968 384.176 C 430.3 384.176 429.699 384.056 429.166 383.815 C 428.633 383.569 428.176 383.229 427.795 382.796 C 427.42 382.356 427.133 381.844 426.934 381.258 C 426.734 380.672 426.635 380.036 426.635 379.351 Z M 428.261 379.148 L 428.261 379.351 C 428.261 379.825 428.316 380.273 428.428 380.695 C 428.539 381.111 428.706 381.48 428.929 381.803 C 429.157 382.125 429.441 382.38 429.781 382.567 C 430.121 382.749 430.517 382.84 430.968 382.84 C 431.413 382.84 431.803 382.749 432.137 382.567 C 432.477 382.38 432.758 382.125 432.98 381.803 C 433.203 381.48 433.37 381.111 433.481 380.695 C 433.599 380.273 433.657 379.825 433.657 379.351 L 433.657 379.148 C 433.657 378.68 433.599 378.237 433.481 377.821 C 433.37 377.399 433.2 377.027 432.972 376.705 C 432.749 376.377 432.468 376.119 432.128 375.932 C 431.794 375.744 431.401 375.65 430.95 375.65 C 430.505 375.65 430.112 375.744 429.772 375.932 C 429.438 376.119 429.157 376.377 428.929 376.705 C 428.706 377.027 428.539 377.399 428.428 377.821 C 428.316 378.237 428.261 378.68 428.261 379.148 Z M 438.957 376.521 L 438.957 384 L 437.331 384 L 437.331 374.49 L 438.869 374.49 L 438.957 376.521 Z M 438.57 378.885 L 437.894 378.858 C 437.899 378.208 437.996 377.607 438.184 377.057 C 438.371 376.5 438.635 376.017 438.975 375.606 C 439.314 375.196 439.719 374.88 440.188 374.657 C 440.662 374.429 441.187 374.314 441.761 374.314 C 442.229 374.314 442.651 374.379 443.026 374.508 C 443.401 374.631 443.721 374.83 443.984 375.105 C 444.254 375.381 444.459 375.738 444.6 376.178 C 444.74 376.611 444.811 377.142 444.811 377.769 L 444.811 384 L 443.176 384 L 443.176 377.751 C 443.176 377.253 443.103 376.854 442.956 376.556 C 442.81 376.251 442.596 376.031 442.314 375.896 C 442.033 375.756 441.688 375.686 441.277 375.686 C 440.873 375.686 440.504 375.771 440.17 375.94 C 439.842 376.11 439.558 376.345 439.317 376.644 C 439.083 376.942 438.898 377.285 438.764 377.672 C 438.635 378.053 438.57 378.457 438.57 378.885 Z M 451.314 379.351 L 451.314 379.148 C 451.314 378.463 451.414 377.827 451.613 377.241 C 451.812 376.649 452.1 376.137 452.475 375.703 C 452.85 375.264 453.304 374.924 453.837 374.684 C 454.37 374.437 454.968 374.314 455.63 374.314 C 456.298 374.314 456.898 374.437 457.432 374.684 C 457.971 374.924 458.428 375.264 458.803 375.703 C 459.184 376.137 459.474 376.649 459.673 377.241 C 459.872 377.827 459.972 378.463 459.972 379.148 L 459.972 379.351 C 459.972 380.036 459.872 380.672 459.673 381.258 C 459.474 381.844 459.184 382.356 458.803 382.796 C 458.428 383.229 457.974 383.569 457.44 383.815 C 456.913 384.056 456.315 384.176 455.647 384.176 C 454.979 384.176 454.379 384.056 453.846 383.815 C 453.312 383.569 452.855 383.229 452.475 382.796 C 452.1 382.356 451.812 381.844 451.613 381.258 C 451.414 380.672 451.314 380.036 451.314 379.351 Z M 452.94 379.148 L 452.94 379.351 C 452.94 379.825 452.996 380.273 453.107 380.695 C 453.219 381.111 453.386 381.48 453.608 381.803 C 453.837 382.125 454.121 382.38 454.461 382.567 C 454.801 382.749 455.196 382.84 455.647 382.84 C 456.093 382.84 456.482 382.749 456.816 382.567 C 457.156 382.38 457.438 382.125 457.66 381.803 C 457.883 381.48 458.05 381.111 458.161 380.695 C 458.278 380.273 458.337 379.825 458.337 379.351 L 458.337 379.148 C 458.337 378.68 458.278 378.237 458.161 377.821 C 458.05 377.399 457.88 377.027 457.651 376.705 C 457.429 376.377 457.147 376.119 456.808 375.932 C 456.474 375.744 456.081 375.65 455.63 375.65 C 455.185 375.65 454.792 375.744 454.452 375.932 C 454.118 376.119 453.837 376.377 453.608 376.705 C 453.386 377.027 453.219 377.399 453.107 377.821 C 452.996 378.237 452.94 378.68 452.94 379.148 Z M 463.637 375.984 L 463.637 384 L 462.011 384 L 462.011 374.49 L 463.593 374.49 L 463.637 375.984 Z M 466.607 374.437 L 466.599 375.949 C 466.464 375.92 466.335 375.902 466.212 375.896 C 466.095 375.885 465.96 375.879 465.808 375.879 C 465.433 375.879 465.102 375.937 464.814 376.055 C 464.527 376.172 464.284 376.336 464.085 376.547 C 463.886 376.758 463.728 377.01 463.61 377.303 C 463.499 377.59 463.426 377.906 463.391 378.252 L 462.934 378.516 C 462.934 377.941 462.989 377.402 463.101 376.898 C 463.218 376.395 463.396 375.949 463.637 375.562 C 463.877 375.17 464.182 374.865 464.551 374.648 C 464.926 374.426 465.371 374.314 465.887 374.314 C 466.004 374.314 466.139 374.329 466.291 374.358 C 466.443 374.382 466.549 374.408 466.607 374.437 Z" fill="#1D1B20"/>
<path d="M 472.145 379.351 L 472.145 379.148 C 472.145 378.463 472.244 377.827 472.443 377.241 C 472.643 376.649 472.93 376.137 473.305 375.703 C 473.68 375.264 474.134 374.924 474.667 374.684 C 475.2 374.437 475.798 374.314 476.46 374.314 C 477.128 374.314 477.729 374.437 478.262 374.684 C 478.801 374.924 479.258 375.264 479.633 375.703 C 480.014 376.137 480.304 376.649 480.503 377.241 C 480.702 377.827 480.802 378.463 480.802 379.148 L 480.802 379.351 C 480.802 380.036 480.702 380.672 480.503 381.258 C 480.304 381.844 480.014 382.356 479.633 382.796 C 479.258 383.229 478.804 383.569 478.271 383.815 C 477.743 384.056 477.146 384.176 476.478 384.176 C 475.81 384.176 475.209 384.056 474.676 383.815 C 474.143 383.569 473.686 383.229 473.305 382.796 C 472.93 382.356 472.643 381.844 472.443 381.258 C 472.244 380.672 472.145 380.036 472.145 379.351 Z M 473.771 379.148 L 473.771 379.351 C 473.771 379.825 473.826 380.273 473.938 380.695 C 474.049 381.111 474.216 381.48 474.438 381.803 C 474.667 382.125 474.951 382.38 475.291 382.567 C 475.631 382.749 476.026 382.84 476.478 382.84 C 476.923 382.84 477.312 382.749 477.646 382.567 C 477.986 382.38 478.268 382.125 478.49 381.803 C 478.713 381.48 478.88 381.111 478.991 380.695 C 479.108 380.273 479.167 379.825 479.167 379.351 L 479.167 379.148 C 479.167 378.68 479.108 378.237 478.991 377.821 C 478.88 377.399 478.71 377.027 478.481 376.705 C 478.259 376.377 477.978 376.119 477.638 375.932 C 477.304 375.744 476.911 375.65 476.46 375.65 C 476.015 375.65 475.622 375.744 475.282 375.932 C 474.948 376.119 474.667 376.377 474.438 376.705 C 474.216 377.027 474.049 377.399 473.938 377.821 C 473.826 378.237 473.771 378.68 473.771 379.148 Z M 485.267 384 L 483.641 384 L 483.641 373.488 C 483.641 372.803 483.764 372.226 484.01 371.757 C 484.262 371.282 484.622 370.925 485.091 370.685 C 485.56 370.438 486.116 370.315 486.761 370.315 C 486.948 370.315 487.136 370.327 487.323 370.351 C 487.517 370.374 487.704 370.409 487.886 370.456 L 487.798 371.783 C 487.675 371.754 487.534 371.733 487.376 371.722 C 487.224 371.71 487.071 371.704 486.919 371.704 C 486.573 371.704 486.274 371.774 486.022 371.915 C 485.776 372.05 485.589 372.249 485.46 372.513 C 485.331 372.776 485.267 373.102 485.267 373.488 L 485.267 384 Z M 487.288 374.49 L 487.288 375.738 L 482.138 375.738 L 482.138 374.49 L 487.288 374.49 Z M 491.524 384 L 489.898 384 L 489.898 373.488 C 489.898 372.803 490.021 372.226 490.268 371.757 C 490.52 371.282 490.88 370.925 491.349 370.685 C 491.817 370.438 492.374 370.315 493.019 370.315 C 493.206 370.315 493.394 370.327 493.581 370.351 C 493.774 370.374 493.962 370.409 494.144 370.456 L 494.056 371.783 C 493.933 371.754 493.792 371.733 493.634 371.722 C 493.481 371.71 493.329 371.704 493.177 371.704 C 492.831 371.704 492.532 371.774 492.28 371.915 C 492.034 372.05 491.847 372.249 491.718 372.513 C 491.589 372.776 491.524 373.102 491.524 373.488 L 491.524 384 Z M 493.546 374.49 L 493.546 375.738 L 488.396 375.738 L 488.396 374.49 L 493.546 374.49 Z M 495.383 383.139 C 495.383 382.863 495.468 382.632 495.638 382.444 C 495.813 382.251 496.065 382.154 496.394 382.154 C 496.722 382.154 496.971 382.251 497.141 382.444 C 497.316 382.632 497.404 382.863 497.404 383.139 C 497.404 383.408 497.316 383.637 497.141 383.824 C 496.971 384.012 496.722 384.105 496.394 384.105 C 496.065 384.105 495.813 384.012 495.638 383.824 C 495.468 383.637 495.383 383.408 495.383 383.139 Z" fill="#1D1B20"/>
<line x1="92" y1="450.5" x2="660" y2="450.5" stroke="#CAC4D0"/>
<g opacity="0.3">
<path d="M619.188 345.019C692.578 330.959 780.487 342.349 837.604 279.526C884.35 228.092 894.72 143.2 883.552 75.2153C877.649 39.0872 868.395 2.24699 848.93 -28.542C824.042 -68.2295 788.305 -83.5347 745.866 -92.7892C696.408 -103.467 639.77 -109.341 589.514 -107.739C542.608 -106.137 483.895 -106.494 437.308 -101.333C404.123 -97.5951 347.964 -90.6542 317.492 -75.7047C251.281 -43.314 218.255 5.6286 205.97 96.2158C196.238 167.048 199.908 272.585 269.309 307.823C299.463 323.129 333.924 325.264 366.95 327.4C415.929 330.781 451.668 333.807 470.494 348.578C494.585 367.265 493.149 412.469 489.001 438.275C485.65 459.276 473.046 475.827 456.773 487.217C434.756 502.701 409.069 510.709 384.021 519.252C369.343 524.235 354.027 527.617 339.508 533.668C330.414 537.406 321.639 542.388 314.619 549.863C310.471 554.135 307.28 559.474 305.685 565.525C304.568 569.974 304.728 579.228 309.195 582.076C319.565 588.661 330.893 586.347 342.221 586.347C359.93 586.347 377.639 586.347 395.348 586.347C422.79 586.347 450.391 586.17 477.833 585.814C531.758 585.102 585.843 584.211 639.769 584.033H645.832C664.179 584.033 699.12 584.034 709.969 577.983C722.892 570.508 728.794 553.422 698.321 534.024C674.868 519.074 642.481 508.574 617.912 494.693C601.798 485.438 583.769 472.98 577.866 453.047C566.539 414.961 573.718 353.739 619.029 345.019H619.188Z" fill="#EADDFF"/>
</g>
</g>
<defs>
<clipPath id="clip0_55141_14257">
<path d="M40 68C40 52.536 52.536 40 68 40H684C699.464 40 712 52.536 712 68V451H40V68Z" fill="white"/>
</clipPath>
<clipPath id="clip1_55141_14257">
<rect width="40" height="40" fill="white" transform="translate(92 92)"/>
</clipPath>
</defs>
</svg>
