<?xml version="1.0" encoding="UTF-8" ?>
<!DOCTYPE svg PUBLIC "-//W3C//DTD SVG 1.1//EN" "http://www.w3.org/Graphics/SVG/1.1/DTD/svg11.dtd">
<svg width="96pt" height="96pt" viewBox="0 0 96 96" version="1.1" xmlns="http://www.w3.org/2000/svg">
<g id="#acacace9">
<path fill="#acacac" opacity="0.91" d=" M 28.29 20.26 C 30.11 18.53 32.77 19.03 35.04 19.01 C 48.50 20.09 61.59 24.35 73.54 30.54 C 77.81 32.76 82.84 36.50 81.03 42.05 C 81.40 42.40 82.14 43.10 82.51 43.45 C 82.15 43.54 81.44 43.71 81.09 43.80 C 64.08 33.69 44.71 27.17 24.94 25.64 C 19.85 24.63 17.59 30.07 15.19 33.44 C 18.25 33.56 21.30 33.86 24.29 34.47 C 20.80 34.84 17.29 34.66 13.79 34.84 C 13.83 36.20 14.37 37.45 14.83 38.71 C 13.59 37.68 11.67 36.32 12.34 34.47 C 14.69 31.46 16.85 28.28 19.39 25.42 C 21.25 24.09 23.67 24.17 25.86 24.19 C 26.63 22.86 27.32 21.47 28.29 20.26 M 27.45 24.25 C 45.19 26.51 62.65 31.92 78.35 40.59 C 78.78 40.67 79.64 40.82 80.07 40.90 C 80.42 38.52 79.16 36.17 77.30 34.74 C 72.80 31.16 67.37 29.05 62.09 26.91 C 52.51 23.20 42.36 20.46 32.03 20.39 C 29.52 20.02 28.42 22.43 27.45 24.25 Z" />
</g>
<g id="#ffffffff">
<path fill="#ffffff" opacity="1.00" d=" M 27.45 24.25 C 28.42 22.43 29.52 20.02 32.03 20.39 C 42.36 20.46 52.51 23.20 62.09 26.91 C 67.37 29.05 72.80 31.16 77.30 34.74 C 79.16 36.17 80.42 38.52 80.07 40.90 C 79.64 40.82 78.78 40.67 78.35 40.59 C 62.65 31.92 45.19 26.51 27.45 24.25 Z" />
<path fill="#ffffff" opacity="1.00" d=" M 15.19 33.44 C 17.59 30.07 19.85 24.63 24.94 25.64 C 44.71 27.17 64.08 33.69 81.09 43.80 C 81.44 43.71 82.15 43.54 82.51 43.45 C 82.85 43.75 83.20 44.05 83.53 44.36 C 83.52 48.00 84.85 51.60 84.30 55.35 C 76.18 50.36 67.27 46.87 58.31 43.73 C 47.20 39.91 35.88 36.52 24.29 34.47 C 21.30 33.86 18.25 33.56 15.19 33.44 Z" />
<path fill="#ffffff" opacity="1.00" d=" M 11.46 68.99 C 13.85 65.15 18.28 63.01 22.62 62.31 C 21.39 64.79 20.37 67.38 19.74 70.08 C 17.89 70.58 16.00 71.10 14.49 72.34 C 13.21 71.49 12.37 70.18 11.46 68.99 Z" />
<path fill="#ffffff" opacity="1.00" d=" M 13.31 73.26 C 16.65 75.30 20.21 77.00 24.01 77.96 C 35.13 80.85 46.73 81.02 58.14 80.41 C 58.09 83.50 57.84 86.58 57.47 89.65 C 51.12 83.61 39.22 87.22 37.71 96.00 L 18.82 96.00 C 18.28 88.19 14.42 80.98 13.31 73.26 Z" />
</g>
<g id="#9b9b9bff">
<path fill="#9b9b9b" opacity="1.00" d=" M 13.79 34.84 C 17.29 34.66 20.80 34.84 24.29 34.47 C 35.88 36.52 47.20 39.91 58.31 43.73 C 67.27 46.87 76.18 50.36 84.30 55.35 C 84.85 51.60 83.52 48.00 83.53 44.36 C 83.89 44.78 84.59 45.61 84.94 46.03 C 85.76 50.19 85.87 54.66 85.65 58.80 C 81.12 60.96 75.92 58.94 71.20 58.54 C 64.38 49.65 52.52 45.44 41.61 47.71 C 41.17 46.35 40.86 44.88 39.90 43.77 C 39.17 43.76 37.71 43.75 36.98 43.74 C 33.86 39.61 26.96 38.67 23.92 43.40 C 20.74 42.15 17.72 40.52 14.83 38.71 C 14.37 37.45 13.83 36.20 13.79 34.84 Z" />
<path fill="#9b9b9b" opacity="1.00" d=" M 11.12 67.15 C 13.95 62.76 19.54 62.09 23.88 59.98 C 23.45 60.75 23.03 61.53 22.62 62.31 C 18.28 63.01 13.85 65.15 11.46 68.99 C 12.37 70.18 13.21 71.49 14.49 72.34 C 15.98 73.23 17.55 73.97 19.12 74.71 C 19.55 74.91 20.39 75.31 20.82 75.51 C 34.93 80.51 50.46 80.24 65.14 78.35 C 69.12 77.62 73.20 76.98 76.91 75.27 C 78.81 74.23 80.82 73.36 82.53 72.02 C 83.45 71.22 84.38 70.24 84.51 68.96 C 82.26 65.41 78.40 62.78 74.22 62.26 L 73.70 62.73 C 73.20 61.74 72.66 60.78 72.10 59.82 C 76.96 62.41 85.30 63.17 85.78 70.09 C 83.74 78.64 82.53 87.38 80.80 96.00 L 80.11 96.00 C 80.32 88.58 82.71 81.36 83.11 74.01 C 79.13 75.76 75.12 77.43 70.87 78.41 C 69.21 78.69 67.57 79.05 65.93 79.41 C 63.33 79.71 60.74 80.13 58.14 80.41 C 46.73 81.02 35.13 80.85 24.01 77.96 C 20.21 77.00 16.65 75.30 13.31 73.26 C 14.42 80.98 18.28 88.19 18.82 96.00 L 18.15 96.00 C 15.88 88.56 13.91 81.03 11.70 73.56 C 11.13 71.46 9.46 69.20 11.12 67.15 Z" />
</g>
<g id="#f5ad2efe">
<path fill="#f5ad2e" opacity="1.00" d=" M 23.92 43.40 C 26.96 38.67 33.86 39.61 36.98 43.74 C 37.71 43.75 39.17 43.76 39.90 43.77 C 40.86 44.88 41.17 46.35 41.61 47.71 C 52.52 45.44 64.38 49.65 71.20 58.54 L 72.10 59.82 C 72.66 60.78 73.20 61.74 73.70 62.73 C 74.87 65.03 75.75 67.46 76.47 69.94 C 76.77 71.70 76.86 73.48 76.91 75.27 C 74.65 75.03 75.22 72.60 74.78 71.01 C 73.27 65.89 71.92 59.85 66.84 57.04 C 62.61 53.98 58.35 50.46 53.01 49.67 C 49.47 49.46 45.93 49.63 42.39 49.58 C 42.53 54.08 42.88 58.63 41.84 63.06 C 40.90 64.78 40.89 67.61 38.75 68.22 C 39.12 64.38 41.25 60.85 40.97 56.90 C 40.84 52.97 41.33 48.24 38.61 45.09 C 38.22 45.61 37.44 46.66 37.05 47.19 C 35.57 44.91 34.09 41.91 30.96 41.81 C 28.04 41.05 24.10 43.59 25.26 46.87 C 26.82 49.81 28.72 52.68 28.92 56.12 C 28.57 59.22 27.99 62.50 25.77 64.86 L 24.88 63.92 C 25.41 62.27 26.12 60.69 26.78 59.08 C 22.91 63.71 21.58 69.69 20.82 75.51 C 20.39 75.31 19.55 74.91 19.12 74.71 C 19.21 73.15 19.44 71.60 19.74 70.08 C 20.37 67.38 21.39 64.79 22.62 62.31 C 23.03 61.53 23.45 60.75 23.88 59.98 C 24.77 58.21 26.72 57.01 27.19 55.07 C 26.89 50.89 22.35 47.85 23.92 43.40 Z" />
</g>
<g id="#fde69dff">
<path fill="#fde69d" opacity="1.00" d=" M 25.26 46.87 C 24.10 43.59 28.04 41.05 30.96 41.81 C 34.09 41.91 35.57 44.91 37.05 47.19 C 37.44 46.66 38.22 45.61 38.61 45.09 C 41.33 48.24 40.84 52.97 40.97 56.90 C 36.95 56.77 32.83 57.35 28.92 56.12 C 28.72 52.68 26.82 49.81 25.26 46.87 Z" />
</g>
<g id="#feeaa9ff">
<path fill="#feeaa9" opacity="1.00" d=" M 42.39 49.58 C 45.93 49.63 49.47 49.46 53.01 49.67 C 58.35 50.46 62.61 53.98 66.84 57.04 C 67.54 58.26 68.20 59.51 68.88 60.74 C 67.05 60.92 65.05 60.67 63.48 61.82 C 61.92 62.80 60.34 63.89 58.43 63.92 C 58.54 63.50 58.76 62.65 58.88 62.22 L 59.15 61.17 C 56.23 58.79 52.33 59.26 48.91 59.96 C 46.14 59.76 43.99 61.60 41.84 63.06 C 42.88 58.63 42.53 54.08 42.39 49.58 Z" />
</g>
<g id="#fee086ff">
<path fill="#fee086" opacity="1.00" d=" M 28.92 56.12 C 32.83 57.35 36.95 56.77 40.97 56.90 C 41.25 60.85 39.12 64.38 38.75 68.22 C 40.89 67.61 40.90 64.78 41.84 63.06 C 43.99 61.60 46.14 59.76 48.91 59.96 C 48.81 60.47 48.60 61.49 48.50 62.00 C 51.96 61.78 55.44 61.64 58.88 62.22 C 58.76 62.65 58.54 63.50 58.43 63.92 C 60.34 63.89 61.92 62.80 63.48 61.82 C 63.69 62.06 64.10 62.53 64.31 62.76 C 65.01 63.15 66.41 63.91 67.11 64.29 C 66.01 65.37 64.84 66.47 64.32 67.97 C 64.14 68.40 63.76 69.25 63.57 69.68 C 61.36 71.94 58.27 69.82 57.55 67.30 L 57.44 66.99 C 55.86 67.07 55.99 68.92 55.45 70.01 C 54.78 67.92 55.18 65.12 53.27 63.68 C 51.01 63.16 48.57 62.84 46.28 63.35 C 43.22 65.04 44.61 68.98 43.83 71.77 C 41.09 72.87 38.41 71.20 35.89 70.27 C 32.40 68.72 28.41 67.82 25.77 64.86 C 27.99 62.50 28.57 59.22 28.92 56.12 Z" />
</g>
<g id="#fdc654ff">
<path fill="#fdc654" opacity="1.00" d=" M 66.84 57.04 C 71.92 59.85 73.27 65.89 74.78 71.01 C 75.22 72.60 74.65 75.03 76.91 75.27 C 73.20 76.98 69.12 77.62 65.14 78.35 C 65.85 75.54 66.08 72.63 65.85 69.75 C 66.02 68.61 65.51 68.01 64.32 67.97 C 64.84 66.47 66.01 65.37 67.11 64.29 C 68.35 64.49 69.69 65.46 70.90 64.63 C 70.26 62.02 66.32 61.40 64.31 62.76 C 64.10 62.53 63.69 62.06 63.48 61.82 C 65.05 60.67 67.05 60.92 68.88 60.74 C 68.20 59.51 67.54 58.26 66.84 57.04 M 69.42 67.20 C 69.14 67.47 68.56 68.00 68.27 68.27 C 68.53 70.83 72.20 67.00 69.42 67.20 Z" />
</g>
<g id="#fed96eff">
<path fill="#fed96e" opacity="1.00" d=" M 20.82 75.51 C 21.58 69.69 22.91 63.71 26.78 59.08 C 26.12 60.69 25.41 62.27 24.88 63.92 L 25.77 64.86 C 28.41 67.82 32.40 68.72 35.89 70.27 C 38.41 71.20 41.09 72.87 43.83 71.77 C 44.61 68.98 43.22 65.04 46.28 63.35 C 48.57 62.84 51.01 63.16 53.27 63.68 C 55.18 65.12 54.78 67.92 55.45 70.01 C 55.99 68.92 55.86 67.07 57.44 66.99 L 57.55 67.30 C 55.29 68.82 57.72 70.82 59.13 71.88 C 61.67 72.76 64.20 71.73 65.85 69.75 C 66.08 72.63 65.85 75.54 65.14 78.35 C 50.46 80.24 34.93 80.51 20.82 75.51 M 46.78 67.22 C 47.61 66.64 48.41 66.57 49.18 66.98 C 50.64 68.30 52.00 66.15 52.33 64.92 C 50.51 63.67 46.13 63.89 46.78 67.22 Z" />
</g>
<g id="#7f431fff">
<path fill="#7f431f" opacity="1.00" d=" M 48.91 59.96 C 52.33 59.26 56.23 58.79 59.15 61.17 L 58.88 62.22 C 55.44 61.64 51.96 61.78 48.50 62.00 C 48.60 61.49 48.81 60.47 48.91 59.96 Z" />
<path fill="#7f431f" opacity="1.00" d=" M 64.31 62.76 C 66.32 61.40 70.26 62.02 70.90 64.63 C 69.69 65.46 68.35 64.49 67.11 64.29 C 66.41 63.91 65.01 63.15 64.31 62.76 Z" />
<path fill="#7f431f" opacity="1.00" d=" M 14.49 72.34 C 16.00 71.10 17.89 70.58 19.74 70.08 C 19.44 71.60 19.21 73.15 19.12 74.71 C 17.55 73.97 15.98 73.23 14.49 72.34 Z" />
</g>
<g id="#d8d7d2ff">
<path fill="#d8d7d2" opacity="1.00" d=" M 74.22 62.26 C 78.40 62.78 82.26 65.41 84.51 68.96 C 84.38 70.24 83.45 71.22 82.53 72.02 C 80.64 71.04 78.64 70.10 76.47 69.94 C 75.75 67.46 74.87 65.03 73.70 62.73 L 74.22 62.26 Z" />
</g>
<g id="#ff8656ff">
<path fill="#ff8656" opacity="1.00" d=" M 46.78 67.22 C 46.13 63.89 50.51 63.67 52.33 64.92 C 52.00 66.15 50.64 68.30 49.18 66.98 C 48.41 66.57 47.61 66.64 46.78 67.22 Z" />
</g>
<g id="#fe7d4dff">
<path fill="#fe7d4d" opacity="1.00" d=" M 69.42 67.20 C 72.20 67.00 68.53 70.83 68.27 68.27 C 68.56 68.00 69.14 67.47 69.42 67.20 Z" />
</g>
<g id="#d17326ff">
<path fill="#d17326" opacity="1.00" d=" M 59.13 71.88 C 57.72 70.82 55.29 68.82 57.55 67.30 C 58.27 69.82 61.36 71.94 63.57 69.68 C 63.76 69.25 64.14 68.40 64.32 67.97 C 65.51 68.01 66.02 68.61 65.85 69.75 C 64.20 71.73 61.67 72.76 59.13 71.88 Z" />
</g>
<g id="#75502dff">
<path fill="#75502d" opacity="1.00" d=" M 76.47 69.94 C 78.64 70.10 80.64 71.04 82.53 72.02 C 80.82 73.36 78.81 74.23 76.91 75.27 C 76.86 73.48 76.77 71.70 76.47 69.94 Z" />
</g>
<g id="#d9d9d9ff">
<path fill="#d9d9d9" opacity="1.00" d=" M 70.87 78.41 C 75.12 77.43 79.13 75.76 83.11 74.01 C 82.71 81.36 80.32 88.58 80.11 96.00 L 74.00 96.00 C 74.02 90.42 74.45 84.81 73.82 79.25 C 73.08 79.04 71.61 78.62 70.87 78.41 Z" />
</g>
<g id="#eaeaeaff">
<path fill="#eaeaea" opacity="1.00" d=" M 65.93 79.41 C 67.57 79.05 69.21 78.69 70.87 78.41 C 71.61 78.62 73.08 79.04 73.82 79.25 C 74.45 84.81 74.02 90.42 74.00 96.00 L 68.00 96.00 C 67.51 90.84 68.51 85.54 67.56 80.47 C 67.15 80.20 66.34 79.67 65.93 79.41 Z" />
</g>
<g id="#f4f4f4ff">
<path fill="#f4f4f4" opacity="1.00" d=" M 58.14 80.41 C 60.74 80.13 63.33 79.71 65.93 79.41 C 66.34 79.67 67.15 80.20 67.56 80.47 C 68.51 85.54 67.51 90.84 68.00 96.00 L 61.13 96.00 C 60.48 93.60 59.24 91.40 57.47 89.65 C 57.84 86.58 58.09 83.50 58.14 80.41 Z" />
</g>
<g id="#09542bff">
<path fill="#09542b" opacity="1.00" d=" M 37.71 96.00 C 39.22 87.22 51.12 83.61 57.47 89.65 C 59.24 91.40 60.48 93.60 61.13 96.00 L 37.71 96.00 Z" />
</g>
</svg>
